<?xml version="1.0" standalone="no"?>
<!DOCTYPE svg PUBLIC "-//W3C//DTD SVG 1.1//EN" "http://www.w3.org/Graphics/SVG/1.1/DTD/svg11.dtd" >
<svg>
<metadata>
Created by FontForge 20090914 at Mon Oct 31 23:51:57 2011
 By www-data
Digitized data (c) Copyright 1997 E+F Designstudios. ITC American Typewriter is a registered trademark of International Typeface Corporation.
</metadata>
<defs>
<font id="AmericanTypewriter" horiz-adv-x="637" >
  <font-face 
    font-family="American Typewriter"
    font-weight="400"
    font-stretch="normal"
    units-per-em="1000"
    panose-1="2 9 6 4 2 0 4 2 3 4"
    ascent="800"
    descent="-200"
    x-height="499.999"
    cap-height="670.999"
    bbox="-485 -363.999 1854.99 1097"
    underline-thickness="20"
    underline-position="-156"
    unicode-range="U+0008-U+FB02"
  />
<missing-glyph horiz-adv-x="500" 
d="M63 0v758h375v-758h-375zM125 63h250v633h-250v-633z" />
    <glyph glyph-name="fi" unicode="fi" horiz-adv-x="600" 
d="M392 580c0 8.66699 2.33203 17.3301 6.99902 25.9971c-18 17.333 -45.333 26 -82 26c-76 0 -114 -38 -114 -114c0 -16 6.33301 -24 19 -24h146c37.333 0 64 1 80 3c6 1.33301 12.667 2 20 2c18.667 0 28 -12.333 28 -37c0 -2.66699 -0.333008 -5 -1 -7
c-0.666992 -12.667 -1 -23.667 -1 -33c0 3.33301 -0.333008 -12.667 -1 -48l-1 -53v-162c0 -38 0.333008 -58.667 1 -62c2.66699 -27.333 12 -41 28 -41c7.33301 0 15.166 1.16699 23.499 3.5s15.166 3.5 20.499 3.5c21.333 0 32 -11 32 -33c0 -22.667 -13.333 -34 -40 -34
c-6 0 -25.333 1.66699 -58 5c-19.333 2 -39 3 -59 3c-16.667 0 -32.334 -1 -47.001 -3c-24.667 -3.33301 -41 -5 -49 -5c-20 0 -30 10.667 -30 32c0 23.333 10.667 35 32 35c3.33301 0 9.33301 -1 18 -3s16.334 -3 23.001 -3c16 0 25.667 15.667 29 47
c0.666992 3.33301 1 24.333 1 63v136c0 64.667 -3.66699 101.667 -11 111s-30.666 14 -69.999 14h-100c-16 0 -25.333 -2 -28 -6s-4.16699 -7.5 -4.5 -10.5s-0.5 -10.833 -0.5 -23.5v-148v-43c0 -12.667 0.333008 -27.667 1 -45c0.666992 -14.667 1 -24 1 -28v-41
c2.66699 -17.333 10.334 -26 23.001 -26c4.66699 0 11.167 1 19.5 3s14.5 3 18.5 3c22 0 33 -11.333 33 -34c0 -22 -13.333 -33 -40 -33c-6 0 -20.333 1.66699 -43 5c-14 2 -31 3 -51 3c-26 0 -44 -0.666992 -54 -2l-46 -6h-9c-26 0 -39 11 -39 33c0 24.667 12.667 37 38 37
c3.33301 0 9 -0.666992 17 -2c10.667 -3.33301 19.334 -5 26.001 -5c16.667 0 25.667 22.333 27 67c0 8.66699 0.333008 31.334 1 68.001c0 22.667 0.333008 46.334 1 71.001c0.666992 21.333 1 33 1 35v104c0 10.667 -1 17.334 -3 20.001s-7.66699 4 -17 4h-46
c-24 0 -36 11 -36 33s12 33 36 33h43c11.333 0 18.5 1 21.5 3s4.5 7 4.5 15c3.33301 119.333 66.333 179 189 179c50.667 0 92.334 -9.83301 125.001 -29.5s49 -45.167 49 -76.5c0 -34 -17 -51 -51 -51c-14.667 0 -26.834 4.33301 -36.501 13s-14.5 19.667 -14.5 33z" />
    <glyph glyph-name="fl" unicode="fl" horiz-adv-x="600" 
d="M300 691c44 0 84.668 -9.33496 122.001 -28.002c6.66699 0.666992 16 1.5 28 2.5s20 1.5 24 1.5c16 0 24 -10 24 -30c0 3.33301 -0.333008 1 -1 -7l-3 -36c-4.66699 -56 -7 -108.333 -7 -157v-296c0 -29.333 0.333008 -46 1 -50c3.33301 -22.667 12 -34 26 -34
c6 0 12.833 1.16699 20.5 3.5s14.5 3.5 20.5 3.5c22 0 33 -10.667 33 -32c0 -24 -12.667 -36 -38 -36c-6 0 -24.333 2.33301 -55 7c-17.333 2.66699 -36.333 4 -57 4c-23.333 0 -47 -2.66699 -71 -8c-8.66699 -2 -16.667 -3 -24 -3c-20 0 -30 11 -30 33
c0 22.667 11.333 34 34 34c3.33301 0 8.83301 -1 16.5 -3s12.834 -3 15.501 -3c10.667 0 18 5.66699 22 17s6.33301 33 7 65l4 167v200c0 50.667 -7.5 84.334 -22.5 101.001s-45.833 25 -92.5 25c-62.667 0 -94 -34.333 -94 -103c0 -17.333 1.16699 -27.5 3.5 -30.5
s10.833 -4.5 25.5 -4.5h44c30 0 45 -10.667 45 -32c0 -22.667 -14 -34 -42 -34h-53c-10 0 -16.333 -1.66699 -19 -5s-4 -11 -4 -23v-273c0 -24.667 0.333008 -39 1 -43c2.66699 -18 10.667 -27 24 -27c3.33301 0 12 1.66699 26 5c2.66699 0.666992 7 1 13 1
c22.667 0 34 -10.667 34 -32c0 -23.333 -12 -35 -36 -35c-10.667 0 -26.834 1.33301 -48.501 4s-38.167 4 -49.5 4c-22 0 -41 -1 -57 -3c-26.667 -3.33301 -43.334 -5 -50.001 -5c-28.667 0 -43 11.667 -43 35c0 8.66699 3.5 16.334 10.5 23.001s15.167 10 24.5 10
c6.66699 0 14.167 -1.16699 22.5 -3.5s15.833 -3.5 22.5 -3.5c12.667 0 20.667 8 24 24s5.33301 54.667 6 116l1 213c0 12 -6 18 -18 18h-50c-23.333 0 -35 11 -35 33s12 33 36 33h48c10 0 16.167 1.66699 18.5 5s3.83301 12.333 4.5 27c2 50.667 13.333 88.667 34 114
c28 34 72.667 51 134 51z" />
    <glyph glyph-name=".notdef" horiz-adv-x="500" 
d="M63 0v758h375v-758h-375zM125 63h250v633h-250v-633z" />
    <glyph glyph-name="controlNULL" horiz-adv-x="0" 
 />
    <glyph glyph-name="controlNULL" horiz-adv-x="0" 
 />
    <glyph glyph-name="controlBS" horiz-adv-x="0" 
 />
    <glyph glyph-name="controlHT" unicode="&#x9;" horiz-adv-x="250" 
 />
    <glyph glyph-name="controlCR" unicode="&#xd;" horiz-adv-x="250" 
 />
    <glyph glyph-name="controlGS" horiz-adv-x="0" 
 />
    <glyph glyph-name="space" unicode=" " horiz-adv-x="250" 
 />
    <glyph glyph-name="exclam" unicode="!" horiz-adv-x="419" 
d="M209 -17c-17.333 0 -32 6.16699 -44 18.5s-18 27.166 -18 44.499s6 32.166 18 44.499s26.667 18.5 44 18.5s32.166 -6.16699 44.499 -18.5s18.5 -27.166 18.5 -44.499s-6.16699 -32.166 -18.5 -44.499s-27.166 -18.5 -44.499 -18.5zM174 413l-2 109.999
c0 27.333 -0.666992 58.333 -2 93c-0.666992 5.33301 -1 11.666 -1 18.999c0 36 14 54 42 54c28.667 0 43 -19.333 43 -58c0 -7.33301 -0.333008 -14 -1 -20c-0.666992 -3.33301 -1.66699 -32.666 -3 -87.999l-3 -108v-188c0 -23.333 -0.333008 -37.666 -1 -42.999
c-2.66699 -18.667 -9.66699 -29 -21 -31c-4 -0.666992 -9 -1 -15 -1c-24 0 -36 16.667 -36 50v211z" />
    <glyph glyph-name="quotedbl" unicode="&#x22;" horiz-adv-x="329" 
d="M134 667l-14 -268h-54l-13 268h81zM276 667l-13 -268h-54l-13 268h80z" />
    <glyph glyph-name="numbersign" unicode="#" horiz-adv-x="600" 
d="M438 274h110l-11 -67h-109l-32 -207h-75l32 207h-135l-32 -207h-74l32 207h-112l10 67h112l20 132h-111l10 67h111l30 194h75l-30 -194h134l30 194h75l-29 -194h108l-10 -67h-109zM363 274l20 132h-134l-20 -132h134z" />
    <glyph glyph-name="dollar" unicode="$" 
d="M468 540c-14 42.667 -52.001 64.3359 -114.001 65.0029v-224l25 -6c52 -12 88 -23 108 -33s38.667 -26.333 56 -49c20.667 -27.333 31 -59.666 31 -96.999c0 -35.333 -9.66699 -68.166 -29 -98.499s-45 -52.833 -77 -67.5c-29.333 -14 -67.333 -25.333 -114 -34v-85
c0 -17.333 -9.33301 -26 -28 -26s-28 8.66699 -28 26v85c-49.333 3.33301 -91 12.166 -125 26.499s-60.833 34.833 -80.5 61.5s-29.5 56 -29.5 88c0 27.333 6.66699 49.333 20 66s31 25 53 25c14.667 0 27 -4.83301 37 -14.5s15 -21.834 15 -36.501
c0 -28.667 -17.333 -44 -52 -46c3.33301 -31.333 19.5 -56.333 48.5 -75s66.833 -28.334 113.5 -29.001v252l-15 4c-54 14.667 -90.667 26.334 -110 35.001c-24 10.667 -42.667 25.667 -56 45c-15.333 22 -23 50 -23 84c0 34.667 9.66699 67 29 97s44.333 51.667 75 65
c26 11.333 59.333 20.333 100 27v80c0 20 9.33301 30 28 30s28 -10 28 -30v-80c60 -6.66699 107.667 -23.334 143 -50.001s53 -59.334 53 -98.001c0 -17.333 -5.33301 -31.833 -16 -43.5s-24 -17.5 -40 -17.5c-13.333 0 -24.666 4.33301 -33.999 13s-14 19 -14 31
c0 13.333 7.33301 24.666 22 33.999zM297.999 393.002v212.001c-37.333 -1.33301 -67.833 -12 -91.5 -32s-35.5 -45.333 -35.5 -76c0 -26.667 8 -47.167 24 -61.5s44.333 -26.833 85 -37.5c3.33301 -0.666992 9.33301 -2.33398 18 -5.00098zM353.999 302.003
l0.000976562 -239.999c40.667 0.666992 74.5 12.667 101.5 36s40.5 52.666 40.5 87.999c0 32.667 -9.66699 57.667 -29 75s-51.333 30 -96 38c-2.66699 0.666992 -8.33398 1.66699 -17.001 3z" />
    <glyph glyph-name="percent" unicode="%" horiz-adv-x="801" 
d="M202 15l274 528c-20 -12.667 -38.667 -19 -56 -19c-31.333 0 -55.333 11.667 -72 35c5.33301 -24 8 -48.333 8 -73c0 -62.667 -14.5 -112.334 -43.5 -149.001s-68.5 -55 -118.5 -55c-48 0 -86.5 18.333 -115.5 55s-43.5 85.334 -43.5 146.001
c0 63.333 14.833 113.5 44.5 150.5s69.834 55.5 120.501 55.5c26.667 0 48 -3.83301 64 -11.5s37 -23.834 63 -48.501c33.333 -32 65 -48 95 -48c46.667 0 87 30.333 121 91c10.667 19.333 25 29 43 29c18.667 0 28 -5 28 -15c0 -1.33301 -0.666992 -4.66602 -2 -9.99902
l-9 -17l-342 -656c-7.33301 -14.667 -13.333 -24 -18 -28c-6.66699 -6.66699 -16.334 -10 -29.001 -10c-17.333 0 -26 5.66699 -26 17c0 4.66699 2 10.667 6 18zM441 172c0 65.333 14.999 117.166 44.999 155.499s70.667 57.5 122 57.5c49.333 0 88 -17.667 116 -53
s42 -84.666 42 -147.999c0 -61.333 -14.833 -111 -44.5 -149s-68.167 -57 -115.5 -57c-51.333 0 -91.666 17.333 -120.999 52s-44 82 -44 142zM288.999 484c0 98.667 -30 148 -90 148c-64.667 0 -97 -50 -97 -150c0 -45.333 8.33301 -80.5 25 -105.5s40 -37.5 70 -37.5
c61.333 0 92 48.333 92 145zM698.999 182c0 97.333 -30 146 -90 146c-31.333 0 -56 -13.5 -74 -40.5s-27 -64.167 -27 -111.5c0 -44 8.5 -78.5 25.5 -103.5s40.5 -37.5 70.5 -37.5c29.333 0 52.5 13 69.5 39s25.5 62 25.5 108z" />
    <glyph glyph-name="ampersand" unicode="&#x26;" horiz-adv-x="819" 
d="M459 569c0 -74 -47.998 -135.668 -143.998 -185.001l11 -18c18 -30 50 -77.667 96 -143l11 -14l6 17l39 103c46.667 122.667 113 184 199 184c40 0 72.333 -11.5 97 -34.5s37 -53.167 37 -90.5c0 -35.333 -11.667 -65.166 -35 -89.499s-52.333 -36.5 -87 -36.5
c-25.333 0 -46 6.33301 -62 19s-24 29.334 -24 50.001c0 32 14 48 42 48c24 0 36 -11 36 -33c0 -2.66699 -1.66699 -8 -5 -16c9.33301 -1.33301 14.666 -2 15.999 -2c12.667 0 23.667 5.33301 33 16s14 23.667 14 39c0 19.333 -6.16699 34.833 -18.5 46.5
s-29.166 17.5 -50.499 17.5c-34.667 0 -63 -19 -85 -57c-18 -30.667 -40 -81.667 -66 -153c-14 -38.667 -27 -68.667 -39 -90c28.667 -32 52.667 -53.333 72 -64s43.666 -16 72.999 -16c6 0 14.833 0.666992 26.5 2s20.5 2 26.5 2c27.333 0 41 -12.333 41 -37
c0 -23.333 -14 -35 -42 -35h-16c-9.33301 0.666992 -18.666 1 -27.999 1h-53c-46 0 -95 27 -147 81c-18 -20.667 -33.333 -35.334 -46 -44.001c-41.333 -28.667 -89 -43 -143 -43c-60.667 0 -110.334 18.333 -149.001 55s-58 84 -58 142c0 78 32.667 137.667 98 179
c22 14 42.333 25.667 61 35l12 6c-35.333 64 -53 115.333 -53 154c0 40 13.833 72.333 41.5 97s64.167 37 109.5 37c47.333 0 84.666 -11.667 111.999 -35s41 -55 41 -95zM237.002 568.999c0 -25.333 14.668 -67 44.001 -125c64.667 30.667 97 70 97 118
c0 21.333 -6.5 38.5 -19.5 51.5s-30.5 19.5 -52.5 19.5c-20.667 0 -37.334 -5.83301 -50.001 -17.5s-19 -27.167 -19 -46.5zM282.003 279.999c-16 24.667 -30.334 48 -43.001 70c-25.333 -12 -46 -25 -62 -39c-36.667 -31.333 -55 -71 -55 -119
c0 -37.333 11.833 -67.5 35.5 -90.5s54.5 -34.5 92.5 -34.5c56.667 0 102.334 23 137.001 69c-44.667 57.333 -79.667 105.333 -105 144z" />
    <glyph glyph-name="quotesingle" unicode="'" horiz-adv-x="187" 
d="M134 667l-14 -268h-54l-13 268h81z" />
    <glyph glyph-name="parenleft" unicode="(" horiz-adv-x="455" 
d="M67 248v19.001c0 116 37 214 111 294c42 45.333 88.333 80.333 139 105c42 20.667 72.667 31 92 31c12.667 0 19 -4.66699 19 -14c0 -7.33301 -8.66699 -15.333 -26 -24c-64 -31.333 -120 -76 -168 -134c-56 -67.333 -84 -150.666 -84 -249.999c0 -134 34 -241 102 -321
c48 -56.667 100 -98.334 156 -125.001c18.667 -8.66699 28 -17.334 28 -26.001s-6 -13 -18 -13c-23.333 0 -59 13 -107 39c-77.333 42 -137 100.333 -179 175c-40 70.667 -61.667 152 -65 244z" />
    <glyph glyph-name="parenright" unicode=")" horiz-adv-x="455" 
d="M264 565c78 -84.667 119.001 -193.332 123.001 -325.999c0.666992 -4 1 -10.333 1 -19c0 -116 -37.333 -214.333 -112 -295c-40 -43.333 -86.333 -78 -139 -104c-42 -20.667 -72.667 -31 -92 -31c-12.667 0 -19 4.66699 -19 14c0 7.33301 8.66699 15.333 26 24
c65.333 33.333 121.666 78 168.999 134c56 66.667 84 150 84 250c0 134 -34 241 -102 321c-48 56 -100.333 97.667 -157 125c-18.667 8.66699 -28 17 -28 25c0 9.33301 6 14 18 14c23.333 0 58.833 -12.833 106.5 -38.5s88.167 -56.834 121.5 -93.501z" />
    <glyph glyph-name="asterisk" unicode="*" 
d="M349 629l-16.999 -91.998c0 -3.33301 1.66699 -5 5 -5c2 0 7 3.66699 15 11l58 54c12.667 12 26 18 40 18c22 0 33 -9.66699 33 -29s-13 -34 -39 -44l-75 -28c-11.333 -4.66699 -17 -8.66699 -17 -12c0 -2.66699 5.66699 -6.33398 17 -11.001l75 -28
c26 -10 39 -24.333 39 -43c0 -20 -11 -30 -33 -30c-14 0 -27.333 6 -40 18l-58 54c-8 7.33301 -13 11 -15 11c-3.33301 0 -5 -1.66699 -5 -5v-4l2 -12l15 -76c1.33301 -6.66699 2 -12.334 2 -17.001c0 -28 -11 -42 -33 -42s-33 14 -33 42c0 5.33301 0.666992 11 2 17l16 76
c1.33301 6.66699 2 11.667 2 15c0 4 -1.66699 6 -5 6c-2 0 -7 -3.66699 -15 -11l-58 -54c-12.667 -12 -26.334 -18 -41.001 -18c-21.333 0 -32 9.66699 -32 29s13 34 39 44l74 28c11.333 4.66699 17 8.33398 17 11.001c0 4 -5.66699 8 -17 12l-74 28
c-26 10 -39 24.333 -39 43c0 19.333 11 29 33 29c14.667 0 28 -5.66699 40 -17l58 -54c8 -7.33301 13 -11 15 -11c3.33301 0 5 2 5 6c0 3.33301 -0.666992 8.33301 -2 15l-16 76c-1.33301 6 -2 11.667 -2 17c0 28.667 11 43 33 43s33 -14.333 33 -43
c0 -4.66699 -0.666992 -10.334 -2 -17.001z" />
    <glyph glyph-name="plus" unicode="+" horiz-adv-x="500" 
d="M33 299v68h180v171h74v-171h180v-68h-180v-171h-74v171h-180z" />
    <glyph glyph-name="comma" unicode="," horiz-adv-x="273" 
d="M149 -34c0 11.333 -5.66797 17 -17.001 17h-20c-15.333 0 -28.166 5.66699 -38.499 17s-15.5 25.333 -15.5 42c0 19.333 6.66699 35.5 20 48.5s30 19.5 50 19.5c24 0 43.333 -9.33301 58 -28s22 -43 22 -73c0 -50.667 -19.667 -103 -59 -157
c-17.333 -23.333 -32 -35 -44 -35c-13.333 0 -20 6.66699 -20 20c0 4.66699 2.66699 10.667 8 18c37.333 49.333 56 86.333 56 111z" />
    <glyph glyph-name="hyphen" unicode="-" horiz-adv-x="309" 
d="M37 267c0 23.333 13.333 35 40 35h156c26.667 0 40 -11.333 40 -34c0 -24 -13.333 -36 -40 -36h-156c-26.667 0 -40 11.667 -40 35z" />
    <glyph glyph-name="period" unicode="." horiz-adv-x="273" 
d="M136 -17c-17.333 0 -32 6.16699 -44 18.5s-18 27.166 -18 44.499s6 32.166 18 44.499s26.667 18.5 44 18.5s32 -6.16699 44 -18.5s18 -27.166 18 -44.499s-6 -32.166 -18 -44.499s-26.667 -18.5 -44 -18.5z" />
    <glyph glyph-name="slash" unicode="/" horiz-adv-x="400" 
d="M348 629l-286 -733c-8.66699 -22 -17.667 -46.667 -27 -74c-6 -16.667 -15 -25 -27 -25h-32c-10 0 -15 3.66699 -15 11c0 2.66699 1 5.66699 3 9l10 25l12 29l260 665l34 93l14 39c5.33301 14 15 21 29 21h30c8.66699 0 13 -3.66699 13 -11c0 -3.33301 -3 -12.333 -9 -27
z" />
    <glyph glyph-name="zero" unicode="0" 
d="M314 -22c-84.667 0 -151.165 31.1689 -199.498 93.502s-72.5 148.166 -72.5 257.499c0 111.333 25.167 199.166 75.5 263.499s119.166 96.5 206.499 96.5c83.333 0 149.166 -30.833 197.499 -92.5s72.5 -145.167 72.5 -250.5c0 -114 -25 -203.833 -75 -269.5
s-118.333 -98.5 -205 -98.5zM322.002 615.002c-122.667 0 -186.333 -91.667 -191 -275v-15c0 -87.333 16 -154.833 48 -202.5s77.333 -71.5 136 -71.5c60 0 107 26 141 78s51 123.667 51 215c0 87.333 -16 154.333 -48 201s-77.667 70 -137 70z" />
    <glyph glyph-name="one" unicode="1" 
d="M283 231l-2.99805 290.001c-0.666992 34 -4.16699 56.667 -10.5 68s-18.833 17 -37.5 17c-6.66699 0 -16.334 -0.833008 -29.001 -2.5s-22.334 -2.5 -29.001 -2.5c-26 0 -39 11.667 -39 35s12.333 35 37 35c8 0 20.5 -0.833008 37.5 -2.5s30.167 -2.5 39.5 -2.5
c21.333 0 39 0.666992 53 2c20.667 2 33.334 3 38.001 3c14.667 0 23.667 -4.33301 27 -13c2.66699 -6 4 -16.333 4 -31c0 -2 -0.333008 -10 -1 -24c-3.33301 -71.333 -5 -136 -5 -194v-113c0 -20.667 0.333008 -48.334 1 -83.001c1.33301 -42 2 -69.667 2 -83
c0.666992 -46 16 -69 46 -69c7.33301 0 18.333 0.833008 33 2.5s25.667 2.5 33 2.5c32 0 48 -11.667 48 -35s-14.667 -35 -44 -35c-11.333 0 -22 0.666992 -32 2c-56 7.33301 -98.667 11 -128 11s-65.333 -3 -108 -9c-24 -3.33301 -41 -5 -51 -5c-28.667 0 -43 12 -43 36
c0 23.333 16.333 35 49 35c10 0 20.333 -1 31 -3c16 -1.33301 26 -2 30 -2c23.333 0 37.666 9.16699 42.999 27.5s8 65.833 8 142.5z" />
    <glyph glyph-name="two" unicode="2" 
d="M123 119c30 32 66.334 47.998 109.001 47.998c39.333 0 80.666 -17.333 123.999 -52c48 -38 85 -57 111 -57c18.667 0 33.834 6.16699 45.501 18.5s17.5 28.166 17.5 47.499c0 6.66699 -1.33301 14 -4 22c-10.667 -10.667 -22.667 -16 -36 -16c-28.667 0 -43 14 -43 42
c0 15.333 5.66699 28 17 38s26.333 15 45 15c24.667 0 44.5 -8.83301 59.5 -26.5s22.5 -41.167 22.5 -70.5c0 -41.333 -13 -76.666 -39 -105.999s-57.667 -44 -95 -44c-35.333 0 -77.833 19 -127.5 57s-93.167 57 -130.5 57s-60.666 -14 -69.999 -42
c6.66699 1.33301 10.667 2 12 2c19.333 0 29 -9.66699 29 -29c0 -30 -16.667 -45 -50 -45c-22 0 -39.833 9.5 -53.5 28.5s-20.5 44.5 -20.5 76.5c0 116.667 80.333 200.667 241 252l72 23c80.667 26 121 69.667 121 131c0 41.333 -14.5 74 -43.5 98s-68.833 36 -119.5 36
c-44.667 0 -81.667 -9 -111 -27s-46.666 -42.667 -51.999 -74c36 -2.66699 54 -18.334 54 -47.001c0 -17.333 -6.33301 -32.166 -19 -44.499s-28.334 -18.5 -47.001 -18.5c-22.667 0 -40.834 7.83301 -54.501 23.5s-20.5 36.167 -20.5 61.5
c0 54.667 24.667 100.334 74 137.001s110.333 55 183 55c70.667 0 128.5 -18.5 173.5 -55.5s67.5 -84.833 67.5 -143.5c0 -40 -10.833 -75.333 -32.5 -106s-51.834 -53.667 -90.501 -69c-12 -4.66699 -52 -18.667 -120 -42c-48.667 -16.667 -87.667 -32.667 -117 -48
c-21.333 -11.333 -39.5 -25.666 -54.5 -42.999s-24.167 -38.333 -27.5 -63z" />
    <glyph glyph-name="three" unicode="3" 
d="M250 389l208.001 204.004h-232c-26 0 -43.333 -1.66699 -52 -5c-16.667 -5.33301 -25 -18.333 -25 -39c0 -6.66699 0.666992 -16.334 2 -29.001s2 -22.334 2 -29.001c0 -34.667 -11.667 -52 -35 -52c-22.667 0 -34 14.333 -34 43c0 8 0.5 20.167 1.5 36.5
s1.5 28.5 1.5 36.5c0 18.667 -0.333008 32.667 -1 42s-1 19.666 -1 30.999c0 18 3.33301 29.167 10 33.5s23.334 6.5 50.001 6.5h246c13.333 0 36 0.666992 68 2c16 0.666992 34.667 1 56 1c39.333 0 59 -12 59 -36c0 -15.333 -8.33301 -31 -25 -47l-184 -177
c4 0 9.33301 0.333008 16 1h13c56.667 0 103.167 -18.167 139.5 -54.5s54.5 -82.833 54.5 -139.5c0 -70.667 -25.833 -128.334 -77.5 -173.001s-118.167 -67 -199.5 -67c-74.667 0 -137 18.167 -187 54.5s-75 81.833 -75 136.5c0 31.333 9 57.833 27 79.5
s40.333 32.5 67 32.5c17.333 0 31.5 -5.16699 42.5 -15.5s16.5 -23.833 16.5 -40.5c0 -33.333 -19.667 -50 -59 -50h-11v-7c0 -32.667 18.167 -61 54.5 -85s79.166 -36 128.499 -36c55.333 0 100.666 15.833 135.999 47.5s53 72.167 53 121.5c0 86.667 -49.333 130 -148 130
c-26 0 -53 -3 -81 -9c-6 -1.33301 -11.667 -2 -17 -2c-16 0 -24 8.66699 -24 26c0 8 5.33301 17.333 16 28z" />
    <glyph glyph-name="four" unicode="4" 
d="M453 618l0.00292969 -345.001h118c22 0 33 -11.333 33 -34s-11.667 -34 -35 -34h-116v-61c0 -55.333 15 -83 45 -83c8 0 19 0.666992 33 2l21 2c28 0 42 -11.333 42 -34c0 -23.333 -12 -35 -36 -35c-14.667 0 -34.334 2 -59.001 6c-20.667 3.33301 -46.334 5 -77.001 5
c-18.667 0 -46.667 -2 -84 -6s-65.333 -6 -84 -6c-25.333 0 -38 11.333 -38 34c0 24 15.333 36 46 36c6.66699 0 16.5 -0.666992 29.5 -2s22.833 -2 29.5 -2c33.333 0 50 27.667 50 83v61h-310c-30.667 0 -46 13.333 -46 40c0 10.667 3.66699 21.334 11 32.001l265 329
c28 34.667 48.667 57.167 62 67.5s28.666 15.5 45.999 15.5c36 0 54 -23.667 54 -71zM112.003 272.999h259l7 327z" />
    <glyph glyph-name="five" unicode="5" 
d="M186 557l-12.001 -160.001c52 36 109.333 54 172 54c74.667 0 133.667 -19.833 177 -59.5s65 -93.834 65 -162.501c0 -74.667 -25.833 -135.167 -77.5 -181.5s-119.167 -69.5 -202.5 -69.5c-68.667 0 -126.834 16.833 -174.501 50.5s-71.5 74.834 -71.5 123.501
c0 24 7.66699 44.167 23 60.5s34 24.5 56 24.5c17.333 0 31.5 -5 42.5 -15s16.5 -23.333 16.5 -40c0 -11.333 -3.83301 -21.166 -11.5 -29.499s-16.834 -12.5 -27.501 -12.5c-8 -0.666992 -12 -3 -12 -7c0 -22 17.5 -41.833 52.5 -59.5s74.167 -26.5 117.5 -26.5
c53.333 0 97.166 16.5 131.499 49.5s51.5 75.167 51.5 126.5c0 49.333 -14.5 88.166 -43.5 116.499s-68.833 42.5 -119.5 42.5c-62 0 -111.333 -18 -148 -54c-14.667 -14 -25 -23.167 -31 -27.5s-13.667 -7.16602 -23 -8.49902h-4c-26 0 -39 14.667 -39 44
c0 1.33301 0.333008 2.66602 1 3.99902l14 193c0.666992 10.667 1.33398 29 2.00098 55c0.666992 36.667 3.33398 59.167 8.00098 67.5s17 12.5 37 12.5c8 0 14 -0.333008 18 -1l49 1h58h123c19.333 0 34 0.333008 44 1c20 1.33301 33.667 2 41 2
c26.667 0 40 -19.667 40 -59l-1 -7c0 -17.333 2.66699 -37.666 8 -60.999c2.66699 -8 4 -15.333 4 -22c0 -21.333 -11.333 -32 -34 -32c-21.333 0 -32.666 15.667 -33.999 47c-1.33301 37.333 -17.666 56 -48.999 56h-209c-16.667 0 -26 -12 -28 -36z" />
    <glyph glyph-name="six" unicode="6" 
d="M342 623c-60 0 -108.668 -25.166 -146.001 -75.499s-58.333 -118.833 -63 -205.5c42 72.667 111.333 109 208 109c72.667 0 132 -21.333 178 -64s69 -97.334 69 -164.001c0 -71.333 -24.667 -130 -74 -176s-112.666 -69 -189.999 -69c-85.333 0 -152.5 28.333 -201.5 85
s-73.5 134 -73.5 232c0 120.667 27 216.5 81 287.5s126.667 106.5 218 106.5c56 0 103.667 -14 143 -42s59 -62 59 -102c0 -18.667 -6.5 -34.667 -19.5 -48s-28.167 -20 -45.5 -20c-14 0 -26.167 5.16699 -36.5 15.5s-15.5 22.833 -15.5 37.5c0 20 9.33301 33.333 28 40
c-20 35.333 -59.667 53 -119 53zM326.999 383.001c-54 0 -96.667 -14.832 -128 -44.499s-47 -69.834 -47 -120.501c0 -52 15.833 -93.5 47.5 -124.5s73.834 -46.5 126.501 -46.5c51.333 0 93.166 16 125.499 48s48.5 73.333 48.5 124c0 49.333 -15.833 89 -47.5 119
s-73.5 45 -125.5 45z" />
    <glyph glyph-name="seven" unicode="7" 
d="M139 629l-1.99902 -11.0029c16.667 26.667 31.667 44.667 45 54s31.333 14 54 14c32.667 0 71 -17 115 -51c49.333 -38 87.333 -57 114 -57c28 0 45.333 9.33301 52 28h-8c-9.33301 0 -17.833 4 -25.5 12s-11.5 17 -11.5 27c0 12.667 4.83301 23.5 14.5 32.5
s21.167 13.5 34.5 13.5c44 0 66 -29.667 66 -89c0 -44 -11 -82.667 -33 -116c-14 -20.667 -29 -38.667 -45 -54c-7.33301 -7.33301 -22 -20.666 -44 -39.999c-45.333 -39.333 -76.333 -75.666 -93 -108.999c-24 -47.333 -36 -104.666 -36 -171.999
c0 1.33301 0.333008 -6 1 -22c1.33301 -32 2 -46.333 2 -43c0 -42 -16.667 -63 -50 -63c-34.667 0 -52 27.333 -52 82c0 86 16 161 48 225c26 52 81.333 112.667 166 182c34.667 28.667 54.334 52.334 59.001 71.001c-22.667 -19.333 -51.334 -29 -86.001 -29
c-42.667 0 -84.334 15.333 -125.001 46l-41 31c-14.667 10.667 -31 16 -49 16c-42.667 0 -64 -27.333 -64 -82c0 -16.667 1.33301 -31.667 4 -45c4.66699 -23.333 7 -40.666 7 -51.999s-3.83301 -21 -11.5 -29s-17.167 -12 -28.5 -12c-26.667 0 -40 14.333 -40 43
c0 11.333 1.83301 28.666 5.5 51.999s5.5 41.333 5.5 54c0 18.667 -1.33301 38.667 -4 60s-4 40 -4 56c0 27.333 11.667 41 35 41c19.333 0 29 -11.667 29 -35c0 -4.66699 -1.33301 -14.334 -4 -29.001z" />
    <glyph glyph-name="eight" unicode="8" 
d="M121 341c17.333 13.333 40.668 25.334 70.001 36.001c-36.667 20.667 -61.667 40.5 -75 59.5s-20 43.5 -20 73.5c0 50.667 21.5 93.167 64.5 127.5s95.833 51.5 158.5 51.5s115.5 -17.167 158.5 -51.5s64.5 -76.833 64.5 -127.5c0 -30 -6.83301 -54.5 -20.5 -73.5
s-38.5 -38.833 -74.5 -59.5c28 -10.667 51 -22.667 69 -36c46.667 -35.333 70 -84.333 70 -147c0 -64 -24.333 -116 -73 -156s-112.334 -60 -191.001 -60c-82 0 -147.667 19.667 -197 59s-74 91.666 -74 156.999c0 62 23.333 111 70 147zM319.002 618.001
c-40 0 -72.833 -10.1689 -98.5 -30.502s-38.5 -46.166 -38.5 -77.499c0 -28 12.667 -50.833 38 -68.5s58.333 -26.5 99 -26.5s73.5 8.83301 98.5 26.5s37.5 40.834 37.5 69.501c0 31.333 -12.833 57 -38.5 77s-58.167 30 -97.5 30zM323.002 338.999
c-57.333 0 -102.167 -12.8311 -134.5 -38.498s-48.5 -60.834 -48.5 -105.501c0 -43.333 16.5 -78.5 49.5 -105.5s76.167 -40.5 129.5 -40.5s96.5 13.5 129.5 40.5s49.5 62.167 49.5 105.5s-16 78.166 -48 104.499s-74.333 39.5 -127 39.5z" />
    <glyph glyph-name="nine" unicode="9" 
d="M286 43c62.667 0 112.33 24.8301 148.997 74.4971s56 117.834 58 204.501c-37.333 -68 -103.666 -102 -198.999 -102c-69.333 0 -125.666 20.833 -168.999 62.5s-65 95.834 -65 162.501c0 70 23.833 128.167 71.5 174.5s107.834 69.5 180.501 69.5
c82.667 0 147.667 -29.167 195 -87.5s71 -138.5 71 -240.5c0 -119.333 -26.333 -213 -79 -281s-125.334 -102 -218.001 -102c-58.667 0 -108.5 14 -149.5 42s-61.5 62.333 -61.5 103c0 19.333 6.16699 35.5 18.5 48.5s27.5 19.5 45.5 19.5
c14.667 0 27.334 -4.83301 38.001 -14.5s16 -21.167 16 -34.5c0 -19.333 -9.66699 -33.666 -29 -42.999c20.667 -37.333 63 -56 127 -56zM313.996 617.997c-50 0 -90.499 -15.667 -121.499 -47s-46.5 -72 -46.5 -122c0 -48.667 14.667 -87.334 44 -116.001
s68.666 -43 117.999 -43c52 0 92.833 14.333 122.5 43s44.5 67.667 44.5 117c0 50.667 -14.833 91.334 -44.5 122.001s-68.5 46 -116.5 46z" />
    <glyph glyph-name="colon" unicode=":" horiz-adv-x="273" 
d="M136 -17c-17.333 0 -32 6.16699 -44 18.5s-18 27.166 -18 44.499s6 32.166 18 44.499s26.667 18.5 44 18.5s32 -6.16699 44 -18.5s18 -27.166 18 -44.499s-6 -32.166 -18 -44.499s-26.667 -18.5 -44 -18.5zM136 321c-17.333 0 -32 6.16699 -44 18.5
s-18 27.166 -18 44.499s6 32.166 18 44.499s26.667 18.5 44 18.5s32 -6.16699 44 -18.5s18 -27.166 18 -44.499s-6 -32.166 -18 -44.499s-26.667 -18.5 -44 -18.5z" />
    <glyph glyph-name="semicolon" unicode=";" horiz-adv-x="273" 
d="M149 -34c0 11.333 -5.66797 17 -17.001 17h-20c-15.333 0 -28.166 5.66699 -38.499 17s-15.5 25.333 -15.5 42c0 19.333 6.66699 35.5 20 48.5s30 19.5 50 19.5c24 0 43.333 -9.33301 58 -28s22 -43 22 -73c0 -50.667 -19.667 -103 -59 -157
c-17.333 -23.333 -32 -35 -44 -35c-13.333 0 -20 6.66699 -20 20c0 4.66699 2.66699 10.667 8 18c37.333 49.333 56 86.333 56 111zM125.999 321c-17.333 0 -32 6.16699 -44 18.5s-18 27.166 -18 44.499s6 32.166 18 44.499s26.667 18.5 44 18.5
s32.166 -6.16699 44.499 -18.5s18.5 -27.166 18.5 -44.499s-6.16699 -32.166 -18.5 -44.499s-27.166 -18.5 -44.499 -18.5z" />
    <glyph glyph-name="less" unicode="&#x3c;" horiz-adv-x="500" 
d="M33 362l434 203v-73l-355 -162l354 -162l1 -73l-434 203v64z" />
    <glyph glyph-name="equal" unicode="=" horiz-adv-x="500" 
d="M33 386v65h434v-65h-434zM33 233v65h434v-65h-434z" />
    <glyph glyph-name="greater" unicode="&#x3e;" horiz-adv-x="500" 
d="M467 298l-434 -203v74l355 161l-354 162l-1 73l434 -203v-64z" />
    <glyph glyph-name="question" unicode="?" horiz-adv-x="600" 
d="M282 -17c-17.333 0 -32.166 6.16699 -44.499 18.5s-18.5 27.166 -18.5 44.499s6.16699 32.166 18.5 44.499s27.166 18.5 44.499 18.5s32 -6.16699 44 -18.5s18 -27.166 18 -44.499s-6 -32.166 -18 -44.499s-26.667 -18.5 -44 -18.5zM138 503
c0 -17.333 8.66504 -31.665 25.998 -42.998c-0.666992 2.66699 -1 6 -1 10c0 9.33301 3.5 17.166 10.5 23.499s15.833 9.5 26.5 9.5c29.333 0 44 -14.667 44 -44c0 -19.333 -7.66699 -35.5 -23 -48.5s-34.333 -19.5 -57 -19.5c-29.333 0 -53.5 9.83301 -72.5 29.5
s-28.5 44.834 -28.5 75.501c0 56 23.833 102.167 71.5 138.5s108.834 54.5 183.501 54.5c74 0 133.5 -17.333 178.5 -52s67.5 -80.334 67.5 -137.001c0 -71.333 -35.333 -125 -106 -161c-12 -6 -27.333 -13 -46 -21c-39.333 -16.667 -66.166 -32.667 -80.499 -48
s-21.5 -35.666 -21.5 -60.999c0 -18.667 -1.66699 -31.334 -5 -38.001c-5.33301 -10 -16 -15 -32 -15c-28 0 -42 17.333 -42 52c0 32 8 59.333 24 82c20 27.333 56.667 55.666 110 84.999c48 26 79 47 93 63s21 37.667 21 65c0 36.667 -15 66.167 -45 88.5
s-69.667 33.5 -119 33.5c-50 0 -92 -11.833 -126 -35.5s-51 -52.5 -51 -86.5z" />
    <glyph glyph-name="at" unicode="@" horiz-adv-x="692" 
d="M397 201c0 5.33301 0.332031 9.99707 0.999023 13.9971c-25.333 -39.333 -64.333 -59 -117 -59c-32 0 -57.833 10.833 -77.5 32.5s-29.5 49.834 -29.5 84.501c0 60.667 22 114.167 66 160.5s95 69.5 153 69.5c13.333 0 28 -2 44 -6l20 -5c2.66699 -1.33301 6 -2 10 -2
c3.33301 0 9 1.66699 17 5c10.667 4.66699 18.334 7 23.001 7c10 0 15 -4.33301 15 -13c0 -2 -0.666992 -5.66699 -2 -11l-5 -19l-57 -213c-2 -8 -3 -14.333 -3 -19c0 -12 6.33301 -18 19 -18c24.667 0 47.667 16 69 48c30 44.667 45 96.334 45 155.001
c0 55.333 -18.167 101.333 -54.5 138s-82.166 55 -137.499 55c-78 0 -145.833 -31.167 -203.5 -93.5s-86.5 -135.5 -86.5 -219.5c0 -65.333 21 -119.833 63 -163.5s94.667 -65.5 158 -65.5c37.333 0 68.166 4.5 92.499 13.5s54.833 26.833 91.5 53.5
c13.333 10 24.333 15 33 15c12.667 0 19 -6 19 -18c0 -12.667 -8.66699 -25.667 -26 -39c-66 -52 -138.667 -78 -218 -78c-80.667 0 -147.834 26.833 -201.501 80.5s-80.5 120.834 -80.5 201.501c0 97.333 36.167 182.166 108.5 254.499s157.833 108.5 256.5 108.5
c74.667 0 135.5 -22 182.5 -66s70.5 -101.333 70.5 -172c0 -79.333 -29 -148.666 -87 -207.999c-35.333 -36 -72.333 -54 -111 -54c-17.333 0 -31.666 4.33301 -42.999 13s-17 19.667 -17 33zM417.999 336.997l27 100c-20 10 -39.333 15 -58 15
c-38.667 0 -72.5 -17 -101.5 -51s-43.5 -73.667 -43.5 -119c0 -46 20 -69 60 -69c55.333 0 94 41.333 116 124z" />
    <glyph glyph-name="A" unicode="A" horiz-adv-x="746" 
d="M523 113l-36.001 97.999c-4 10.667 -8.16699 17.334 -12.5 20.001s-13.166 4 -26.499 4h-178c-13.333 0 -22.5 -2.33301 -27.5 -7s-11.5 -17.334 -19.5 -38.001l-29 -77c-2.66699 -7.33301 -4 -14.333 -4 -21c0 -21.333 13 -32 39 -32c6.66699 0 16.167 0.666992 28.5 2
s21.5 2 27.5 2c27.333 0 41 -11.667 41 -35c0 -22 -15 -33 -45 -33c-5.33301 0 -12.666 0.666992 -21.999 2l-50 7c-9.33301 1.33301 -24.666 2 -45.999 2c-23.333 0 -39.666 -0.666992 -48.999 -2l-42 -6c-18.667 -2.66699 -32.334 -4 -41.001 -4c-26 0 -39 11 -39 33
c0 23.333 12.667 35 38 35c5.33301 0 9.33301 -0.333008 12 -1h13c18 0 31.667 7 41 21c4 5.33301 10.667 21 20 47l186 503c10.667 28 31.667 42 63 42c30.667 0 51 -14 61 -42l179 -496c11.333 -31.333 21.666 -52 30.999 -62s22.666 -15 39.999 -15
c5.33301 0 9.33301 0.333008 12 1l28 2c25.333 0 38 -10.667 38 -32c0 -22.667 -12.667 -34 -38 -34c-7.33301 0 -17 0.666992 -29 2c-42 4.66699 -73.333 7 -94 7c-24.667 0 -64.667 -2.66699 -120 -8c-14 -1.33301 -24.667 -2 -32 -2c-26.667 0 -40 11.333 -40 34
s14.667 34 44 34c6 0 14.833 -0.666992 26.5 -2s20.5 -2 26.5 -2c22 0 33 9 33 27c0 2.66699 -2.66699 11.334 -8 26.001zM450.999 316.999l-90 276l-92 -276c-1.33301 -4 -2 -6.33301 -2 -7c0 -6 5 -9 15 -9h159c8 0 12 2.66699 12 8c0 1.33301 -0.666992 4 -2 8z" />
    <glyph glyph-name="B" unicode="B" horiz-adv-x="692" 
d="M607 510c0 -68 -38.6689 -116 -116.002 -144c28 -8.66699 51 -18.334 69 -29.001c54 -31.333 81 -78.333 81 -141c0 -61.333 -23.667 -110.166 -71 -146.499s-110.666 -54.5 -189.999 -54.5c-28.667 0 -65 1.66699 -109 5s-76.333 5 -97 5c-18 0 -35 -1 -51 -3l-47 -6
c-1.33301 0 -3.66602 -0.333008 -6.99902 -1h-7c-28.667 0.666992 -43 12.667 -43 36c0 21.333 10.333 32 31 32c5.33301 0 14.333 -1 27 -3c8.66699 -1.33301 15.667 -2 21 -2c34 0 51 24.667 51 74v402c0 50 -17 75 -51 75c-6 0 -13 -0.666992 -21 -2
c-12 -2 -21 -3 -27 -3c-20.667 0 -31 10.667 -31 32c0 23.333 15.333 35 46 35h13l49 -7c14 -2 33 -3 57 -3c25.333 0 61.333 2 108 6c31.333 2.66699 65 4 101 4c67.333 0 119.833 -14.167 157.5 -42.5s56.5 -67.833 56.5 -118.5zM223.998 467
c0 -35.333 3.16699 -57.167 9.5 -65.5s23.833 -12.5 52.5 -12.5h56c118 0 177 38.333 177 115c0 70 -48.667 105 -146 105c-68 0 -109.833 -4.33301 -125.5 -13s-23.5 -31 -23.5 -67v-62zM223.998 263.999v-111c0 -43.333 7.33301 -70 22 -80s54.667 -15 120 -15
c124.667 0 187 46.667 187 140c0 86 -60 129 -180 129h-83c-36 0 -56.667 -8 -62 -24c-2.66699 -8 -4 -21 -4 -39z" />
    <glyph glyph-name="C" unicode="C" 
d="M338 689c74 0 134.333 -28.335 181 -85.002l-1 11v11c-0.666992 4 -1 6.33301 -1 7c-1.33301 14.667 -2 21.334 -2 20.001c0 22.667 10.667 34 32 34c22.667 0 34 -14 34 -42c0 -5.33301 -1.33301 -21.333 -4 -48c-3.33301 -33.333 -5 -56.333 -5 -69
c0 -18 1 -36.333 3 -55l4 -38v-10c0 -30 -12 -45 -36 -45c-26 0 -38.667 14.333 -38 43l1 36c1.33301 48 -13.667 87 -45 117s-72.333 45 -123 45c-66 0 -117.667 -25.333 -155 -76s-56 -120.667 -56 -210c0 -91.333 19.167 -162.5 57.5 -213.5s91.833 -76.5 160.5 -76.5
c37.333 0 70.833 9 100.5 27s50.5 41.667 62.5 71c8 19.333 12 45.333 12 78c0 30.667 12.667 46 38 46c27.333 0 41 -15.333 41 -46c0 -71.333 -24.667 -129.666 -74 -174.999s-113 -68 -191 -68c-90 0 -161.833 31.667 -215.5 95s-80.5 147.666 -80.5 252.999
c0 108.667 27.5 196.334 82.5 263.001s127.5 100 217.5 100z" />
    <glyph glyph-name="D" unicode="D" horiz-adv-x="728" 
d="M149 534c0 50 -17.0029 75 -51.0029 75c-6 0 -13 -0.666992 -21 -2c-12 -2 -21 -3 -27 -3c-20.667 0 -31 10.667 -31 32c0 23.333 15 35 45 35c3.33301 0 7.66602 -0.333008 12.999 -1l53 -7c20 -2.66699 41.333 -4 64 -4c18.667 0 37.334 1 56.001 3l65 7
c12.667 1.33301 29.334 2 50.001 2c60.667 0 111.334 -8.66699 152.001 -26c53.333 -22.667 95.5 -62 126.5 -118s46.5 -121 46.5 -195c0 -65.333 -12.333 -124.166 -37 -176.499s-58.334 -90.833 -101.001 -115.5c-51.333 -30 -113.333 -45 -186 -45
c-14.667 0 -29.667 0.666992 -45 2l-69 6c-23.333 2 -47.666 3 -72.999 3c-22 0 -40 -1 -54 -3l-48 -7c-1.33301 0 -3.66602 -0.333008 -6.99902 -1h-8c-28.667 0 -43 11.667 -43 35c0 9.33301 3 17.166 9 23.499s13.333 9.5 22 9.5c7.33301 0 16.333 -1 27 -3
c4.66699 -1.33301 11.667 -2 21 -2c34 0 51 25 51 75v401zM232.997 544v-422.998c0 -30.667 15 -49.334 45 -56.001c10 -2.66699 38 -4 84 -4c80 0 138 21.667 174 65c43.333 52 65 120.667 65 206c0 66.667 -13.167 123.167 -39.5 169.5s-62.5 76.166 -108.5 89.499
c-29.333 8.66699 -64.666 13 -105.999 13c-52.667 0 -84.834 -3 -96.501 -9s-17.5 -23 -17.5 -51z" />
    <glyph glyph-name="E" unicode="E" horiz-adv-x="673" 
d="M149 534c0 49.333 -17.002 73.999 -51.002 73.999c-9.33301 0 -16.333 -0.666992 -21 -2c-10.667 -2 -19.667 -3 -27 -3c-8.66699 0 -16 3.16699 -22 9.5s-9 14.166 -9 23.499c0 23.333 14 35 42 35c0.666992 0 5.66699 -0.333008 15 -1
c100 -6.66699 146.667 -10 140 -10h10l241 7c4.66699 0 22 1 52 3c10.667 0.666992 20.334 1 29.001 1c34.667 0 52 -15.333 52 -46c0 -5.33301 -1.33301 -22.333 -4 -51c-2 -21.333 -3 -41 -3 -59c0 -23.333 0.666992 -39.666 2 -48.999
c2.66699 -19.333 4 -33.666 4 -42.999c0 -25.333 -12 -38 -36 -38s-36 17.667 -36 53v52c0 56 -11.667 89 -35 99c-17.333 7.33301 -62 11 -134 11c-47.333 0 -75.333 -1 -84 -3c-28.667 -7.33301 -43 -27.333 -43 -60v-45v-22c-0.666992 -9.33301 -1 -16 -1 -20v-13
c0 -26.667 6 -42 18 -46c4.66699 -1.33301 12.667 -2 24 -2h41c42 0 63 14.333 63 43c0 8 -1 18.333 -3 31s-3 24 -3 34c0 26.667 12 40 36 40s36 -14.333 36 -43c0 -5.33301 -2.33301 -26 -7 -62c-4 -30.667 -6 -57.667 -6 -81c0 -13.333 1.33301 -37 4 -71
c0.666992 -5.33301 2.33398 -17 5.00098 -35c2 -14.667 3 -26.334 3 -35.001c0 -24 -12 -36 -36 -36c-23.333 0 -35 14 -35 42c0 7.33301 0.833008 18 2.5 32s2.5 24.667 2.5 32c0 28.667 -19 43 -57 43h-45c-19.333 0 -31.166 -3.33301 -35.499 -10s-6.5 -21 -6.5 -43v-62
c0 -10.667 0.333008 -25 1 -43c0.666992 -22 1 -36.667 1 -44c0.666992 -26.667 6 -43.334 16 -50.001c7.33301 -4.66699 24.666 -7 51.999 -7h136c39.333 0 66.333 5.83301 81 17.5s22 33.5 22 65.5c0 10 -0.5 24.833 -1.5 44.5s-1.5 34.5 -1.5 44.5c0 30 12 45 36 45
c25.333 0 38 -15.333 38 -46c0 -12 -0.666992 -30.333 -2 -55s-2 -43 -2 -55c0 -9.33301 0.5 -23.166 1.5 -41.499s1.5 -32.166 1.5 -41.499c0 -31.333 -15.333 -47 -46 -47c-7.33301 0 -19 0.666992 -35 2c-8 0.666992 -22.667 1 -44 1c4.66699 0 -21.333 0.666992 -78 2
s-105.667 2 -147 2c-62.667 0 -124 -2 -184 -6c-2.66699 0 -5.66699 -0.333008 -9 -1h-6c-28 0 -42 12 -42 36c0 21.333 10.333 32 31 32c3.33301 0 12.333 -0.666992 27 -2c7.33301 -2 14.333 -3 21 -3c34 0 51 25 51 75v401z" />
    <glyph glyph-name="F" unicode="F" horiz-adv-x="619" 
d="M148 291v84.0049l-1 159c0 49.333 -17 74 -51 74c-8.66699 0 -15.334 -0.666992 -20.001 -2c-10.667 -2 -19.334 -3 -26.001 -3c-8.66699 0 -16 3.16699 -22 9.5s-9 14.166 -9 23.499c0 23.333 14 35 42 35c3.33301 0 8.33301 -0.333008 15 -1l69 -7
c26 -2.66699 55 -4 87 -4c17.333 0 54.666 1 111.999 3l115 4c15.333 0.666992 33.333 1.66699 54 3c9.33301 0.666992 19.333 1 30 1c35.333 0 53 -15.667 53 -47c0 -12 -1.66699 -30.333 -5 -55s-5 -43.334 -5 -56.001c0 -10.667 0.666992 -24 2 -40s2 -30.667 2 -44
c0 -27.333 -12 -41 -36 -41c-24.667 0 -37 15.667 -37 47c0 9.33301 0.5 23.666 1.5 42.999s1.5 33.666 1.5 42.999c0 35.333 -10 57.666 -30 66.999s-67.333 14 -142 14c-63.333 0 -99.333 -5.66699 -108 -17c-6.66699 -8.66699 -10 -39.334 -10 -92.001v-74
c0 -18.667 2.5 -30.167 7.5 -34.5s18.833 -6.5 41.5 -6.5h33c43.333 0 65 16 65 48c0 7.33301 -0.833008 17.333 -2.5 30s-2.5 22.334 -2.5 29.001c0 25.333 12 38 36 38c22.667 0 34 -14.667 34 -44c0 -4 -0.666992 -12 -2 -24l-6 -54c-2.66699 -24 -4 -42 -4 -54
c0 -27.333 3 -62 9 -104c2 -14 3 -27.333 3 -40c0 -26 -12 -39 -36 -39c-22.667 0 -34 14 -34 42c0 6.66699 0.5 16.667 1.5 30s1.5 23.333 1.5 30c0 20.667 -5.66699 34 -17 40c-7.33301 4.66699 -22.666 7 -45.999 7h-31c-23.333 0 -37.666 -2.66699 -42.999 -8
s-8 -20 -8 -44v-119c0 -31.333 3.5 -52.5 10.5 -63.5s20.167 -16.5 39.5 -16.5c4.66699 0 12 0.333008 22 1s17.333 1 22 1c30.667 0 46 -11.333 46 -34c0 -9.33301 -3.5 -17.333 -10.5 -24s-15.5 -10 -25.5 -10c-10.667 0 -26.334 1.66699 -47.001 5
c-29.333 4.66699 -62.666 7 -99.999 7c-24 0 -49.667 -2 -77 -6l-34 -5c-2 0 -4.33301 -0.333008 -7 -1h-6c-29.333 0 -44 12 -44 36c0 21.333 10.333 32 31 32c2.66699 0 11.334 -0.666992 26.001 -2c7.33301 -2 14.333 -3 21 -3c18 0 30.5 5.5 37.5 16.5
s10.833 30.5 11.5 58.5z" />
    <glyph glyph-name="G" unicode="G" horiz-adv-x="710" 
d="M335 689c66.667 0 126.995 -24.998 180.995 -74.998c-1.33301 9.33301 -2 14.666 -2 15.999c-1.33301 13.333 -2 20.666 -2 21.999c0 22 11 33 33 33c24 0 36 -14.333 36 -43c0 -9.33301 -0.333008 -16.333 -1 -21l-7 -48c-2 -14 -3 -29 -3 -45
c0 -12.667 1.33301 -39.667 4 -81v-9c0 -30 -12.333 -45 -37 -45c-23.333 0 -35 16.333 -35 49v30c0 46 -15.167 82.333 -45.5 109s-71.166 40 -122.499 40c-64.667 0 -115.334 -25 -152.001 -75s-55 -118.667 -55 -206c0 -92.667 18.833 -165 56.5 -217
s89.834 -78 156.501 -78c51.333 0 91 15 119 45s42 72.667 42 128c0 22.667 -3.83301 38.5 -11.5 47.5s-21.167 13.5 -40.5 13.5c-5.33301 0 -13 -0.333008 -23 -1s-17.667 -1 -23 -1c-32 0 -48 11.333 -48 34c0 23.333 13.667 35 41 35
c8.66699 0 18.334 -0.666992 29.001 -2c42 -5.33301 75.667 -8 101 -8c32.667 0 67.334 3 104.001 9c8 1.33301 17 2 27 2c26.667 0 40 -11 40 -33c0 -9.33301 -3.5 -17.333 -10.5 -24s-15.167 -10 -24.5 -10c-8 0 -14 0.333008 -18 1
c-1.33301 0 -3.66602 0.333008 -6.99902 1h-8c-29.333 0 -44 -32.667 -44 -98v-80c0 -17.333 0.666992 -33 2 -47s2 -25 2 -33c0 -27.333 -12 -41 -36 -41c-23.333 0 -35 11.667 -35 35l2 24c0.666992 6 1.33398 16.333 2.00098 31c-15.333 -20.667 -27.333 -35 -36 -43
c-38.667 -34.667 -92.334 -52 -161.001 -52c-86 0 -155.333 32 -208 96s-79 147.667 -79 251c0 110.667 26.833 199 80.5 265s125.834 99 216.501 99z" />
    <glyph glyph-name="H" unicode="H" horiz-adv-x="783" 
d="M231 385l319.999 -0.00292969v147c0 50 -17 75 -51 75c-4 0 -11.167 -1 -21.5 -3s-19.166 -3 -26.499 -3c-21.333 0 -32 11 -32 33c0 24 14.333 36 43 36c9.33301 0 26.333 -2 51 -6s47.334 -6 68.001 -6c33.333 0 66.666 2.33301 99.999 7c19.333 2.66699 32 4 38 4
c29.333 0 44 -11.667 44 -35c0 -21.333 -10.333 -32 -31 -32c-5.33301 0 -13.333 0.833008 -24 2.5s-18.667 2.5 -24 2.5c-34 0 -51 -25 -51 -75v-399c0 -50 16.667 -75 50 -75c5.33301 0 13.5 0.833008 24.5 2.5s19.167 2.5 24.5 2.5c20.667 0 31 -10.667 31 -32
c0 -24 -14.667 -36 -44 -36c-6 0 -19 2 -39 6c-23.333 4.66699 -48.666 7 -75.999 7c-36.667 0 -67.667 -2 -93 -6c-29.333 -4.66699 -45.333 -7 -48 -7c-29.333 0 -44 12 -44 36c0 22 10.667 33 32 33c5.33301 0 13.333 -0.833008 24 -2.5s18.667 -2.5 24 -2.5
c28 0 44.667 18.333 50 55c0.666992 4.66699 1 34.667 1 90v113h-320v-114c0 -55.333 0.333008 -85.333 1 -90c5.33301 -36.667 22 -55 50 -55c5.33301 0 13.5 0.833008 24.5 2.5s19.167 2.5 24.5 2.5c20.667 0 31 -10.667 31 -32c0 -24 -14.667 -36 -44 -36
c-4.66699 0 -19 2 -43 6c-32 5.33301 -60 8 -84 8c-28 0 -58 -2.66699 -90 -8l-24 -4c-8 -1.33301 -12.333 -2 -13 -2c-30.667 0 -46 12 -46 36c0 8.66699 3.16699 16.334 9.5 23.001s13.833 10 22.5 10c6 0 15 -1 27 -3c7.33301 -2 14.333 -3 21 -3c34 0 51 25 51 75v401
c0 50 -17 75 -51 75c-4.66699 0 -12 -1 -22 -3s-18.667 -3 -26 -3c-8.66699 0 -16.167 3.33301 -22.5 10s-9.5 14.334 -9.5 23.001c0 23.333 15.333 35 46 35c6 0 18.333 -1.66699 37 -5c25.333 -4.66699 56.333 -7 93 -7c14 0 34.833 2 62.5 6s48.167 6 61.5 6
c29.333 0 44 -12 44 -36c0 -9.33301 -3 -17.166 -9 -23.499s-13.333 -9.5 -22 -9.5c-7.33301 0 -16.333 1 -27 3s-18 3 -22 3c-32.667 0 -49.334 -25 -50.001 -75z" />
    <glyph glyph-name="I" unicode="I" horiz-adv-x="382" 
d="M149 534c0 49.333 -17.0029 74 -51.0029 74c-9.33301 0 -16.333 -0.666992 -21 -2c-10.667 -2 -19.667 -3 -27 -3c-8.66699 0 -16 3.16699 -22 9.5s-9 14.166 -9 23.499c0 23.333 14.667 35 44 35c4 0 8.66699 -0.333008 14 -1l53 -7c20 -2.66699 40.667 -4 62 -4
c20.667 0 43.334 1.66699 68.001 5l45 6c5.33301 0.666992 10 1 14 1c29.333 0 44 -11.667 44 -35c0 -9.33301 -3 -17.166 -9 -23.499s-13.333 -9.5 -22 -9.5c-6.66699 0 -15.667 1 -27 3c-4.66699 1.33301 -11.667 2 -21 2c-34 0 -51 -24.667 -51 -74v-401
c0 -50 17 -75 51 -75c5.33301 0 12.333 0.666992 21 2c12.667 2 21.667 3 27 3c20.667 0 31 -10.667 31 -32c0 -24 -14.667 -36 -44 -36h-7c-2.66699 0.666992 -5 1 -7 1l-52 8c-17.333 2.66699 -35.666 4 -54.999 4c-28 0 -53 -1.66699 -75 -5l-46 -7
c-1.33301 0 -3.66602 -0.333008 -6.99902 -1h-8c-28.667 0 -43 12 -43 36c0 21.333 10.333 32 31 32c3.33301 0 12.333 -0.666992 27 -2c7.33301 -2 14.333 -3 21 -3c34 0 51 25 51 75v401z" />
    <glyph glyph-name="J" unicode="J" horiz-adv-x="619" 
d="M155 223c0 10.667 4.66699 19.6709 14 27.0039c-6 3.33301 -11 5 -15 5c-14.667 0 -27.5 -7.83301 -38.5 -23.5s-16.5 -33.834 -16.5 -54.501c0 -36.667 14.333 -67 43 -91s65.334 -36 110.001 -36c100.667 0 156.667 45.333 168 136c4.66699 38 7 90.333 7 157v32
l-1 159c0 49.333 -17 74 -51 74c-9.33301 0 -16.333 -0.666992 -21 -2c-10.667 -2 -19.667 -3 -27 -3c-8.66699 0 -16 3.16699 -22 9.5s-9 14.166 -9 23.499c0 23.333 14.667 35 44 35c4 0 8.66699 -0.333008 14 -1l53 -7c20 -2.66699 40.667 -4 62 -4
c20 0 42.667 1.66699 68 5l46 6c2.66699 0.666992 7.33398 1 14.001 1c29.333 0 44 -11.667 44 -35c0 -22 -10.667 -33 -32 -33c-6.66699 0 -15.667 1 -27 3c-4.66699 1.33301 -11.667 2 -21 2c-34 0 -51 -24.667 -51 -74v-191c0 -100 -4 -167 -12 -201
c-7.33301 -30 -22.333 -57.667 -45 -83c-48.667 -54 -114.667 -81 -198 -81c-70 0 -126.833 18.167 -170.5 54.5s-65.5 83.166 -65.5 140.499c0 42.667 13.5 78.5 40.5 107.5s60.5 43.5 100.5 43.5c28.667 0 52 -7.5 70 -22.5s27 -34.5 27 -58.5
c0 -16.667 -5.33301 -31.167 -16 -43.5s-23.334 -18.5 -38.001 -18.5c-12.667 0 -23.834 4.16699 -33.501 12.5s-14.5 18.166 -14.5 29.499z" />
    <glyph glyph-name="K" unicode="K" horiz-adv-x="783" 
d="M233 340l282.002 239.997c7.33301 6 11 11.667 11 17c0 7.33301 -6.33301 11 -19 11c-5.33301 0 -9 -0.333008 -11 -1c-24 -2.66699 -41.667 -4 -53 -4c-24 0 -36 11.667 -36 35c0 22 14.333 33 43 33c15.333 0 29 -0.666992 41 -2l53 -6c23.333 -2.66699 41 -4 53 -4
c24 0 53.667 2.66699 89 8c18 2.66699 31.333 4 40 4c25.333 0 38 -11.333 38 -34s-11.667 -34 -35 -34c-2 0 -5.33301 0.333008 -10 1h-11c-3.33301 0.666992 -8.33301 1 -15 1c-25.333 0 -48 -8.33301 -68 -25l-189 -158c-8 -6.66699 -12 -12.667 -12 -18
c0 -3.33301 3.33301 -9 10 -17l15 -23l160 -218c42.667 -58 74.667 -87 96 -87c1.33301 0 3.33301 0.333008 6 1h5c18 2 29 3 33 3c24 0 36 -11.333 36 -34s-13 -34 -39 -34l-50 6c-24.667 2.66699 -52.667 4 -84 4c-36 0 -73.667 -2 -113 -6
c-26 -2.66699 -40.667 -4 -44 -4c-24.667 0 -37 11 -37 33c0 24 13 36 39 36c7.33301 0 17.666 -0.666992 30.999 -2c26 -2.66699 41 -4 45 -4c16 0 24 3.33301 24 10c0 4.66699 -3 11 -9 19l-186 253c-4 5.33301 -7.66699 8 -11 8c-2.66699 0 -7 -2.66699 -13 -8l-105 -92
c-0.666992 -12 -1 -25.667 -1 -41c0 -58 0.333008 -89 1 -93c5.33301 -38 22 -57 50 -57c4 0 11.333 1 22 3s19.667 3 27 3c8.66699 0 16 -3.16699 22 -9.5s9 -14.166 9 -23.499c0 -23.333 -14.667 -35 -44 -35h-7c-2.66699 0.666992 -5 1 -7 1l-56 8c-14 2 -35.667 3 -65 3
c-21.333 0 -39 -1 -53 -3l-55 -8c-1.33301 0 -3.33301 -0.333008 -6 -1h-6c-30 0 -45 11.667 -45 35c0 21.333 10.333 32 31 32c6 0 15 -1 27 -3c8 -1.33301 15 -2 21 -2c33.333 0 50 25 50 75c0 -1.33301 0.333008 22 1 70v88v84v89l-1 70c0 50 -16.667 75 -50 75
c-6.66699 0 -13.667 -1 -21 -3c-12 -2 -21 -3 -27 -3c-21.333 0 -32 11 -32 33c0 23.333 15 35 45 35c3.33301 0 7.66602 -0.333008 12.999 -1l48 -6c21.333 -2.66699 39.333 -4 54 -4c18 0 45 2 81 6s56.667 6 62 6c28 0 42 -11.667 42 -35
c0 -9.33301 -3 -17.166 -9 -23.499s-13.333 -9.5 -22 -9.5c-6.66699 0 -15.667 1 -27 3c-4.66699 1.33301 -11.667 2 -21 2c-23.333 0 -38 -8.16699 -44 -24.5s-8.66699 -56.166 -8 -119.499z" />
    <glyph glyph-name="L" unicode="L" 
d="M233 144c0 -39.333 4.00195 -62.6689 12.002 -70.002c6 -6 13.833 -9.66699 23.5 -11s31.5 -2 65.5 -2h88c46 0 76.667 6.16699 92 18.5s23 37.166 23 74.499c0 10 -0.333008 21.667 -1 35c-1.33301 26 -2 41.667 -2 47c0 29.333 11.667 44 35 44c28 0 42 -13.333 42 -40
c0 -8 -0.333008 -14.333 -1 -19l-7 -51c-2 -14.667 -3 -30 -3 -46c0 -9.33301 0.833008 -23.166 2.5 -41.499s2.5 -32.166 2.5 -41.499c0 -30 -17 -45 -51 -45c-6.66699 0 -22 0.666992 -46 2c-16 0.666992 -40.667 1.33398 -74 2.00098l-75 1h-160
c-16 0 -42.667 -0.666992 -80 -2c-5.33301 0 -14.5 -0.666992 -27.5 -2s-23.167 -2 -30.5 -2c-28 0 -42 12 -42 36c0 21.333 10.333 32 31 32c5.33301 0 13.333 -0.833008 24 -2.5s18.667 -2.5 24 -2.5c34 0 51 25 51 75v401c0 49.333 -17 74 -51 74
c-9.33301 0 -16.333 -0.666992 -21 -2c-10.667 -2 -19.667 -3 -27 -3c-8.66699 0 -16 3.16699 -22 9.5s-9 14.166 -9 23.499c0 23.333 14.333 35 43 35c4 0 9 -0.333008 15 -1l53 -6c29.333 -3.33301 51 -5 65 -5c17.333 0 38.666 1.66699 63.999 5l46 6
c5.33301 0.666992 9.66602 1 12.999 1c30 0 45 -11.667 45 -35c0 -9.33301 -3 -17.166 -9 -23.499s-13.333 -9.5 -22 -9.5c-6.66699 0 -15.667 1 -27 3c-4.66699 1.33301 -11.667 2 -21 2c-34 0 -51 -24.667 -51 -74v-390z" />
    <glyph glyph-name="M" unicode="M" horiz-adv-x="947" 
d="M319 596l153.995 -505.999l169 539c8.66699 28 23.667 42 45 42h5c6.66699 0 15.334 -1 26.001 -3c13.333 -3.33301 22 -5 26 -5c10.667 -1.33301 25.334 -2 44.001 -2c20 0 35.667 1 47 3l35 6c2 0.666992 6 1 12 1c30.667 0 46 -11.667 46 -35
c0 -21.333 -10.667 -32 -32 -32c-5.33301 0 -13.166 0.833008 -23.499 2.5s-18.166 2.5 -23.499 2.5c-34 0 -51 -25 -51 -75v-70l-1 -88v-85l1 -158c0 -50 16.667 -75 50 -75c6.66699 0 14 1 22 3c14.667 1.33301 23.334 2 26.001 2c21.333 0 32 -10.667 32 -32
c0 -24 -14.333 -36 -43 -36c1.33301 0 -3.66699 0.666992 -15 2c-46 5.33301 -85 8 -117 8c-31.333 0 -61.333 -2.33301 -90 -7c-12 -2 -22.667 -3 -32 -3c-26 0 -39 11 -39 33c0 22.667 13.333 34 40 34c6.66699 0 11.667 -0.333008 15 -1
c14.667 -1.33301 23.334 -2 26.001 -2c24 0 39 25 45 75c1.33301 10.667 2 44.667 2 102c0 22 0.333008 54 1 96l2 90v177c0 4 -1.66699 6 -5 6c-2 0 -4 -2 -6 -6l-184 -571c-8 -25.333 -26.667 -38 -56 -38c-17.333 0 -30.166 2.5 -38.499 7.5s-14.833 15.167 -19.5 30.5
l-181 571c-2 4 -4.33301 6 -7 6s-4 -2 -4 -6l6 -465c0.666992 -48.667 14 -73 40 -73c7.33301 0 17.333 1.33301 30 4h12c26 0 39 -11.667 39 -35s-13.333 -35 -40 -35c-4.66699 0 -11.667 0.666992 -21 2c-14.667 2 -30.334 4.33301 -47.001 7c-13.333 2 -30.333 3 -51 3
c-36.667 0 -60.334 -1 -71.001 -3l-42 -8c-1.33301 0 -3.33301 -0.333008 -6 -1h-6c-30.667 0 -46 11.667 -46 35c0 9.33301 3 17.166 9 23.499s13.333 9.5 22 9.5c7.33301 0 16 -1 26 -3s17.333 -3 22 -3c34 0 51 25 51 75v402c0 50 -17 75 -51 75
c-5.33301 0 -13.333 -0.833008 -24 -2.5s-18.667 -2.5 -24 -2.5c-20.667 0 -31 10.667 -31 32c0 23.333 15 35 45 35c2.66699 0 7 -0.333008 13 -1l35 -4c17.333 -2 33.666 -3 48.999 -3c12.667 0 29.834 1.33301 51.501 4s37.5 4 47.5 4c26 0 43.333 -16.333 52 -49z" />
    <glyph glyph-name="N" unicode="N" horiz-adv-x="764" 
d="M296 626l268.999 -559v403c0 52 -0.333008 80.667 -1 86c-6 34.667 -22.667 52 -50 52c-5.33301 0 -13.333 -0.833008 -24 -2.5s-18.667 -2.5 -24 -2.5c-8.66699 0 -16.167 3.16699 -22.5 9.5s-9.5 13.833 -9.5 22.5c0 24 15 36 45 36c6 0 10.333 -0.333008 13 -1l45 -6
c20 -2.66699 38.667 -4 56 -4s40.333 2 69 6c10 1.33301 21.667 3 35 5c1.33301 0 3.66602 0.333008 6.99902 1h7c28.667 0 43 -11.667 43 -35c0 -22.667 -13.333 -34 -40 -34c-4.66699 0 -8.33398 0.333008 -11.001 1h-10c-20 0 -33 -4.33301 -39 -13
s-9.66699 -27.667 -11 -57l-2 -57l-2 -102v-267c0 -46 -5.16699 -78.333 -15.5 -97s-28.166 -28 -53.499 -28c-32.667 0 -60.334 23.333 -83.001 70l-262 545v-465c0 -50 17 -75 51 -75c5.33301 0 13.333 0.833008 24 2.5s18.667 2.5 24 2.5c21.333 0 32 -11 32 -33
c0 -23.333 -15 -35 -45 -35h-6c-3.33301 0.666992 -5.66602 1 -6.99902 1l-41 6c-22.667 3.33301 -44 5 -64 5c-17.333 0 -39.666 -1.66699 -66.999 -5l-49 -6c-1.33301 0 -3.66602 -0.333008 -6.99902 -1h-8c-28.667 0 -43 11.667 -43 35c0 20.667 10.667 31 32 31
c3.33301 0 12.333 -0.666992 27 -2c7.33301 -2 14.333 -3 21 -3c34 0 51 25 51 75v70l1 88v86l-1 158c0 50 -17.333 75 -52 75c-4.66699 0 -11.334 -0.666992 -20.001 -2c-12.667 -2 -22 -3 -28 -3c-21.333 0 -32 11 -32 33c0 23.333 14.333 35 43 35
c4 0 9.33301 -0.333008 16 -1c33.333 -3.33301 59 -5 77 -5c10 0 25 1 45 3s35 3 45 3c20.667 0 34.334 -7 41.001 -21z" />
    <glyph glyph-name="O" unicode="O" horiz-adv-x="655" 
d="M326 -22c-88.667 0 -158.834 32 -210.501 96s-77.5 150.667 -77.5 260c0 110.667 26 197.5 78 260.5s123.667 94.5 215 94.5c87.333 0 156.833 -30.667 208.5 -92s77.5 -144.333 77.5 -249c0 -113.333 -26.167 -203.333 -78.5 -270s-123.166 -100 -212.499 -100zM328 617
c-64 0 -113.665 -24.667 -148.998 -74s-53 -118.666 -53 -207.999c0 -90.667 17.667 -160.834 53 -210.501s84.666 -74.5 147.999 -74.5c62 0 111.167 25.833 147.5 77.5s54.5 121.834 54.5 210.501c0 89.333 -17.333 158.166 -52 206.499s-84.334 72.5 -149.001 72.5z" />
    <glyph glyph-name="P" unicode="P" 
d="M149 133l-0.000976562 401.001c0 49.333 -17 74 -51 74c-5.33301 0 -12.333 -0.666992 -21 -2c-12.667 -2 -21.667 -3 -27 -3c-21.333 0 -32 11 -32 33c0 23.333 14.667 35 44 35c4.66699 0 9.66699 -0.333008 15 -1l49 -6c16 -2 36 -3 60 -3c16.667 0 36.667 1 60 3
c54.667 4.66699 96 7 124 7c42.667 0 79.334 -3.33301 110.001 -10c44 -9.33301 78.5 -30 103.5 -62s37.5 -70.667 37.5 -116c0 -62.667 -21.5 -110.667 -64.5 -144s-105.167 -50 -186.5 -50h-71c-22 0 -35 0.333008 -39 1h-2c-10.667 0 -17.5 -1.83301 -20.5 -5.5
s-4.5 -12.167 -4.5 -25.5v-20c0 -84.667 2.5 -136 7.5 -154s19.5 -27 43.5 -27c7.33301 0 14.333 1 21 3c14.667 1.33301 23.667 2 27 2c20.667 0 31 -10.667 31 -32c0 -24 -14.667 -36 -44 -36l-14 2l-50 7c-14 2 -35 3 -63 3c-23.333 0 -42.333 -1 -57 -3l-58 -8
c-1.33301 0 -3.33301 -0.333008 -6 -1h-7c-30 0 -45 11.667 -45 35c0 9.33301 3 17.166 9 23.499s13.333 9.5 22 9.5c7.33301 0 16.333 -1 27 -3c4.66699 -1.33301 11.667 -2 21 -2c34 0 51 25 51 75zM239.999 586.001c-4.66699 -6.66699 -6.99902 -25 -6.99902 -55v-148
c0 -18 12.667 -28.333 38 -31c-2 0 17.333 0 58 0c47.333 0 86.666 3.66699 117.999 11c59.333 14 89 53 89 117c0 84.667 -54 127 -162 127c-80 0 -124.667 -7 -134 -21z" />
    <glyph glyph-name="Q" unicode="Q" horiz-adv-x="655" 
d="M617 340c0 -156 -53.665 -266.999 -160.998 -332.999v-76c0 -47.333 19.333 -71 58 -71c22 0 37 5.66699 45 17c5.33301 8 8.66602 23.333 9.99902 46c1.33301 31.333 13.333 47 36 47c26 0 39 -16.333 39 -49c0 -36.667 -11.833 -66.167 -35.5 -88.5
s-54.5 -33.5 -92.5 -33.5c-84 0 -126 38.667 -126 116v70c-20.667 -4.66699 -41.334 -7 -62.001 -7c-88.667 0 -159.167 31.667 -211.5 95s-78.5 148.666 -78.5 255.999c0 112 26 200 78 264s123.667 96 215 96c88 0 157.667 -31.333 209 -94s77 -147.667 77 -255z
M457.002 141.001v-53c19.333 24 33.333 47 42 69c20 53.333 30 115 30 185c0 87.333 -17.333 155 -52 203s-83.334 72 -146.001 72c-65.333 0 -116.333 -25 -153 -75s-55 -120 -55 -210c0 -125.333 30.667 -212.333 92 -261c-18 29.333 -27 57.333 -27 84
c0 32.667 13.5 60.167 40.5 82.5s60.167 33.5 99.5 33.5c40.667 0 72.334 -11.5 95.001 -34.5s34 -54.833 34 -95.5zM329.002 43.001c16.667 0 37.333 3.33301 62 10v77c0 52.667 -22.333 79 -67 79c-24 0 -43.667 -7.33301 -59 -22s-23 -33.667 -23 -57c0 -26 8 -47 24 -63
s37 -24 63 -24z" />
    <glyph glyph-name="R" unicode="R" horiz-adv-x="728" 
d="M537 368c-19.333 -9.33301 -43.998 -17.3311 -73.998 -23.998c39.333 -7.33301 66.5 -22 81.5 -44s22.5 -58.333 22.5 -109v-46c-0.666992 -2.66699 -1 -6.66699 -1 -12c0 -48 15.333 -72 46 -72c31.333 0 47 28.667 47 86v30l-1 25v14c0 19.333 1.33301 32.666 4 39.999
c5.33301 11.333 15.666 17 30.999 17c24 0 36 -14 36 -42c0 -0.666992 -0.333008 -8 -1 -22l-1 -21c-0.666992 -14 -1 -23 -1 -27v-25c0.666992 -4 1 -10 1 -18c0 -38.667 -10.833 -68.834 -32.5 -90.501s-51.834 -32.5 -90.501 -32.5c-78.667 0 -118 39.667 -118 119v30
l1 34v22c0 44.667 -8.5 74.167 -25.5 88.5s-52.167 21.5 -105.5 21.5h-93c-21.333 0 -32 -13 -32 -39v-77c0 -49.333 0.666992 -77.333 2 -84c6 -33.333 22.667 -50 50 -50c9.33301 0 16.333 0.666992 21 2c11.333 2 20 3 26 3c21.333 0 32 -11.333 32 -34
c0 -24 -14.333 -36 -43 -36l-15 2l-54 7c-20.667 2.66699 -39 4 -55 4c-20 0 -43.333 -1.66699 -70 -5l-48 -6c-10.667 -1.33301 -15.667 -2 -15 -2c-28.667 0 -43 12 -43 36c0 21.333 10.333 32 31 32c3.33301 0 12.333 -0.666992 27 -2c7.33301 -2 14.333 -3 21 -3
c34 0 51 25 51 75v401c0 50 -17 75 -51 75c-5.33301 0 -13.333 -0.833008 -24 -2.5s-18.667 -2.5 -24 -2.5c-8.66699 0 -16 3.16699 -22 9.5s-9 13.833 -9 22.5c0 23.333 14.667 35 44 35c2.66699 0 7.33398 -0.333008 14.001 -1l51 -5c13.333 -1.33301 30 -2 50 -2
c20.667 0 43.667 0.666992 69 2l76 4c25.333 1.33301 48.666 2 69.999 2c146.667 0 220 -56 220 -168c0 -66 -25.333 -111 -76 -135zM260.002 377.002l94.001 0.000976562c56 0 98 8 126 24c34 19.333 51 51.666 51 96.999c0 76 -52 114 -156 114
c-55.333 0 -92.833 -4.16699 -112.5 -12.5s-29.834 -24.833 -30.501 -49.5l-1 -32v-115c0 -11.333 2 -18.5 6 -21.5s11.667 -4.5 23 -4.5z" />
    <glyph glyph-name="S" unicode="S" horiz-adv-x="619" 
d="M307 689c65.333 0 118.669 -20.999 160.002 -62.999v14c0 26 10.333 39 31 39c22.667 0 34 -14.333 34 -43v-6c0 -1.33301 -1 -11.333 -3 -30s-3 -41 -3 -67c0 -3.33301 0.666992 -14 2 -32l3 -40c0.666992 -3.33301 1 -8 1 -14c0 -32 -12.333 -48 -37 -48
c-26 0 -39 13.333 -39 40v5l2 27c0.666992 9.33301 1 16.666 1 21.999c0 40 -13.5 71.333 -40.5 94s-64.167 34 -111.5 34c-43.333 0 -77.833 -10.667 -103.5 -32s-38.5 -50 -38.5 -86c0 -42 19 -73 57 -93c21.333 -10.667 58.666 -20.334 111.999 -29.001
c79.333 -12.667 133.666 -30 162.999 -52c44 -32.667 66 -79 66 -139c0 -62.667 -22.5 -113.667 -67.5 -153s-103.167 -59 -174.5 -59c-76 0 -139 24 -189 72c0 -2.66699 0.333008 -5.66699 1 -9v-6c1.33301 -10.667 2 -17.667 2 -21c0 -24.667 -11.667 -37 -35 -37
c-25.333 0 -38 14 -38 42c0 3.33301 0.333008 6 1 8l4 52c2 26 3 42.667 3 50c0 13.333 -1.66699 33.333 -5 60s-5 46.667 -5 60c0 30 12.667 45 38 45c26 0 39 -15 39 -45v-18c-0.666992 -5.33301 -1 -13 -1 -23c0 -50 16 -89.667 48 -119s75.333 -44 130 -44
c50.667 0 91 12 121 36s45 56.667 45 98c0 63.333 -40 102 -120 116l-57 10c-56.667 10 -100.667 21.667 -132 35c-28.667 12.667 -51.5 32.5 -68.5 59.5s-25.5 57.5 -25.5 91.5c0 58.667 21.333 106.334 64 143.001s98 55 166 55z" />
    <glyph glyph-name="T" unicode="T" 
d="M357 132c0 -50 17 -75 51 -75c5.33301 0 13.333 0.833008 24 2.5s18.667 2.5 24 2.5c8.66699 0 16.167 -3.16699 22.5 -9.5s9.5 -13.833 9.5 -22.5c0 -23.333 -15 -35 -45 -35h-6c-3.33301 0.666992 -5.66602 1 -6.99902 1l-49 7c-18.667 2.66699 -39.667 4 -63 4
c-25.333 0 -47.666 -1.33301 -66.999 -4l-50 -7c-2 0 -4.33301 -0.333008 -7 -1h-7c-29.333 0 -44 11.667 -44 35c0 21.333 10.667 32 32 32c5.33301 0 13.333 -0.833008 24 -2.5s18.667 -2.5 24 -2.5c33.333 0 50 25 50 75v70l1 88v85l-1 163c0 47.333 -24.333 71 -73 71
h-31c-48 0 -72 -23.333 -72 -70c0 -16.667 0.333008 -28 1 -34l4 -37c0.666992 -6 1 -14.333 1 -25c0 -42 -13 -63 -39 -63c-24.667 0 -37 15.333 -37 46c0 8.66699 0.666992 23.667 2 45c2 32 3 52.333 3 61c0 16.667 -0.666992 34 -2 52c-2.66699 35.333 -4 50.333 -4 45
c0 28 12.667 42 38 42c9.33301 0 31 -1 65 -3c3.33301 0 30.666 -0.666992 81.999 -2l114 -2c13.333 0 49 0.666992 107 2c12.667 0 34.334 1 65.001 3c27.333 2 48.666 3 63.999 3c33.333 0 50 -13.667 50 -41v-2c0 -6.66699 -0.833008 -19 -2.5 -37l-5.5 -58v-11
c0 -10 1 -25.667 3 -47c2.66699 -28 4 -45.333 4 -52c0 -27.333 -13 -41 -39 -41c-25.333 0 -38 16.667 -38 50c0 12 1 29.833 3 53.5s3 41.5 3 53.5c0 46 -26.333 69 -79 69h-28c-24.667 0 -42.334 -5.16699 -53.001 -15.5s-16.667 -27.5 -18 -51.5l-3 -70z" />
    <glyph glyph-name="U" unicode="U" horiz-adv-x="710" 
d="M207 513l-2.00391 -64.0029l-4 -81v-154c0 -46.667 5.16699 -80.667 15.5 -102s29.833 -38 58.5 -50c26.667 -11.333 54 -17 82 -17c36.667 0 68 7 94 21s42.833 32.833 50.5 56.5s11.834 53.834 12.501 90.501l2 257c0 50.667 -0.666992 79.334 -2 86.001
c-6 34 -23 51 -51 51c-4.66699 0 -11.334 -0.666992 -20.001 -2c-12.667 -2 -21.667 -3 -27 -3c-8.66699 0 -16.167 3.33301 -22.5 10s-9.5 14.334 -9.5 23.001c0 24 14.667 36 44 36c4.66699 0 9.33398 -0.333008 14.001 -1l59 -8c14.667 -2 31.334 -3 50.001 -3
c18 0 33 1 45 3l43 7c12 2 20 3 24 3c28 0 42 -11.333 42 -34s-13.667 -34 -41 -34h-11c-2 0.666992 -5.33301 1 -10 1c-20 0 -32.333 -10 -37 -30s-7 -71.333 -7 -154v-175c0 -43.333 -1.33301 -74.666 -4 -93.999c-5.33301 -33.333 -16.666 -62.333 -33.999 -87
c-40 -58 -107.667 -87 -203 -87c-117.333 0 -193 38.333 -227 115c-10.667 23.333 -16 59.666 -16 108.999c0 24 1 59.5 3 106.5s3 82.5 3 106.5v53c0 48.667 -0.333008 76 -1 82c-4.66699 36.667 -17.667 55 -39 55h-7c-3.33301 -0.666992 -6.33301 -1.16699 -9 -1.5
s-7 -0.5 -13 -0.5c-28 0 -42 11.333 -42 34s12.667 34 38 34c10.667 0 22 -1 34 -3c32.667 -5.33301 63 -8 91 -8c28.667 0 61.667 3 99 9c8 1.33301 16.667 2 26 2c27.333 0 41 -11.333 41 -34s-11.667 -34 -35 -34c-5.33301 0 -13.333 0.833008 -24 2.5
s-18.667 2.5 -24 2.5c-21.333 0 -35.666 -11.333 -42.999 -34c-3.33301 -10 -5.33301 -30.333 -6 -61z" />
    <glyph glyph-name="V" unicode="V" horiz-adv-x="728" 
d="M243 510l140.999 -427.001l134 418c10 32 15 54.667 15 68c0 25.333 -13.333 38 -40 38c-4.66699 0 -12 -0.833008 -22 -2.5s-17.333 -2.5 -22 -2.5c-26 0 -39 11.667 -39 35c0 22.667 12.667 34 38 34c14 0 35.167 -2 63.5 -6s49.833 -6 64.5 -6c24 0 53.667 3 89 9
c11.333 2 22 3 32 3c24.667 0 37 -11.667 37 -35c0 -22.667 -12.333 -34 -37 -34c-0.666992 0 -2 0.333008 -4 1l-23 2h-5c-11.333 0 -20.5 -5.5 -27.5 -16.5s-16.833 -34.833 -29.5 -71.5l-164 -481c-11.333 -32.667 -32.333 -49 -63 -49c-32 0 -53.667 16.333 -65 49
l-179 503c-8.66699 24.667 -15.667 40.334 -21 47.001c-9.33301 11.333 -24 17 -44 17c-4 0 -10.333 -0.333008 -19 -1s-15 -1 -19 -1c-26 0 -39 11.667 -39 35c0 24 13.333 36 40 36c8 0 17 -1 27 -3c37.333 -7.33301 70.333 -11 99 -11
c16.667 0 41.334 2.16699 74.001 6.5s57 6.5 73 6.5c24.667 0 37 -11 37 -33c0 -24 -12.667 -36 -38 -36c-1.33301 0 -4.33301 0.333008 -9 1h-10c-4 0.666992 -9.66699 1 -17 1c-29.333 0 -44 -9.33301 -44 -28c0 -9.33301 1.66699 -19.333 5 -30z" />
    <glyph glyph-name="W" unicode="W" horiz-adv-x="928" 
d="M217 513l82.0039 -422.999l103 520c8.66699 45.333 31 68 67 68c38 0 60.667 -20 68 -60l100 -535l85 415c6 29.333 9 51.666 9 66.999c0 27.333 -14 41 -42 41c-6 0 -14.667 -0.333008 -26 -1s-20 -1 -26 -1c-28.667 0 -43 11.333 -43 34c0 22 14 33 42 33
c10.667 0 21.667 -0.666992 33 -2c54.667 -6.66699 90.667 -10 108 -10c13.333 0 33.166 2 59.499 6s46.166 6 59.499 6c24.667 0 37 -11.667 37 -35c0 -21.333 -12 -32 -36 -32c-4 0 -10 0.5 -18 1.5s-14 1.5 -18 1.5c-14 0 -24.167 -5.33301 -30.5 -16
s-13.833 -34.667 -22.5 -72l-112 -477c-8.66699 -36.667 -29.334 -55 -62.001 -55c-34.667 0 -56.334 22.667 -65.001 68l-101 529l-111 -543c-7.33301 -36 -26.333 -54 -57 -54c-31.333 0 -51.333 18.333 -60 55l-119 498c-6 25.333 -13.5 42.5 -22.5 51.5
s-23.167 13.5 -42.5 13.5h-7l-22 -2c-21.333 0 -32 11 -32 33c0 23.333 11.667 35 35 35c9.33301 0 20 -1 32 -3c36 -6 71 -9 105 -9c16 0 52.667 3.33301 110 10c10 1.33301 19.667 2 29 2c24 0 36 -11 36 -33c0 -24 -14.667 -36 -44 -36c-6 0 -15.167 0.666992 -27.5 2
s-21.5 2 -27.5 2c-23.333 0 -35 -11 -35 -33c0 -8 1 -17.333 3 -28z" />
    <glyph glyph-name="X" unicode="X" horiz-adv-x="783" 
d="M169 131l177.002 218.001l-183 215c-22.667 26.667 -43.334 40 -62.001 40c-5.33301 0 -12.833 -0.333008 -22.5 -1s-17.167 -1 -22.5 -1c-27.333 0 -41 12 -41 36c0 22.667 14.333 34 43 34c3.33301 0 24.333 -3.33301 63 -10c18.667 -2.66699 37.334 -4 56.001 -4
c35.333 0 74.666 3.33301 117.999 10c13.333 2 25 3 35 3c26.667 0 40 -11.333 40 -34c0 -23.333 -13.333 -35 -40 -35c-2 0 -5 0.333008 -9 1h-9c-8.66699 1.33301 -18.167 2.66602 -28.5 3.99902s-17.166 2 -20.499 2c-8 0 -12 -2.33301 -12 -7
c0 -2.66699 2 -6.66699 6 -12l139 -182l137 174c5.33301 6.66699 8 12.667 8 18s-4.33301 8 -13 8c-5.33301 0 -10.333 -0.333008 -15 -1c-19.333 -2.66699 -34.666 -4 -45.999 -4c-26.667 0 -40 11.667 -40 35c0 22 12.333 33 37 33c10 0 22.667 -1.33301 38 -4
c30.667 -5.33301 62.667 -8 96 -8c20.667 0 49.667 3 87 9c16.667 2.66699 27.334 4 32.001 4c27.333 0 41 -11.667 41 -35s-12.333 -35 -37 -35c-4.66699 0 -11.667 0.833008 -21 2.5s-16.333 2.5 -21 2.5c-16 0 -35.667 -14.333 -59 -43l-176 -215l188 -228
c32.667 -40 59.334 -60 80.001 -60c1.33301 0 3.66602 0.333008 6.99902 1h6c4 0.666992 9.33301 1 16 1c24.667 0 37 -11 37 -33c0 -23.333 -13 -35 -39 -35c-6.66699 0 -18.334 1.33301 -35.001 4c-38 6 -69 9 -93 9c-26.667 0 -56 -2.66699 -88 -8
c-20 -3.33301 -36 -5 -48 -5c-28.667 0 -43 12 -43 36c0 22.667 13.667 34 41 34c11.333 0 22.666 -0.333008 33.999 -1l31 -2h7c10.667 0 16 3.33301 16 10c0 5.33301 -6.33301 16 -19 32l-149 187l-146 -187c-12 -15.333 -18 -26 -18 -32c0 -7.33301 4.66699 -11 14 -11h2
l23 2l30 2c10 0.666992 18.333 1 25 1c29.333 0 44 -11.667 44 -35c0 -24 -12.667 -36 -38 -36c-8 0 -21 1.66699 -39 5c-32.667 6 -65.334 9 -98.001 9c-37.333 0 -74.333 -3.33301 -111 -10c-14.667 -2.66699 -26.334 -4 -35.001 -4c-28 0 -42 12 -42 36
c0 23.333 12.333 35 37 35c4 0 10.167 -0.5 18.5 -1.5s14.5 -1.5 18.5 -1.5c15.333 0 28.5 4.16699 39.5 12.5s28.167 26.833 51.5 55.5z" />
    <glyph glyph-name="Y" unicode="Y" horiz-adv-x="728" 
d="M325 199v19.001c-0.666992 10.667 -1 19.667 -1 27l-194 307c-12.667 20 -20.667 31.667 -24 35c-10 10 -22.333 15 -37 15c-8 0 -14 -0.333008 -18 -1h-9c-4.66699 -0.666992 -8 -1 -10 -1c-30.667 0 -46 11.667 -46 35c0 24 13.333 36 40 36
c10.667 0 24 -1.33301 40 -4c32 -5.33301 62 -8 90 -8c20.667 0 51.667 3 93 9c14 2 26 3 36 3c27.333 0 41 -11.667 41 -35c0 -22.667 -16.333 -34 -49 -34l-10 1h-25l-20 1c-8 0.666992 -12 -2 -12 -8c0 -2.66699 0.333008 -4.5 1 -5.5s2.33398 -3.83301 5.00098 -8.5
l153 -260l155 260c3.33301 5.33301 5 10.666 5 15.999c0 6 -4.33301 9 -13 9h-2l-18 -1l-26 -3c-11.333 -1.33301 -20 -2 -26 -2c-27.333 0 -41 11.667 -41 35s13.333 35 40 35c10 0 22 -1 36 -3c37.333 -5.33301 69.666 -8 96.999 -8c28.667 0 60.334 2.66699 95.001 8
c13.333 2 24.666 3 33.999 3c25.333 0 38 -11.667 38 -35c0 -21.333 -12.333 -32 -37 -32c-10 0 -17.667 0.666992 -23 2c-10.667 1.33301 -18 2 -22 2c-17.333 0 -31.333 -8 -42 -24l-15 -23l-197 -309v-42c0 -68 2.83301 -110.333 8.5 -127s19.834 -25 42.501 -25
c5.33301 0 13.5 0.833008 24.5 2.5s19.167 2.5 24.5 2.5c20.667 0 31 -10.667 31 -32c0 -24 -15 -36 -45 -36h-6c-2.66699 0.666992 -5 1 -7 1l-55 7c-20.667 2.66699 -41 4 -61 4c-21.333 0 -41.666 -1.33301 -60.999 -4l-51 -7c-1.33301 0 -3.33301 -0.333008 -6 -1h-7
c-30 0 -45 11.667 -45 35c0 22 10.667 33 32 33c5.33301 0 13.166 -0.833008 23.499 -2.5s18.166 -2.5 23.499 -2.5c28 0 45 17.667 51 53c0.666992 6 1 35.333 1 88z" />
    <glyph glyph-name="Z" unicode="Z" horiz-adv-x="619" 
d="M563 574l-441.002 -514.999h251c57.333 0 94.833 5.33301 112.5 16s26.5 33 26.5 67c0 10 -1 23.667 -3 41s-3 32.666 -3 45.999c0 26.667 12.667 40 38 40c24 0 36 -14 36 -42c0 -7.33301 -1 -21.333 -3 -42s-3 -40.667 -3 -60c0 -18.667 0.333008 -31 1 -37
c2.66699 -23.333 4 -39 4 -47c0 -31.333 -19 -47 -57 -47c-16 0 -31.333 0.333008 -46 1c-60 2.66699 -122.667 4 -188 4c-32.667 0 -70.667 -1 -114 -3c-14 -0.666992 -32 -1 -54 -1c-31.333 0 -52.666 4 -63.999 12s-17 22.667 -17 44c0 20.667 7.66699 40 23 58l422 498
h-245c-41.333 0 -69.5 -7.33301 -84.5 -22s-22.5 -41.667 -22.5 -81c0 -6.66699 0.333008 -17 1 -31s1 -24.333 1 -31c0 -33.333 -12.667 -50 -38 -50c-24.667 0 -37 13.667 -37 41c0 12.667 1.33301 31.167 4 55.5s4 42.833 4 55.5c0 8.66699 -0.666992 21.5 -2 38.5
s-2 29.833 -2 38.5c0 36 18 53.333 54 52l27 -1c12.667 -0.666992 30.667 -0.666992 54 0h35c16.667 -0.666992 27.334 -1 32.001 -1l207 1h40c48 0 72 -16.667 72 -50c0 -15.333 -7 -31.333 -21 -48z" />
    <glyph glyph-name="bracketleft" unicode="[" horiz-adv-x="437" 
d="M110 0l-0.00292969 474.003c0 20.667 -0.666992 46.667 -2 78s-2 56.666 -2 75.999c0 21.333 3 34.666 9 39.999c4 3.33301 10.667 5 20 5c8.66699 0 21.5 -0.833008 38.5 -2.5s29.833 -2.5 38.5 -2.5c34 0 59.667 1 77 3s34 3 50 3c35.333 0 53 -11.667 53 -35
c0 -22 -18.667 -33 -56 -33c-11.333 0 -27.666 1.66699 -48.999 5s-37.666 5 -48.999 5c-18.667 0 -31.167 -2.5 -37.5 -7.5s-10.166 -16.5 -11.499 -34.5l-4 -54c-2 -26.667 -3 -69.667 -3 -129v-308c0 -59.333 1 -102.333 3 -129l4 -54
c1.33301 -18 5.66602 -29.667 12.999 -35c5.33301 -4 17.333 -6 36 -6c11.333 0 27.833 1.5 49.5 4.5s37.834 4.5 48.501 4.5c37.333 0 56 -11 56 -33c0 -23.333 -17.667 -35 -53 -35c-13.333 0 -33.333 1 -60 3s-46.667 3 -60 3h-8c-8.66699 0 -21.5 -0.833008 -38.5 -2.5
s-29.5 -2.5 -37.5 -2.5c-13.333 0 -22 4.66699 -26 14c-2 5.33301 -3 15.666 -3 30.999c0 20 0.666992 45.667 2 77s2 57 2 77z" />
    <glyph glyph-name="backslash" unicode="\" horiz-adv-x="500" 
d="M26 750h72l356 -833h-72z" />
    <glyph glyph-name="bracketright" unicode="]" horiz-adv-x="437" 
d="M252 -46c2 27.333 3.00293 70.3311 3.00293 128.998v308c0 58.667 -1 101.667 -3 129l-4 54c-1.33301 18 -5.16602 29.5 -11.499 34.5s-18.833 7.5 -37.5 7.5c-11.333 0 -27.833 -1.66699 -49.5 -5s-37.834 -5 -48.501 -5c-37.333 0 -56 11 -56 33
c0 23.333 17.667 35 53 35c15.333 0 32 -1 50 -3s43.667 -3 77 -3c8.66699 0 21.5 0.833008 38.5 2.5s29.833 2.5 38.5 2.5c13.333 0 22 -4.66699 26 -14c2 -5.33301 3 -15.666 3 -30.999c0 -20.667 -0.666992 -46 -2 -76s-2 -84.667 -2 -164v-302
c0 -77.333 0.666992 -131.833 2 -163.5s2 -57.167 2 -76.5c0 -21.333 -2.5 -34.166 -7.5 -38.499s-12.167 -6.5 -21.5 -6.5c-8.66699 0 -21.334 0.833008 -38.001 2.5s-29.334 2.5 -38.001 2.5c-34.667 0 -60.667 -1 -78 -3s-34 -3 -50 -3c-35.333 0 -53 11.667 -53 35
c0 22 18.667 33 56 33c10 0 25.833 -1.5 47.5 -4.5s38.5 -4.5 50.5 -4.5c18.667 0 31.167 2.33301 37.5 7s10.166 16 11.499 34z" />
    <glyph glyph-name="asciicircum" unicode="^" horiz-adv-x="500" 
d="M249 610l-145 -245h-79l177 304h96l177 -304h-80z" />
    <glyph glyph-name="underscore" unicode="_" horiz-adv-x="500" 
d="M0 -133v66h500v-66h-500z" />
    <glyph glyph-name="grave" unicode="`" horiz-adv-x="492" 
d="M169 699c8.66699 0 18.333 -3.33203 29 -9.99902l126 -79c14 -8.66699 21 -17.334 21 -26.001c0 -16 -7 -24 -21 -24c0.666992 0 -4 1 -14 3l-142 62c-23.333 10 -35 22.667 -35 38c0 10 3.5 18.5 10.5 25.5s15.5 10.5 25.5 10.5z" />
    <glyph glyph-name="a" unicode="a" horiz-adv-x="564" 
d="M469 -13c-54.667 0 -88.332 23.665 -100.999 70.998c-34 -50 -87.333 -75 -160 -75c-54 0 -97.167 13.333 -129.5 40s-48.5 62.334 -48.5 107.001c0 55.333 23.667 96 71 122c18 10 33.5 16.5 46.5 19.5s39.167 6.83301 78.5 11.5c56 6 92.5 14.333 109.5 25
s25.5 30.334 25.5 59.001c0 27.333 -9.5 48.833 -28.5 64.5s-45.5 23.5 -79.5 23.5c-30 0 -58 -8.33301 -84 -25c-10 -6.66699 -15 -13.667 -15 -21c0 -2.66699 3 -6 9 -10c9.33301 -6.66699 14 -18 14 -34c0 -13.333 -4.83301 -24.333 -14.5 -33s-21.834 -13 -36.501 -13
c-17.333 0 -31.833 6 -43.5 18s-17.5 26.667 -17.5 44c0 37.333 18.5 69.333 55.5 96s81.833 40 134.5 40c121.333 0 182 -58.333 182 -175v-202c0 -32 0.666992 -51 2 -57c4 -23.333 15.333 -35 34 -35c23.333 0 35 21.333 35 64v49c0 21.333 10.333 32 31 32
c22 0 33 -16 33 -48v-5l-1 -57c-1.33301 -64 -35.333 -96 -102 -96zM358.002 185.998l0.999023 70.999c-14.667 -13.333 -30.167 -22.666 -46.5 -27.999s-45.5 -10 -87.5 -14c-76 -7.33301 -114 -35.333 -114 -84c0 -25.333 9.16699 -45.333 27.5 -60s43.166 -22 74.499 -22
c44.667 0 79.834 12.167 105.501 36.5s38.834 57.833 39.501 100.5z" />
    <glyph glyph-name="b" unicode="b" horiz-adv-x="564" 
d="M169 638c-5.33301 -55.333 -8.33203 -121 -8.99902 -197c21.333 28 43 47.667 65 59s49.667 17 83 17c66.667 0 119.667 -23.333 159 -70s59 -108.667 59 -186c0 -84.667 -20.833 -152.167 -62.5 -202.5s-97.834 -75.5 -168.501 -75.5
c-68.667 0 -118.334 25.667 -149.001 77c2.66699 -19.333 4 -30 4 -32c0 -24 -11.667 -36 -35 -36s-35 16.667 -35 50c0 9.33301 0.333008 16.333 1 21c0 15.333 0.333008 31.666 1 48.999l3 77l2 101l-2 267c-0.666992 24.667 -3.16699 41.334 -7.5 50.001
s-11.833 13 -22.5 13c-2 0 -10.667 -1.33301 -26 -4c-7.33301 -1.33301 -13.666 -2 -18.999 -2c-22.667 0 -34 10.667 -34 32c0 22 13.333 33 40 33c8 0 14.667 -0.333008 20 -1l24 -3c10.667 -1.33301 19.334 -2 26.001 -2c7.33301 0 17.666 1.16699 30.999 3.5
s23.333 3.5 30 3.5c14.667 0 22 -9.33301 22 -28v-14zM168.001 348c-4.66699 -21.333 -7 -51.333 -7 -90c0 -66 5.33301 -111.333 16 -136c20.667 -48.667 60 -73 118 -73c46 0 82.5 18.167 109.5 54.5s40.5 85.166 40.5 146.499c0 62.667 -12.833 111.834 -38.5 147.501
s-60.834 53.5 -105.501 53.5c-31.333 0 -59.666 -9.83301 -84.999 -29.5s-41.333 -44.167 -48 -73.5z" />
    <glyph glyph-name="c" unicode="c" horiz-adv-x="510" 
d="M330 330c0 26.667 16.6699 42.001 50.0029 46.001c-3.33301 23.333 -14.5 41.666 -33.5 54.999s-43.5 20 -73.5 20c-46 0 -83 -18.333 -111 -55s-42 -85.334 -42 -146.001c0 -62.667 13.167 -111.834 39.5 -147.501s62.833 -53.5 109.5 -53.5
c29.333 0 54.833 8.33301 76.5 25s36.5 39.667 44.5 69c6.66699 23.333 10.667 36.666 12 39.999c7.33301 13.333 18 20 32 20c11.333 0 20.666 -3.66699 27.999 -11s11 -16.666 11 -27.999c0 -16.667 -5.33301 -36.667 -16 -60s-23.334 -42.666 -38.001 -57.999
c-39.333 -42 -90.333 -63 -153 -63c-68 0 -122.833 24 -164.5 72s-62.5 111 -62.5 189c0 82.667 21.5 148.834 64.5 198.501s100.167 74.5 171.5 74.5c53.333 0 97.666 -14.5 132.999 -43.5s53 -65.833 53 -110.5c0 -24.667 -6.83301 -45 -20.5 -61s-31.167 -24 -52.5 -24
c-16.667 0 -30.5 5 -41.5 15s-16.5 22.333 -16.5 37z" />
    <glyph glyph-name="d" unicode="d" horiz-adv-x="600" 
d="M263 517c66 0 115.333 -25.668 148 -77.001v101c0 26.667 -0.666992 43 -2 49c-3.33301 20.667 -12.666 31 -27.999 31c-5.33301 0 -12.833 -1 -22.5 -3s-17.167 -3 -22.5 -3c-24.667 0 -37 10.667 -37 32c0 22 16.667 33 50 33c5.33301 0 15 -0.666992 29 -2
c21.333 -2 32.333 -3 33 -3c6 0 14.667 0.666992 26 2s20 2 26 2c18.667 0 28 -13.333 28 -40v-11c-0.666992 -2 -1.33398 -19.667 -2.00098 -53c0 -4 -1 -29.667 -3 -77c-1.33301 -33.333 -2 -58.666 -2 -75.999v-98l2 -167c0.666992 -44 2.66699 -71.333 6 -82
s11.333 -16 24 -16c8.66699 0 15.334 0.666992 20.001 2c10.667 1.33301 18 2 22 2c24.667 0 37 -11 37 -33c0 -22.667 -15 -34 -45 -34c-6.66699 0 -16.834 0.833008 -30.501 2.5s-23.834 2.5 -30.501 2.5c-2 0 -9.66699 -0.666992 -23 -2c-8 -2 -15 -3 -21 -3
c-18 0 -27 12 -27 36v5l1 17c-35.333 -47.333 -86.666 -71 -153.999 -71c-68 0 -122.667 24.667 -164 74s-62 114 -62 194c0 80.667 20.333 145.167 61 193.5s95 72.5 163 72.5zM405 163.999c2.66699 22 4.00195 50.3311 4.00195 84.998c0 44.667 -1.66699 75 -5 91
c-6 33.333 -20.333 59.333 -43 78c-26.667 22 -57.334 33 -92.001 33c-46.667 0 -83.167 -17.667 -109.5 -53s-39.5 -83.666 -39.5 -144.999c0 -63.333 13.667 -113.166 41 -149.499s64.666 -54.5 111.999 -54.5c36 0 66 10.5 90 31.5s38 48.833 42 83.5z" />
    <glyph glyph-name="e" unicode="e" horiz-adv-x="528" 
d="M493 294c0 -25.333 -1.66504 -40.834 -4.99805 -46.501s-13 -8.5 -29 -8.5h-318c-8.66699 0 -14.334 -1.16699 -17.001 -3.5s-4 -6.16602 -4 -11.499c0 -50 15 -91.667 45 -125s67.333 -50 112 -50c29.333 0 56.166 8 80.499 24s40.166 36.333 47.499 61l9 29
c4.66699 16 15.667 24 33 24c24.667 0 37 -12.667 37 -38c0 -43.333 -22 -81.833 -66 -115.5s-94 -50.5 -150 -50.5c-70 0 -125.667 23.5 -167 70.5s-62 110.167 -62 189.5c0 81.333 22 147.333 66 198s101.333 76 172 76c62.667 0 114.334 -21 155.001 -63
s61 -95.333 61 -160zM130.002 319.999c0 -9.33301 7.33301 -14 22 -14h239c14 0 21 4.66699 21 14c0 35.333 -13.333 66 -40 92s-58 39 -94 39c-37.333 0 -71.333 -13.5 -102 -40.5s-46 -57.167 -46 -90.5z" />
    <glyph glyph-name="f" unicode="f" horiz-adv-x="346" 
d="M335 591c0 9.33301 3.33496 17.666 10.002 24.999c-11.333 10.667 -28 16 -50 16c-28.667 0 -51.167 -9.16699 -67.5 -27.5s-24.5 -43.833 -24.5 -76.5v-18c0 -8.66699 4.33301 -13 13 -13h78c22 0 33 -12 33 -36s-11 -36 -33 -36h-74c-11.333 0 -17 -6 -17 -18v-280
c0 -24.667 0.333008 -39 1 -43c3.33301 -18 11.666 -27 24.999 -27c3.33301 0 11.666 1.66699 24.999 5c9.33301 1.33301 16 2 20 2c22.667 0 34 -11 34 -33c0 -23.333 -13.667 -35 -41 -35c-11.333 0 -28.5 1.33301 -51.5 4s-40.167 4 -51.5 4c-20 0 -38 -1 -54 -3
c-26 -3.33301 -42.667 -5 -50 -5c-28.667 0 -43 11.667 -43 35c0 8.66699 3.5 16.334 10.5 23.001s15.167 10 24.5 10c6.66699 0 14.167 -1.16699 22.5 -3.5s15.833 -3.5 22.5 -3.5c12.667 0 20.667 8 24 24s5.33301 54.667 6 116l1 210c0 12 -6 18 -18 18h-50
c-23.333 0 -35 12.333 -35 37c0 23.333 12 35 36 35h57c8.66699 0 13 4.33301 13 13v18c0 52.667 14 93 42 121s67.667 42 119 42c42 0 75.667 -8.5 101 -25.5s38 -39.833 38 -68.5c0 -14.667 -4.66699 -26.5 -14 -35.5s-21 -13.5 -35 -13.5
c-13.333 0 -24.5 4.16699 -33.5 12.5s-13.5 18.5 -13.5 30.5z" />
    <glyph glyph-name="g" unicode="g" horiz-adv-x="546" 
d="M276 517c17.333 0 37.001 -2.66797 59.001 -8.00098c3.33301 65.333 41.333 98 114 98c30.667 0 56.334 -8 77.001 -24s31 -36.333 31 -61c0 -16 -5.16699 -29.667 -15.5 -41s-22.5 -17 -36.5 -17c-10.667 0 -20 3.66699 -28 11s-12 16 -12 26
c0 10.667 7.33301 21.667 22 33c-10.667 13.333 -24.334 20 -41.001 20c-35.333 0 -53.333 -22 -54 -66c50.667 -34 76 -79.667 76 -137c0 -46 -17.333 -84.333 -52 -115s-78 -46 -130 -46c-36.667 0 -74.667 8.66699 -114 26c-10.667 4.66699 -19.667 7 -27 7
c-9.33301 0 -17.666 -4.16699 -24.999 -12.5s-11 -18.166 -11 -29.499c0 -34.667 35 -52 105 -52h6c5.33301 0 11.333 0.333008 18 1h12c63.333 0 114.666 -6 153.999 -18c36.667 -11.333 65.667 -29 87 -53s32 -51 32 -81c0 -48.667 -22.5 -87.167 -67.5 -115.5
s-105.833 -42.5 -182.5 -42.5s-136.834 13.333 -180.501 40s-65.5 63.334 -65.5 110.001c0 54 30.333 92.333 91 115c-54 21.333 -81 53.333 -81 96c0 46.667 27 78.667 81 96c-17.333 23.333 -26 50.666 -26 81.999c0 45.333 17.5 83 52.5 113s78.833 45 131.5 45z
M279.001 450.999c-29.333 0 -54.333 -8.66797 -75 -26.001s-32 -39 -34 -65v-6c0 -29.333 10 -53 30 -71s46 -27 78 -27c33.333 0 60.5 9 81.5 27s31.5 41 31.5 69c0 28.667 -10.667 52.334 -32 71.001s-48 28 -80 28zM280.001 62.998c-53.333 0 -95.333 -8 -126 -24
s-46 -37.667 -46 -65s15 -48.833 45 -64.5s70.333 -23.5 121 -23.5c53.333 0 95.5 8 126.5 24s46.5 37.333 46.5 64c0 28 -14.667 49.833 -44 65.5s-70.333 23.5 -123 23.5z" />
    <glyph glyph-name="h" unicode="h" 
d="M196 644l-4.00488 -193.999c26.667 25.333 51 42.833 73 52.5s48 14.5 78 14.5c57.333 0 103.333 -16.333 138 -49s52 -75.667 52 -129v-167c0 -39.333 0.333008 -61 1 -65c2.66699 -33.333 11.334 -50 26.001 -50c5.33301 0 13 1.33301 23 4c4 0.666992 9.33301 1 16 1
c24.667 0 37 -11 37 -33s-16 -33 -48 -33c-8.66699 0 -21.334 1 -38.001 3c-28 3.33301 -50.667 5 -68 5s-30.666 -0.666992 -39.999 -2c-28 -4 -45.333 -6 -52 -6c-12 0 -22 3.5 -30 10.5s-12 15.833 -12 26.5c0 8.66699 3.5 16 10.5 22s15.167 9 24.5 9
c7.33301 0 16 -1.66699 26 -5c6 -2 11.667 -3 17 -3c20 0 30.333 21.667 31 65c0 8 0.333008 23.667 1 47l1 43v54c0 68 -6.66699 113.667 -20 137c-19.333 34.667 -53.333 52 -102 52c-52.667 0 -91 -18 -115 -54c-16.667 -24.667 -25.334 -64.334 -26.001 -119.001l-1 -72
c0 -4 -0.333008 -10.667 -1 -20v-19c0 -38 0.333008 -60 1 -66c3.33301 -32.667 13 -49 29 -49c5.33301 0 12.833 1.16699 22.5 3.5s16.834 3.5 21.501 3.5c21.333 0 32 -10.333 32 -31c0 -23.333 -14.667 -35 -44 -35c-9.33301 0 -23.333 1 -42 3
c-25.333 2.66699 -47 4 -65 4c-11.333 0 -27 -1 -47 -3c-26.667 -2.66699 -43.667 -4 -51 -4c-27.333 0 -41 12 -41 36c0 20 12.667 30 38 30c8.66699 0 15 -0.666992 19 -2c11.333 -2 19.333 -3 24 -3c10.667 0 17.834 10.167 21.501 30.5s5.83398 61.833 6.50098 124.5
l1 179c0 100 -2 163.167 -6 189.5s-13.333 39.5 -28 39.5c-4.66699 0 -11.667 -1 -21 -3s-16.666 -3 -21.999 -3c-22.667 0 -34 10.667 -34 32c0 9.33301 4 17.333 12 24s17.667 10 29 10c3.33301 0 14.666 -1 33.999 -3c12.667 -1.33301 26.334 -2 41.001 -2
c6 0 14.333 0.666992 25 2s18.334 2 23.001 2c15.333 0 23 -11 23 -33v-2z" />
    <glyph glyph-name="i" unicode="i" horiz-adv-x="310" 
d="M201 290l0.00585938 -130c0 -33.333 0.333008 -53 1 -59c3.33301 -30 12.333 -45 27 -45c3.33301 0 11.666 1.66699 24.999 5c3.33301 1.33301 8.33301 2 15 2c25.333 0 38 -11 38 -33c0 -9.33301 -4.16699 -17.333 -12.5 -24s-18.833 -10 -31.5 -10
c-10.667 0 -26.834 1.5 -48.501 4.5s-37.834 4.5 -48.501 4.5c-17.333 0 -36.666 -1.33301 -57.999 -4c-26 -3.33301 -43.333 -5 -52 -5c-26.667 0 -40 11.333 -40 34c0 22 11.333 33 34 33c5.33301 0 13.166 -1 23.499 -3s18.166 -3 23.499 -3c16 0 25.667 21.333 29 64v87
v82v87c-3.33301 42 -13.333 63 -30 63c-5.33301 0 -12.833 -1.16699 -22.5 -3.5s-16.834 -3.5 -21.501 -3.5c-24 0 -36 10.667 -36 32c0 22.667 14.667 34 44 34c12.667 0 21.667 -0.333008 27 -1c21.333 -2.66699 35 -4 41 -4c5.33301 0 13.5 0.833008 24.5 2.5
s19.167 2.5 24.5 2.5c19.333 0 29 -13 29 -39c0 -2.66699 -0.333008 -6.66699 -1 -12s-1 -9.33301 -1 -12c-0.666992 -5.33301 -1.33398 -26 -2.00098 -62c-0.666992 -27.333 -1 -55.333 -1 -84zM149.006 552c-15.333 0 -28.5 5.5 -39.5 16.5s-16.5 24.167 -16.5 39.5
s5.5 28.333 16.5 39s24.167 16 39.5 16s28.5 -5.33301 39.5 -16s16.5 -23.667 16.5 -39s-5.5 -28.5 -16.5 -39.5s-24.167 -16.5 -39.5 -16.5z" />
    <glyph glyph-name="j" unicode="j" horiz-adv-x="291" 
d="M-16 -82c0 -14 -5.99902 -27.002 -17.999 -39.002c18 -13.333 36.333 -20 55 -20c37.333 0 64.166 11 80.499 33s24.5 57.333 24.5 106l1 314c0 58.667 -1.66699 94.834 -5 108.501s-12.333 20.5 -27 20.5c-7.33301 0 -16.666 -1.33301 -27.999 -4c-6 -2 -12 -3 -18 -3
c-21.333 0 -32 10.667 -32 32c0 22 14 33 42 33c10 0 18.667 -0.333008 26 -1c21.333 -2 36.333 -3 45 -3c5.33301 0 13.666 0.833008 24.999 2.5s19.666 2.5 24.999 2.5c19.333 0 29 -10.667 29 -32c0 -3.33301 -0.333008 -10 -1 -20c-0.666992 -12 -1 -21.667 -1 -29
c-0.666992 -10.667 -1.66699 -34.667 -3 -72c-1.33301 -42 -2 -74.333 -2 -97v-226c0 -40 -1.66699 -69.667 -5 -89c-6 -31.333 -18 -58 -36 -80c-32 -38.667 -76.667 -58 -134 -58c-40 0 -73.333 10 -100 30s-40 45 -40 75c0 16.667 4.83301 30.5 14.5 41.5
s21.834 16.5 36.501 16.5c12.667 0 23.5 -4.16699 32.5 -12.5s13.5 -18.166 13.5 -29.499zM152.001 551.998c-15.333 0 -28.5 5.5 -39.5 16.5s-16.5 24.167 -16.5 39.5s5.5 28.333 16.5 39s24.167 16 39.5 16s28.666 -5.5 39.999 -16.5s17 -23.833 17 -38.5
c0 -15.333 -5.66699 -28.5 -17 -39.5s-24.666 -16.5 -39.999 -16.5z" />
    <glyph glyph-name="k" unicode="k" horiz-adv-x="619" 
d="M195 253l171.003 159.999c6 5.33301 9 11.333 9 18s-4.33301 10 -13 10c-6.66699 0 -16.334 -1.33301 -29.001 -4s-22.334 -4 -29.001 -4c-23.333 0 -35 10.667 -35 32c0 23.333 14.667 35 44 35c7.33301 0 16.666 -0.666992 27.999 -2c46 -5.33301 81 -8 105 -8
c13.333 0 24.666 0.666992 33.999 2l41 6c9.33301 1.33301 17 2 23 2c32.667 0 49 -11.333 49 -34c0 -21.333 -11.333 -32 -34 -32c-5.33301 0 -12.833 0.666992 -22.5 2s-17.167 2 -22.5 2c-16.667 0 -34 -8.33301 -52 -25l-105 -96c-7.33301 -6.66699 -11 -12 -11 -16
c0 -3.33301 2.66699 -8.33301 8 -15l128 -166c32.667 -42 56 -63 70 -63c3.33301 0 8.83301 0.833008 16.5 2.5s13.834 2.5 18.501 2.5c24 0 36 -10.667 36 -32c0 -22.667 -15.333 -34 -46 -34c-12 0 -29.833 1.33301 -53.5 4s-41.5 4 -53.5 4
c-10.667 0 -26.167 -1.33301 -46.5 -4s-35.5 -4 -45.5 -4c-25.333 0 -38 11.333 -38 34c0 21.333 12 32 36 32c6.66699 0 12 -0.333008 16 -1c12 -3.33301 19.667 -5 23 -5c6 0 9 2.33301 9 7v3c-0.666992 0.666992 -1 1.33398 -1 2.00098l-10 14l-13 19l-100 133
c-6.66699 8.66699 -12 13 -16 13c-2.66699 0 -7.66699 -3.33301 -15 -10l-74 -66v-23c0 -32 0.333008 -50 1 -54c3.33301 -23.333 12.666 -35 27.999 -35c6.66699 0 12.334 0.5 17.001 1.5s11 1.5 19 1.5c22.667 0 34 -11 34 -33s-12.667 -33 -38 -33
c-11.333 0 -28.5 1.5 -51.5 4.5s-40.5 4.5 -52.5 4.5c-15.333 0 -33 -1.33301 -53 -4c-25.333 -3.33301 -42.333 -5 -51 -5c-26 0 -39 11 -39 33s12.667 33 38 33c5.33301 0 11.666 -0.666992 18.999 -2c10.667 -2 18 -3 22 -3c16 0 25 12.667 27 38l3 39v404
c-1.33301 36 -3.66602 58.833 -6.99902 68.5s-10.333 14.5 -21 14.5c-3.33301 0 -9.66602 -0.666992 -18.999 -2c-9.33301 -3.33301 -18.666 -5 -27.999 -5c-22 0 -33 10.333 -33 31c0 22.667 13 34 39 34c13.333 0 22.666 -0.333008 27.999 -1c16.667 -2 27.667 -3 33 -3
s13.166 0.833008 23.499 2.5s17.833 2.5 22.5 2.5h7c21.333 0 32 -13.667 32 -41v-386z" />
    <glyph glyph-name="l" unicode="l" horiz-adv-x="309" 
d="M195 418l1 -310.999c0.666992 -34 9.66699 -51 27 -51c4 0 12.333 1.66699 25 5c8 1.33301 13.333 2 16 2c22 0 33 -11.333 33 -34c0 -22 -13.667 -33 -41 -33c-10.667 0 -27.667 1.33301 -51 4s-41.333 4 -54 4c-10.667 0 -26.667 -1.33301 -48 -4s-37 -4 -47 -4h-5
c-28 0 -42 12 -42 36c0 20.667 11.333 31 34 31h7c4 -0.666992 7 -1 9 -1c16.667 -2.66699 26.334 -4 29.001 -4c12 0 19.5 5.16699 22.5 15.5s4.83301 37.166 5.5 80.499l1 70l3 155l-1 178c-0.666992 20 -1.66699 33.333 -3 40c-4.66699 15.333 -14 23 -28 23
c-2 0 -10.667 -1.33301 -26 -4c-7.33301 -1.33301 -13.333 -2 -18 -2c-22.667 0 -34 10.667 -34 32c0 22 13.333 33 40 33c7.33301 0 13.666 -0.333008 18.999 -1l24 -3c10.667 -1.33301 19.667 -2 27 -2c6.66699 0 16.667 1.16699 30 3.5s23.333 3.5 30 3.5
c15.333 0 23 -9.66699 23 -29c0 -6.66699 -0.333008 -11.667 -1 -15c-4.66699 -51.333 -7 -124 -7 -218z" />
    <glyph glyph-name="m" unicode="m" horiz-adv-x="928" 
d="M189 470l0.000976562 -28.998c24 28.667 46.667 48.5 68 59.5s48 16.5 80 16.5c65.333 0 113.333 -25.333 144 -76c22.667 28 45.667 47.667 69 59s53.333 17 90 17c38 0 72 -8 102 -24c33.333 -18 56.333 -43.333 69 -76c8.66699 -22 13 -56.667 13 -104v-97l-1 -75
c0 -27.333 0.333008 -44 1 -50c3.33301 -24 12 -36 26 -36c4.66699 0 11.667 1 21 3s16.333 3 21 3c23.333 0 35 -10 35 -30c0 -23.333 -13.333 -35 -40 -35c-10 0 -25.167 1.16699 -45.5 3.5s-35.833 3.5 -46.5 3.5c-11.333 0 -27.833 -1.16699 -49.5 -3.5
s-38.167 -3.5 -49.5 -3.5c-28 0 -42 11.667 -42 35c0 20 10.667 30 32 30c2.66699 0 9.33398 -0.666992 20.001 -2c4 -1.33301 9.33301 -2 16 -2c11.333 0 18.5 5.66699 21.5 17s4.83301 39.666 5.5 84.999l1 61v66c0 46 -3.5 79.5 -10.5 100.5s-20.167 37.5 -39.5 49.5
s-41.333 18 -66 18c-47.333 0 -80.333 -16.333 -99 -49c-14.667 -26 -22 -71.333 -22 -136v-71c0 -62.667 1.5 -101.834 4.5 -117.501s10.833 -23.5 23.5 -23.5c4 0 9.83301 0.833008 17.5 2.5s13.5 2.5 17.5 2.5c9.33301 0 17.166 -3.16699 23.499 -9.5
s9.5 -14.166 9.5 -23.499c0 -22 -15.667 -33 -47 -33c-10 0 -24.833 1.33301 -44.5 4s-34.5 4 -44.5 4c-14 0 -29.333 -1.33301 -46 -4s-31.334 -4 -44.001 -4c-27.333 0 -41 11.333 -41 34c0 20.667 10 31 30 31c7.33301 0 13 -0.666992 17 -2c9.33301 -2 16.333 -3 21 -3
c16 0 24.333 17 25 51l1 47c0.666992 14.667 1 29 1 43c0.666992 12 1 18.333 1 19v83c0 58 -7.83301 98.333 -23.5 121s-43.5 34 -83.5 34c-44 0 -77.667 -16 -101 -48c-19.333 -26 -29 -71.333 -29 -136v-133c0 -26.667 0.333008 -42.334 1 -47.001
c2.66699 -22.667 10 -34 22 -34c3.33301 0 10.333 1.33301 21 4c1.33301 0 3.33301 0.333008 6 1h7c26 0 39 -11 39 -33c0 -21.333 -15 -32 -45 -32c-11.333 0 -25.333 1 -42 3c-22.667 2.66699 -42 4 -58 4c-8 0 -22.667 -1 -44 -3c-28.667 -2.66699 -46 -4 -52 -4
c-26.667 0 -40 11.333 -40 34c0 20.667 12.667 31 38 31h6c2.66699 -0.666992 4.66699 -1 6 -1l25 -5c0.666992 -0.666992 2 -1 4 -1c18 0 27.667 16.333 29 49l2 57v153c0 56.667 -1.5 92 -4.5 106s-11.167 21 -24.5 21c-2.66699 0 -12 -1.66699 -28 -5
c-6.66699 -1.33301 -12 -2 -16 -2c-24.667 0 -37 10.667 -37 32c0 22.667 13.667 34 41 34c7.33301 0 17.333 -0.666992 30 -2s23.667 -2 33 -2c3.33301 0 7 0.333008 11 1h7l24 3h3c16 0 24 -9.66699 24 -29z" />
    <glyph glyph-name="n" unicode="n" 
d="M192 469l-0.00390625 -27.999c40 50.667 93.333 76 160 76c36 0 70 -9.16699 102 -27.5s53.667 -41.166 65 -68.499c9.33301 -22.667 14 -52.334 14 -89.001v-190c0 -28.667 0.333008 -45.667 1 -51c3.33301 -22.667 12.333 -34 27 -34c6 0 13.833 0.833008 23.5 2.5
s16.5 2.5 20.5 2.5c8.66699 0 16.167 -3 22.5 -9s9.5 -13.333 9.5 -22c0 -10 -4 -18.333 -12 -25s-17.667 -10 -29 -10c-9.33301 0 -24.666 1.33301 -45.999 4s-41.333 4 -60 4c-17.333 0 -31.666 -0.666992 -42.999 -2c-33.333 -4 -51 -6 -53 -6
c-26.667 0 -40 11.667 -40 35c0 20.667 11.333 31 34 31c5.33301 0 11.333 -0.666992 18 -2c12.667 -2.66699 20.667 -4 24 -4c16 0 24.667 18.333 26 55l2 51l1 61v76c0 35.333 -1.66699 59.666 -5 72.999c-6 25.333 -19 45 -39 59c-22 15.333 -47 23 -75 23
c-53.333 0 -91.666 -19 -114.999 -57c-16 -26 -24 -70.333 -24 -133v-133c0 -29.333 2 -49.333 6 -60s11.333 -16 22 -16c5.33301 0 12.666 1.33301 21.999 4s17 4 23 4c20.667 0 31 -11.333 31 -34c0 -22 -13.333 -33 -40 -33c-5.33301 0 -22.666 2 -51.999 6
c-14.667 2 -31 3 -49 3c-14 0 -32.667 -1.33301 -56 -4c-29.333 -3.33301 -46 -5 -50 -5c-28 0 -42 11.333 -42 34c0 21.333 10.667 32 32 32c3.33301 0 9.5 -1 18.5 -3s17.833 -3 26.5 -3c20 0 30.333 19.333 31 58l2 111v121l-2 35
c-1.33301 22.667 -4.16602 38.167 -8.49902 46.5s-11.833 12.5 -22.5 12.5c-4.66699 0 -11.5 -0.833008 -20.5 -2.5s-15.833 -2.5 -20.5 -2.5c-24 0 -36 10.667 -36 32c0 22 15 33 45 33c4 0 7.33301 -0.333008 10 -1l37 -4c10.667 0 20 0.666992 28 2
c17.333 1.33301 26.333 2 27 2c19.333 0 29 -10 29 -30z" />
    <glyph glyph-name="o" unicode="o" horiz-adv-x="546" 
d="M269 -17c-70 0 -125.999 24.167 -167.999 72.5s-63 113.166 -63 194.499s21.167 146.166 63.5 194.499s99.166 72.5 170.499 72.5c72.667 0 130 -23.667 172 -71s63 -111.666 63 -192.999s-21.667 -146.666 -65 -195.999s-101 -74 -173 -74zM274.001 451
c-46.667 0 -83.332 -16.332 -109.999 -48.999s-41.334 -79 -44.001 -139v-13c0 -62.667 13.167 -111.834 39.5 -147.501s63.166 -53.5 110.499 -53.5c48.667 0 86.834 17.833 114.501 53.5s41.5 85.167 41.5 148.5c0 133.333 -50.667 200 -152 200z" />
    <glyph glyph-name="p" unicode="p" horiz-adv-x="600" 
d="M191 471l0.00488281 -32.001c37.333 52 88.333 78 153 78c66.667 0 119.667 -23 159 -69s59 -108.333 59 -187c0 -84.667 -20.833 -152.167 -62.5 -202.5s-97.5 -75.5 -167.5 -75.5c-58 0 -105 20.333 -141 61v-83c0 -25.333 0.666992 -41.666 2 -48.999
c4 -20.667 13.667 -31 29 -31c4.66699 0 11.667 1 21 3s16.333 3 21 3c21.333 0 32 -11 32 -33s-14 -33 -42 -33c-10 0 -25 1.33301 -45 4c-14.667 2 -36.667 3 -66 3c-16 0 -29.333 -0.666992 -40 -2c-26.667 -3.33301 -44.334 -5 -53.001 -5c-11.333 0 -21 3.5 -29 10.5
s-12 15.167 -12 24.5c0 21.333 11.333 32 34 32c4 0 10.333 -1 19 -3c11.333 -2.66699 19.666 -4 24.999 -4c12.667 0 20.5 6.5 23.5 19.5s4.83301 49.167 5.5 108.5l1 386c-0.666992 30.667 -9.33398 46 -26.001 46c-4.66699 0 -11.834 -1.16699 -21.501 -3.5
s-17.167 -3.5 -22.5 -3.5c-24.667 0 -37 11 -37 33c0 21.333 14.667 32 44 32c7.33301 0 15.333 -0.333008 24 -1c16.667 -1.33301 29 -2 37 -2c6 0 14.667 0.5 26 1.5s19.666 1.5 24.999 1.5c16.667 0 25 -9.33301 25 -28zM206.005 348.999
c-6 -26 -9.33301 -57.668 -10 -95.001c0 -2.66699 -0.333008 -7.66699 -1 -15v-14c0 -44.667 3.66699 -77.167 11 -97.5s21.833 -38.5 43.5 -54.5s48.5 -24 80.5 -24c48 0 85.167 17.5 111.5 52.5s39.5 84.833 39.5 149.5c0 133.333 -47.333 200 -142 200
c-32 0 -60.5 -9.66699 -85.5 -29s-40.833 -43.666 -47.5 -72.999z" />
    <glyph glyph-name="q" unicode="q" horiz-adv-x="564" 
d="M399 -5v45.001c-37.333 -38 -83.333 -57 -138 -57c-66.667 0 -120.334 24.5 -161.001 73.5s-61 114.167 -61 195.5s19.5 145.833 58.5 193.5s91.833 71.5 158.5 71.5c62 0 113.667 -25 155 -75c-1.33301 13.333 -2 19.666 -2 18.999c0 28.667 11.333 43 34 43
s34 -17.333 34 -52v-21l-4 -119v-191l3 -143c0.666992 -40.667 3 -67.167 7 -79.5s12.667 -18.5 26 -18.5c-0.666992 0 7.33301 1.66699 24 5c6.66699 1.33301 12 2 16 2c21.333 0 32 -11 32 -33s-12.333 -33 -37 -33c-12 0 -30 1 -54 3s-42 3 -54 3s-29.833 -1 -53.5 -3
s-41.167 -3 -52.5 -3c-24.667 0 -37 11 -37 33c0 21.333 11.333 32 34 32c8 0 18.667 -1.33301 32 -4c6.66699 -1.33301 11 -2 13 -2c14.667 0 23.334 16.667 26.001 50c0.666992 4 1 25.667 1 65zM398 224.001l0.00195312 28c-1.33301 44.667 -4.33301 76.667 -9 96
c-8.66699 32.667 -26.334 58.667 -53.001 78c-22.667 16.667 -48 25 -76 25c-44 0 -78.333 -17.333 -103 -52s-37 -83 -37 -145c0 -64.667 12.667 -115 38 -151s60.666 -54 105.999 -54c34 0 63.5 10.833 88.5 32.5s39.5 48.834 43.5 81.501
c1.33301 11.333 2 31.666 2 60.999z" />
    <glyph glyph-name="r" unicode="r" horiz-adv-x="491" 
d="M190 471v-27c34.667 48.667 81 73 139 73c46.667 0 84.5 -13.167 113.5 -39.5s43.5 -60.166 43.5 -101.499c0 -29.333 -7.33301 -53.166 -22 -71.499s-34 -27.5 -58 -27.5c-15.333 0 -28.333 4.66699 -39 14s-16 20.666 -16 33.999c0 10.667 4 20.167 12 28.5
s17.333 12.5 28 12.5c2 0 6.33301 -1 13 -3c4 8 6 15.333 6 22c0 19.333 -8.5 35.666 -25.5 48.999s-38.167 20 -63.5 20c-52 0 -86.667 -23.333 -104 -70c-10.667 -28.667 -16 -72 -16 -130v-66c0 -44.667 0.333008 -69.667 1 -75c3.33301 -38 13.666 -57 30.999 -57
c8.66699 0 17.667 1.33301 27 4c7.33301 2 13.666 3 18.999 3c21.333 0 32 -10.667 32 -32c0 -23.333 -13.667 -35 -41 -35h-4c-10 0 -25.167 1.16699 -45.5 3.5s-35.5 3.5 -45.5 3.5c-26.667 0 -47.667 -0.666992 -63 -2l-56 -5c-27.333 0 -41 11.667 -41 35
c0 20.667 12.667 31 38 31c6.66699 0 11.667 -0.333008 15 -1l15 -3c6.66699 -1.33301 11.334 -2 14.001 -2c16.667 0 25.667 15.333 27 46l2 51l-3 227c-2 39.333 -12 59 -30 59c-5.33301 0 -12.666 -1 -21.999 -3s-16.666 -3 -21.999 -3c-22 0 -33 10.667 -33 32
c0 23.333 14.333 35 43 35c6.66699 0 16.667 -0.833008 30 -2.5s23.333 -2.5 30 -2.5c5.33301 0 14 0.666992 26 2c5.33301 1.33301 11.666 2 18.999 2c17.333 0 26 -9.33301 26 -28z" />
    <glyph glyph-name="s" unicode="s" horiz-adv-x="492" 
d="M250 517c44.667 0 82.001 -11.6641 112.001 -34.9971v4c0 24.667 10.667 37 32 37c22 0 33 -10.667 33 -32c0 -4 -0.666992 -14 -2 -30c-2.66699 -13.333 -4 -26.666 -4 -39.999c0 -8 1.16699 -19.667 3.5 -35s3.5 -27 3.5 -35c0 -25.333 -11 -38 -33 -38
c-21.333 0 -32.333 10.667 -33 32l-1 33c-0.666992 20 -12.167 37.167 -34.5 51.5s-48.5 21.5 -78.5 21.5c-30.667 0 -56.334 -7.83301 -77.001 -23.5s-31 -35.167 -31 -58.5c0 -42.667 29.333 -68 88 -76l58 -8c113.333 -15.333 170 -62.333 170 -141
c0 -48 -18.333 -86.833 -55 -116.5s-84.667 -44.5 -144 -44.5c-55.333 0 -103.333 15.667 -144 47c0.666992 -6.66699 1 -13 1 -19c0 -24 -11.333 -36 -34 -36c-24.667 0 -37 13.667 -37 41c0 -4.66699 2 12.666 6 51.999c1.33301 9.33301 2 18.666 2 27.999
c0 16 -1.33301 31 -4 45s-4 25 -4 33c0 23.333 10.667 35 32 35c14 0 22.833 -3.33301 26.5 -10s5.83398 -24.334 6.50098 -53.001s15.667 -52 45 -70s66.666 -27 111.999 -27c32.667 0 59.667 8.33301 81 25s32 37.667 32 63c0 45.333 -36 71.666 -108 78.999
c-68.667 7.33301 -121 20.833 -157 40.5s-54 54.167 -54 103.5c0 46.667 17.667 84.5 53 113.5s81.333 43.5 138 43.5z" />
    <glyph glyph-name="t" unicode="t" horiz-adv-x="400" 
d="M314 138l2 64.002c0.666992 27.333 12.667 41 36 41s35 -15.333 35 -46c0 -72.667 -9.33301 -123.334 -28 -152.001c-25.333 -38.667 -67 -58 -125 -58c-53.333 0 -91.333 17 -114 51c-16.667 24.667 -25 66.667 -25 126v240c0 14 -6.33301 21 -19 21h-32
c-10.667 0 -19.5 3.5 -26.5 10.5s-10.5 15.5 -10.5 25.5c0 9.33301 3.5 17.666 10.5 24.999s14.833 11 23.5 11h39c11.333 0 17 6.33301 17 19v103c0 25.333 13 38 39 38c24 0 36 -12.667 36 -38v-107c0 -10 6 -15 18 -15h109c25.333 0 38 -11.667 38 -35
c0 -24.667 -13.667 -37 -41 -37h-110c-9.33301 0 -14 -7 -14 -21v-246c0 -70 23 -105 69 -105c46.667 0 71 28.333 73 85z" />
    <glyph glyph-name="u" unicode="u" horiz-adv-x="619" 
d="M447 25l-0.000976562 30.999c-35.333 -48.667 -87.666 -73 -156.999 -73c-78.667 0 -133.334 24.333 -164.001 73c-13.333 21.333 -20.666 46.333 -21.999 75c-0.666992 14 -1 43.333 -1 88v83c0 91.333 -9.66699 137 -29 137c-4 0 -10.333 -0.833008 -19 -2.5
s-15.334 -2.5 -20.001 -2.5c-23.333 0 -35 11 -35 33c0 21.333 14.333 32 43 32c6.66699 0 16.5 -0.666992 29.5 -2s22.833 -2 29.5 -2c6 0 16.333 1 31 3c10 1.33301 15.667 2 17 2c20.667 0 31 -12.667 31 -38v-21l-1 -65l-3 -74v-65c0 -58 4.66699 -99.667 14 -125
c15.333 -42 52 -63 110 -63c28.667 0 54 6.5 76 19.5s37.333 30.167 46 51.5c10.667 26 16 75.333 16 148v55v65c-3.33301 32 -12 48 -26 48c-7.33301 0 -13.333 -0.666992 -18 -2h-12c-23.333 0 -35 10.333 -35 31c0 23.333 13 35 39 35c6 0 15.167 -0.666992 27.5 -2
s21.5 -2 27.5 -2c5.33301 0 13.333 0.5 24 1.5s18.667 1.5 24 1.5c20 0 30 -10.667 30 -32c0 -9.33301 -0.666992 -16.666 -2 -21.999c-3.33301 -25.333 -5 -62.666 -5 -111.999v-154c0 -40.667 0.333008 -63.334 1 -68.001c3.33301 -35.333 12.666 -53 27.999 -53
c4.66699 0 11.334 0.833008 20.001 2.5s15.334 2.5 20.001 2.5c22.667 0 34 -11 34 -33c0 -22.667 -14 -34 -42 -34c-6 0 -14.667 0.666992 -26 2c-16.667 2 -27 3 -31 3c-2 0 -9 -0.666992 -21 -2c-8 -2 -15 -3 -21 -3c-18.667 0 -28 9.66699 -28 29z" />
    <glyph glyph-name="v" unicode="v" horiz-adv-x="601" 
d="M188 381l116.997 -311.999l113 312c6.66699 18.667 10 30.667 10 36c0 14.667 -7 22 -21 22c-5.33301 0 -13.166 -1.16699 -23.499 -3.5s-18.166 -3.5 -23.499 -3.5c-22 0 -33 11 -33 33c0 23.333 16 35 48 35h8c3.33301 -0.666992 6 -1 8 -1l42 -6
c9.33301 -1.33301 19 -2 29 -2c13.333 0 35.333 1.66699 66 5c18.667 2 32 3 40 3c28.667 0 43 -11 43 -33s-11.667 -33 -35 -33c-7.33301 0 -12.666 0.666992 -15.999 2c-10 2 -17 3 -21 3c-12 0 -24.333 -16 -37 -48l-141 -360c-12 -30.667 -32.333 -46 -61 -46
c-27.333 0 -47 15.333 -59 46l-144 370c-9.33301 24.667 -20.333 37 -33 37c-4.66699 0 -11.667 -1 -21 -3s-16.333 -3 -21 -3c-22 0 -33 10.333 -33 31c0 24 15.333 36 46 36c5.33301 0 9.33301 -0.333008 12 -1l42 -4c14 -1.33301 28 -2 42 -2c11.333 0 28 1 50 3l33 3
c3.33301 0.666992 8 1 14 1c29.333 0 44 -11.333 44 -34c0 -21.333 -12.667 -32 -38 -32c-8 0 -13.667 0.333008 -17 1c-12.667 2.66699 -20.667 4 -24 4c-10.667 0 -16 -4.66699 -16 -14c0 -4.66699 1.33301 -11.334 4 -20.001z" />
    <glyph glyph-name="w" unicode="w" horiz-adv-x="801" 
d="M179 360l72.9971 -304l78 352c8 37.333 16.833 62.166 26.5 74.499s24.5 18.5 44.5 18.5c20.667 0 35.834 -6.33301 45.501 -19s18.5 -37.334 26.5 -74.001l75 -352l74 304c4.66699 19.333 7 36 7 50v2c0 18 -7.66699 27 -23 27c-6 0 -14.667 -1.16699 -26 -3.5
s-20 -3.5 -26 -3.5c-24.667 0 -37 11 -37 33c0 23.333 16.333 35 49 35c4.66699 0 9.66699 -0.333008 15 -1l41 -5c10.667 -1.33301 27.334 -2 50.001 -2c18 0 35.333 1 52 3l33 4c2.66699 0.666992 6.33398 1 11.001 1c28.667 0 43 -11.333 43 -34c0 -22 -11 -33 -33 -33
c-7.33301 0 -13 0.666992 -17 2c-10.667 1.33301 -16.667 2 -18 2c-18 0 -36.667 -37 -56 -111l-68 -257c-8 -31.333 -17.333 -53.166 -28 -65.499s-25.334 -18.5 -44.001 -18.5c-35.333 0 -59 28 -71 84l-75 356l-78 -350c-7.33301 -33.333 -16.666 -56.833 -27.999 -70.5
s-26.666 -20.5 -45.999 -20.5c-31.333 0 -52.333 20.667 -63 62l-96 360c-6 21.333 -15.333 32 -28 32c-4 0 -10 -1 -18 -3c-10.667 -1.33301 -18 -2 -22 -2c-22 0 -33 10.667 -33 32c0 23.333 15 35 45 35c5.33301 0 9 -0.333008 11 -1l43 -6
c9.33301 -1.33301 21.666 -2 36.999 -2c18.667 0 40 1.33301 64 4c30 3.33301 47.333 5 52 5c29.333 0 44 -11.333 44 -34c0 -22 -12.333 -33 -37 -33c-4.66699 0 -13 0.666992 -25 2c-8.66699 2.66699 -17 4 -25 4c-17.333 0 -26 -10 -26 -30
c0 -13.333 2.33301 -29.666 7 -48.999z" />
    <glyph glyph-name="x" unicode="x" 
d="M129 100l139.001 158.999l-139 164c-9.33301 10.667 -20.666 16 -33.999 16c-5.33301 0 -9.33301 -0.333008 -12 -1l-17 -4c-2.66699 -0.666992 -7.33398 -1 -14.001 -1c-22 0 -33 10.667 -33 32c0 22.667 13.667 34 41 34h3c0.666992 0 17.334 -1.33301 50.001 -4
c16.667 -1.33301 30.667 -2 42 -2s27.666 1 48.999 3s37.333 3 48 3c27.333 0 41 -11.333 41 -34c0 -21.333 -12.667 -32 -38 -32c-5.33301 0 -10.333 0.666992 -15 2l-15 4h-6c-2.66699 0 -4 -0.666992 -4 -2c1.33301 -4 4.33301 -8.66699 9 -14l91 -110l95 110
c6 6.66699 9 11.334 9 14.001c-0.666992 1.33301 -2.33398 2 -5.00098 2c-3.33301 0 -8.83301 -1 -16.5 -3s-13.5 -3 -17.5 -3c-24 0 -36 11.333 -36 34c0 22 14 33 42 33c-1.33301 0 16.334 -1.66699 53.001 -5c14.667 -1.33301 30.334 -2 47.001 -2s34.334 1 53.001 3
s32 3 40 3c29.333 0 44 -11.333 44 -34c0 -22 -11.333 -33 -34 -33c-5.33301 0 -13 1.33301 -23 4s-17.667 4 -23 4c-16 0 -38 -16 -66 -48l-116 -132l156 -184c9.33301 -11.333 20.666 -17 33.999 -17c4 0 10.167 0.666992 18.5 2s14.5 2 18.5 2c24 0 36 -10.667 36 -32
c0 -23.333 -14 -35 -42 -35h-8l-39 5c-10.667 1.33301 -26.667 2 -48 2c-18 0 -36 -1 -54 -3l-36 -4h-11c-31.333 0 -47 10.667 -47 32c0 23.333 12.333 35 37 35c8.66699 0 21 -1.33301 37 -4c1.33301 -0.666992 3.66602 -1 6.99902 -1c6.66699 0 10 2.66699 10 8
c0 2 -1 4 -3 6l-3 4l-111 130l-113 -130c-4.66699 -5.33301 -7 -9.33301 -7 -12c0 -3.33301 3.33301 -5 10 -5c4.66699 0 11.667 0.666992 21 2s16.333 2 21 2c28.667 0 43 -11.667 43 -35c0 -21.333 -14.333 -32 -43 -32h-14l-40 4c-20 2 -37.667 3 -53 3
c-12 0 -26.333 -1 -43 -3c-22.667 -2.66699 -39.334 -4 -50.001 -4c-28 0 -42 11.333 -42 34c0 22 12 33 36 33c4 0 10 -0.5 18 -1.5s14 -1.5 18 -1.5c12.667 0 30.667 13.333 54 40z" />
    <glyph glyph-name="y" unicode="y" horiz-adv-x="601" 
d="M196 404l115 -337.999l122 333c3.33301 9.33301 5 16.666 5 21.999c0 11.333 -7.66699 17 -23 17c-8 0 -14.333 -0.666992 -19 -2c-10.667 -1.33301 -17.667 -2 -21 -2c-22 0 -33 10.667 -33 32c0 22.667 14.333 34 43 34c4 0 10.667 -0.666992 20 -2l36 -5
c9.33301 -1.33301 19.333 -2 30 -2c11.333 0 28 1.33301 50 4s38.667 4 50 4c28.667 0 43 -11 43 -33c0 -21.333 -11 -32 -33 -32c-6.66699 0 -11.667 0.666992 -15 2c-8.66699 2 -14.667 3 -18 3c-12.667 0 -25.667 -17 -39 -51l-136 -340
c-30 -75.333 -58.333 -130 -85 -164c-45.333 -58 -102 -87 -170 -87c-40.667 0 -74.834 10.333 -102.501 31s-41.5 45.667 -41.5 75c0 20.667 6 37.5 18 50.5s27.667 19.5 47 19.5c15.333 0 28 -4.5 38 -13.5s15 -20.167 15 -33.5c0 -21.333 -9.66699 -35 -29 -41
c10 -14.667 29 -22 57 -22c35.333 0 67.166 13.167 95.499 39.5s42.5 55.833 42.5 88.5c0 16.667 -9 47.667 -27 93l-110 278l-12 32c-11.333 30 -24.333 45 -39 45c-4 0 -11.167 -1 -21.5 -3s-17.166 -3 -20.499 -3c-23.333 0 -35 10.667 -35 32c0 22.667 15.333 34 46 34
c10 0 17.667 -0.333008 23 -1l40 -5h8c4.66699 -0.666992 8.66699 -1 12 -1c24 0 49.667 1.33301 77 4c20.667 2 34.334 3 41.001 3c28 0 42 -11 42 -33s-12.667 -33 -38 -33c-4 0 -10.333 0.833008 -19 2.5s-15 2.5 -19 2.5c-9.33301 0 -14 -4.66699 -14 -14
c0 -5.33301 1.33301 -12 4 -20z" />
    <glyph glyph-name="z" unicode="z" horiz-adv-x="528" 
d="M59 103l326.001 329.998h-153c-50 0 -81.333 -1.5 -94 -4.5s-19 -10.833 -19 -23.5c0 -5.33301 0.666992 -11.333 2 -18c3.33301 -17.333 5 -33.666 5 -48.999c0 -25.333 -11 -38 -33 -38c-22.667 0 -34 14.667 -34 44c0 12.667 0.333008 21.334 1 26.001
c2.66699 20 4 34.333 4 43c0 6.66699 -1.16699 16.5 -3.5 29.5s-3.5 22.833 -3.5 29.5c0 20.667 16.667 31 50 31c10.667 0 25 -0.333008 43 -1c20.667 -1.33301 35 -2 43 -2l60 -1h170c43.333 0 65 -15.333 65 -46c0 -14 -12.667 -33.667 -38 -59l-324 -327h238
c39.333 0 59 11.333 59 34v19c0 11.333 -0.666992 21 -2 29c-1.33301 25.333 -2 37.333 -2 36c0 11.333 3.33301 20.833 10 28.5s15 11.5 25 11.5c21.333 0 32 -12.667 32 -38c0 -11.333 -0.666992 -23 -2 -35c-2.66699 -24 -4 -41.333 -4 -52
c0 -7.33301 0.833008 -18 2.5 -32s2.5 -24.667 2.5 -32c0 -26 -14.667 -38.667 -44 -38l-61 2h-288c-16.667 0 -30.334 5 -41.001 15s-16 22.667 -16 38c0 17.333 8 34 24 50z" />
    <glyph glyph-name="braceleft" unicode="{" horiz-adv-x="500" 
d="M275 361c0 -32.667 -4.33105 -57.166 -12.998 -73.499s-24.667 -30.833 -48 -43.5c22.667 -12 38.5 -26.833 47.5 -44.5s13.5 -42.167 13.5 -73.5v-161c0 -36.667 6.33301 -60.834 19 -72.501s38.334 -17.5 77.001 -17.5v-63h-29c-50.667 0 -86.667 11.167 -108 33.5
s-32 60.166 -32 113.499v165c0 28.667 -4.33301 50 -13 64s-23.334 23.667 -44.001 29v59c38 10.667 57 40.334 57 89.001v176c0 48.667 11.167 83.667 33.5 105s58.166 32 107.499 32h28v-63c-38.667 -0.666992 -64.334 -6.66699 -77.001 -18s-19 -34.333 -19 -69v-167z
" />
    <glyph glyph-name="bar" unicode="|" horiz-adv-x="500" 
d="M213 -250v1000h74v-1000h-74z" />
    <glyph glyph-name="braceright" unicode="}" horiz-adv-x="500" 
d="M236 129c0 32 4.33203 56.3311 12.999 72.998s24.667 31.334 48 44.001c-22.667 12 -38.5 26.833 -47.5 44.5s-13.5 42.167 -13.5 73.5v161c0 36.667 -6.33301 60.834 -19 72.501s-38.334 17.5 -77.001 17.5v63h28c50.667 0 86.834 -11.167 108.501 -33.5
s32.5 -60.166 32.5 -113.499v-165c0 -52.667 19 -83.667 57 -93v-59c-38 -10.667 -57 -40.334 -57 -89.001v-176c0 -48.667 -11 -83.667 -33 -105s-58 -32 -108 -32h-28v63c38.667 0.666992 64.334 6.66699 77.001 18s19 34.333 19 69v167z" />
    <glyph glyph-name="asciitilde" unicode="~" horiz-adv-x="667" 
d="M225 654c-32.667 0 -62.3311 -24 -88.998 -72l-43 28c20.667 42.667 41.167 72.5 61.5 89.5s45.5 25.5 75.5 25.5c25.333 0 62.666 -11.333 111.999 -34c44.667 -20.667 77 -31 97 -31c33.333 0 63.333 22.333 90 67l45 -26c-37.333 -74.667 -85.333 -112 -144 -112
c-23.333 0 -51.333 7.33301 -84 22l-56 25c-26.667 12 -48.334 18 -65.001 18z" />
    <glyph glyph-name="nonbreakingspace" unicode="&#xa0;" horiz-adv-x="250" 
 />
    <glyph glyph-name="exclamdown" unicode="&#xa1;" horiz-adv-x="419" 
d="M209 517c17.333 0 32.166 -6.16699 44.499 -18.5s18.5 -27.166 18.5 -44.499s-6.16699 -32.166 -18.5 -44.499s-27.166 -18.5 -44.499 -18.5s-32 6.16699 -44 18.5s-18 27.166 -18 44.499s6 32.166 18 44.499s26.667 18.5 44 18.5zM246 -23
c0.666992 -48 1.66602 -79 2.99902 -93v-19c0 -36 -14 -54 -42 -54s-42 19.667 -42 59v20c0.666992 8 2 37 4 87c2 56 3 92.333 3 109l-1 109l1 78c0.666992 30.667 1.33398 47.667 2.00098 51c4 16 15.667 24 35 24c24 0 36 -16.667 36 -50v-18z" />
    <glyph glyph-name="cent" unicode="&#xa2;" 
d="M455 462c-2 19.333 -12.333 36.002 -31 50.002s-41.334 22 -68.001 24v-386c36.667 4 63 15.667 79 35c10.667 13.333 22.334 41 35.001 83c6.66699 20 19.334 30 38.001 30c11.333 0 20.833 -4 28.5 -12s11.5 -18 11.5 -30c0 -30 -12 -60.667 -36 -92
s-52.333 -53 -85 -65c-16.667 -6 -40.334 -12.333 -71.001 -19v-111c0 -18.667 -9.33301 -28 -28 -28s-28 9.33301 -28 28v111c-46.667 7.33301 -83.667 20.666 -111 39.999c-67.333 47.333 -101 119.666 -101 216.999c0 59.333 13.167 110.833 39.5 154.5
s62.833 74.834 109.5 93.501c16 6.66699 37 12 63 16v104c0 18.667 9.33301 28 28 28s28 -9.33301 28 -28v-102c35.333 -4.66699 65 -11.667 89 -21c28 -11.333 51 -29.333 69 -54s27 -50.667 27 -78c0 -24.667 -7.5 -45.5 -22.5 -62.5s-33.5 -25.5 -55.5 -25.5
c-16 0 -29.333 5 -40 15s-16 22.333 -16 37c0 13.333 4 24.666 12 33.999s17.333 14 28 14h8zM300 150.002v386c-84 -17.333 -126 -83 -126 -197c0 -56.667 11 -101.5 33 -134.5s53 -51.167 93 -54.5z" />
    <glyph glyph-name="sterling" unicode="&#xa3;" horiz-adv-x="728" 
d="M306 416l3.00293 -8.00293h204c7.33301 0 13.833 -3 19.5 -9s8.5 -13 8.5 -21c0 -19.333 -9 -29 -27 -29h-173c29.333 -47.333 44 -95.666 44 -144.999c0 -28 -4 -55 -12 -81c67.333 -49.333 126.666 -74 177.999 -74c31.333 0 56.166 8.83301 74.499 26.5
s27.5 41.5 27.5 71.5c0 24.667 -7 44.5 -21 59.5s-32.667 22.5 -56 22.5c-15.333 0 -29.5 -4.16699 -42.5 -12.5s-20.833 -18.166 -23.5 -29.499l-4 -17c-4 -16 -15 -24 -33 -24c-23.333 0 -35 12.333 -35 37c0 30.667 13.333 57 40 79s58.667 33 96 33
c45.333 0 82.166 -13.667 110.499 -41s42.5 -62.666 42.5 -105.999c0 -47.333 -16.667 -87.333 -50 -120s-74 -49 -122 -49c-50.667 0 -96 11.667 -136 35l-78 45c-47.333 -54 -107.666 -81 -180.999 -81c-46.667 0 -84.834 10.667 -114.501 32s-44.5 48.666 -44.5 81.999
c0 34.667 13.833 63.167 41.5 85.5s62.834 33.5 105.501 33.5c44.667 0 98.334 -17.333 161.001 -52c2.66699 15.333 4 26.666 4 33.999c0 28.667 -17 75 -51 139l-9 17h-147c-20 0 -30 9.66699 -30 29c0 20 9.66699 30 29 30h114c-14.667 32.667 -22 63.667 -22 93
c0 55.333 19.5 100.5 58.5 135.5s89.5 52.5 151.5 52.5c54 0 98.667 -13.667 134 -41s53 -61.666 53 -102.999c0 -21.333 -5.83301 -39.333 -17.5 -54s-26.167 -22 -43.5 -22c-14 0 -25.833 4.83301 -35.5 14.5s-14.5 21.167 -14.5 34.5c0 18 9.33301 31.333 28 40
c5.33301 2.66699 8 5.66699 8 9c0 8 -6 16.667 -18 26c-26.667 21.333 -58.334 32 -95.001 32c-38.667 0 -70.334 -11.167 -95.001 -33.5s-37 -51.166 -37 -86.499c0 -16.667 3.33301 -31.667 10 -45zM161.003 43.9971c50.667 0 89 17.667 115 53
c-48 31.333 -92.333 47 -133 47c-18.667 0 -34.334 -4.33301 -47.001 -13s-19 -19.667 -19 -33c0 -16 7.83301 -29 23.5 -39s35.834 -15 60.501 -15z" />
    <glyph glyph-name="currency" unicode="&#xa4;" horiz-adv-x="667" 
d="M96 82l-40.998 41.001l94 94c-34 44 -51 91.667 -51 143c0 49.333 16.667 96.333 50 141l-95 95l41 42l95 -95c47.333 34 95.666 51 144.999 51s97 -16.667 143 -50l94 93l42 -41l-95 -94c34 -46 51 -93.667 51 -143c0 -46.667 -16.667 -93.334 -50 -140.001l95 -96
l-41 -41l-95 95c-44.667 -34 -92.334 -51 -143.001 -51c-48 0 -96.333 16.667 -145 50zM501.002 360.001c0 46.667 -16.333 86.5 -49 119.5s-72.334 49.5 -119.001 49.5c-46 0 -85.333 -16.5 -118 -49.5s-49 -72.833 -49 -119.5s16.333 -86.334 49 -119.001
s72.334 -49 119.001 -49c46 0 85.333 16.333 118 49s49 72.334 49 119.001z" />
    <glyph glyph-name="yen" unicode="&#xa5;" horiz-adv-x="710" 
d="M78 255h229.998l-45 83h-185c-20.667 0 -31 9.33301 -31 28c0 19.333 10.333 29 31 29h154l-86 157c-10.667 19.333 -17.667 31 -21 35c-9.33301 10.667 -20.666 16 -33.999 16c-4.66699 0 -11.5 -0.333008 -20.5 -1s-15.833 -1 -20.5 -1c-28 0 -42 11.333 -42 34
c0 24 13 36 39 36c10.667 0 24 -1.33301 40 -4c31.333 -5.33301 58.666 -8 81.999 -8c18 0 30.333 0.666992 37 2c3.33301 0.666992 16.333 3 39 7c11.333 2 21 3 29 3c27.333 0 41 -11.667 41 -35c0 -22.667 -16 -34 -48 -34c-1.33301 0 -4.66602 0.333008 -9.99902 1h-15
c-2.66699 0.666992 -6 1 -10 1c-8 0 -12 -2.33301 -12 -7c0 -3.33301 1.66699 -8.33301 5 -15l133 -260l135 260c3.33301 6.66699 5 11.667 5 15c0 6.66699 -4.33301 10 -13 10c-5.33301 0 -10.333 -0.333008 -15 -1c-10 -3.33301 -22.667 -5 -38 -5
c-26.667 0 -40 11.667 -40 35s13 35 39 35c8.66699 0 18.667 -1 30 -3c30 -5.33301 56.667 -8 80 -8s52.333 2.66699 87 8c12.667 2 24 3 34 3c26 0 39 -11.333 39 -34c0 -22 -12.333 -33 -37 -33c-9.33301 0 -16.666 0.5 -21.999 1.5s-12.333 1.5 -21 1.5
c-14 0 -25 -4.66699 -33 -14c-4.66699 -4 -11.667 -14.667 -21 -32l-92 -166h176c17.333 0 26 -9.66699 26 -29c0 -18.667 -8.66699 -28 -26 -28h-207l-46 -83h253c17.333 0 26 -9.66699 26 -29c0 -18.667 -8.66699 -28 -26 -28h-255v-17c0 -44 0.666992 -70 2 -78
c6 -30 22.333 -45 49 -45c5.33301 0 13.5 0.833008 24.5 2.5s19.167 2.5 24.5 2.5c20.667 0 31 -10.667 31 -32c0 -24 -15 -36 -45 -36h-6c-2.66699 0.666992 -5 1 -7 1l-55 7c-20.667 2.66699 -41 4 -61 4c-21.333 0 -41.666 -1.33301 -60.999 -4l-51 -7
c-1.33301 0 -3.66602 -0.333008 -6.99902 -1h-8c-28.667 0 -43 11.667 -43 35c0 22 10.667 33 32 33c5.33301 0 13.166 -0.833008 23.499 -2.5s18.166 -2.5 23.499 -2.5c20.667 0 34 6.5 40 19.5s9.66699 42.167 11 87.5l1 33h-236c-20.667 0 -31 9.33301 -31 28
c0 19.333 10.333 29 31 29z" />
    <glyph glyph-name="brokenbar" unicode="&#xa6;" horiz-adv-x="500" 
d="M213 -250v400h74v-400h-74zM213 350v400h74v-400h-74z" />
    <glyph glyph-name="section" unicode="&#xa7;" 
d="M409 549c0 18 11.333 32.3301 34 42.9971c-21.333 23.333 -54.666 35 -99.999 35c-31.333 0 -56.333 -7 -75 -21s-28 -33 -28 -57c0 -23.333 7.66699 -41.5 23 -54.5s55.666 -34.5 120.999 -64.5c44.667 -20.667 76.334 -38 95.001 -52s32.667 -31 42 -51
c6 -13.333 9 -28 9 -44c0 -49.333 -29 -96 -87 -140c24.667 -20.667 41.5 -39.667 50.5 -57s13.5 -38 13.5 -62c0 -47.333 -17.333 -85.5 -52 -114.5s-80.334 -43.5 -137.001 -43.5c-58.667 0 -107 14.167 -145 42.5s-57 64.166 -57 107.499
c0 24.667 6.16699 44.334 18.5 59.001s28.833 22 49.5 22c16 0 29.833 -5.66699 41.5 -17s17.5 -24.666 17.5 -39.999c0 -20 -11.667 -36.333 -35 -49c-6 -3.33301 -9 -6.66602 -9 -9.99902c0 -8.66699 7.66699 -17.667 23 -27c28 -16.667 58.333 -25 91 -25
c33.333 0 60.333 8 81 24s31 37 31 63c0 20 -5.5 36.333 -16.5 49s-31.167 26.334 -60.5 41.001l-78 38c-46.667 22.667 -79 41.334 -97 56.001c-33.333 27.333 -50 59 -50 95c0 48.667 29 95 87 139c-35.333 33.333 -53 68.333 -53 105c0 45.333 16.333 81.666 49 108.999
s76.334 41 131.001 41c52 0 95.333 -12.167 130 -36.5s52 -54.166 52 -89.499c0 -18.667 -5.5 -33.834 -16.5 -45.501s-25.167 -17.5 -42.5 -17.5c-14.667 0 -26.834 4.5 -36.501 13.5s-14.5 20.833 -14.5 35.5zM344 358.997c-36.667 16.667 -65.333 30.668 -86 42.001
l-6 -6c-30 -30 -45 -57.333 -45 -82c0 -18.667 7.33301 -34.667 22 -48s43.667 -30.333 87 -51c24 -11.333 50.333 -25 79 -41c35.333 31.333 53 61.666 53 90.999c0 18.667 -7.33301 34.667 -22 48s-42 29 -82 47z" />
    <glyph glyph-name="dieresis" unicode="&#xa8;" horiz-adv-x="491" 
d="M157 571c-15.333 0 -28.5 5.5 -39.5 16.5s-16.5 24.167 -16.5 39.5s5.5 28.5 16.5 39.5s24.167 16.5 39.5 16.5s28.333 -5.5 39 -16.5s16 -24.167 16 -39.5s-5.33301 -28.5 -16 -39.5s-23.667 -16.5 -39 -16.5zM335 571c-15.333 0 -28.5 5.5 -39.5 16.5
s-16.5 24.167 -16.5 39.5s5.5 28.5 16.5 39.5s24.167 16.5 39.5 16.5s28.333 -5.5 39 -16.5s16 -24.167 16 -39.5s-5.5 -28.5 -16.5 -39.5s-23.833 -16.5 -38.5 -16.5z" />
    <glyph glyph-name="copyright" unicode="&#xa9;" horiz-adv-x="791" 
d="M395 689c98.667 0 182.667 -34.667 252 -104s104 -153.333 104 -252c0 -98 -34.833 -181.667 -104.5 -251s-153.5 -104 -251.5 -104s-181.667 34.667 -251 104s-104 153 -104 251c0 98.667 34.667 182.667 104 252s153 104 251 104zM395 28
c83.333 0 154.5 29.833 213.5 89.5s88.5 131.5 88.5 215.5c0 84.667 -29.5 156.834 -88.5 216.501s-130.167 89.5 -213.5 89.5s-154.5 -29.833 -213.5 -89.5s-88.5 -131.834 -88.5 -216.501c0 -84 29.5 -155.833 88.5 -215.5s130.167 -89.5 213.5 -89.5zM397 546
c46.667 0 82.999 -14.332 108.999 -42.999c-0.666992 1.33301 -1.16699 3.66602 -1.5 6.99902s-0.5 7.33301 -0.5 12c0 15.333 7.66699 23 23 23c16 0 24 -9.33301 24 -28c0 -6 -0.666992 -15.333 -2 -28c-2 -19.333 -3 -33 -3 -41c0 -6 0.666992 -16.667 2 -32l2 -23v-6
c0 -20 -8.66699 -30 -26 -30s-26 9.66699 -26 29v22c0 27.333 -9.16699 49.5 -27.5 66.5s-42.833 25.5 -73.5 25.5c-39.333 0 -70.333 -14.833 -93 -44.5s-34 -70.167 -34 -121.5c0 -52.667 11.5 -93.667 34.5 -123s54.833 -44 95.5 -44
c70.667 0 106.334 33.333 107.001 100c0 20.667 9 31 27 31c19.333 0 29 -10.667 29 -32c0 -42.667 -15.833 -77.667 -47.5 -105s-71.834 -41 -120.501 -41c-56.667 0 -102 19 -136 57s-51 88.667 -51 152c0 64.667 17.333 117 52 157s80.334 60 137.001 60z" />
    <glyph glyph-name="ordfeminine" unicode="&#xaa;" horiz-adv-x="425" 
d="M315 393c-28 0 -46.999 11.001 -56.999 33.001l-1 -1c-17.333 -22.667 -45.666 -34 -84.999 -34c-30.667 0 -55.334 7.33301 -74.001 22s-28 34 -28 58c0 48 37 75.667 111 83c30 3.33301 49.333 7.5 58 12.5s13 14.5 13 28.5c0 28 -18.667 42 -56 42
c-16.667 0 -31.334 -4.33301 -44.001 -13c-2 -0.666992 -4 -2.66699 -6 -6c-0.666992 0 -1 -0.333008 -1 -1v-1l4 -3c6 -4.66699 9 -11.334 9 -20.001c0 -18 -10.667 -27 -32 -27c-24.667 0 -37 11.667 -37 35c0 20.667 10.5 38.167 31.5 52.5s46.167 21.5 75.5 21.5
c70 0 105 -31.333 105 -94v-105v-27c2 -11.333 7.33301 -17 16 -17c10.667 0 16 10 16 30v25c0 13.333 7 20 21 20s21 -9.33301 21 -28v-3l-1 -30c-1.33301 -35.333 -21 -53 -59 -53zM69.001 330.001h310v-33h-310v33zM251.001 500.001v29c-10 -8 -33.333 -13.667 -70 -17
c-40 -4 -60 -17.333 -60 -40c0 -26.667 18 -40 54 -40c23.333 0 41.833 6.16699 55.5 18.5s20.5 28.833 20.5 49.5z" />
    <glyph glyph-name="guillemotleft" unicode="&#xab;" horiz-adv-x="346" 
d="M171 415l-51 -148l53 -157c2 -4 3 -7.66699 3 -11c0 -10 -4.33301 -15 -13 -15c-7.33301 0 -13 3.33301 -17 10l-101 166c-1.33301 1.33301 -2 3.33301 -2 6s1 6 3 10l99 158c4 6.66699 9 10 15 10c8.66699 0 13 -5 13 -15c0 -5.33301 -0.666992 -10 -2 -14zM298 415
l-50.001 -148l53 -157c1.33301 -4 2 -7.66699 2 -11c0 -10 -4.33301 -15 -13 -15c-7.33301 0 -12.666 3.33301 -15.999 10l-102 166c-1.33301 2.66699 -2 5 -2 7s1.33301 5 4 9l99 158c4 6.66699 8.66699 10 14 10c9.33301 0 14 -4.66699 14 -14c0 -6 -1 -11 -3 -15z" />
    <glyph glyph-name="logicalnot" unicode="&#xac;" horiz-adv-x="500" 
d="M467 0h-74v201h-360v66h434v-267z" />
    <glyph glyph-name="softhyphen" unicode="&#xad;" horiz-adv-x="549" 
d="M46 205v62h457v-62h-457z" />
    <glyph glyph-name="registered" unicode="&#xae;" horiz-adv-x="500" 
d="M250 760c55.333 0 102.5 -19.5 141.5 -58.5s58.5 -86.167 58.5 -141.5c0 -54.667 -19.5 -101.667 -58.5 -141s-86.167 -59 -141.5 -59c-54.667 0 -101.667 19.667 -141 59s-59 86.333 -59 141c0 55.333 19.667 102.5 59 141.5s86.333 58.5 141 58.5zM250 390
c47.333 0 87.5 16.667 120.5 50s49.5 73.333 49.5 120c0 47.333 -16.5 87.5 -49.5 120.5s-73.167 49.5 -120.5 49.5c-46.667 0 -86.667 -16.5 -120 -49.5s-50 -73.167 -50 -120.5c0 -46.667 16.667 -86.667 50 -120s73.333 -50 120 -50zM330 613
c0 -22.667 -9.66699 -38 -29 -46c10.667 -8 16 -22.333 16 -43v-18c0 -9.33301 2.33301 -14 7 -14s7 6.33301 7 19v20c0 14.667 5.33301 22 16 22c11.333 0 17 -5.66699 17 -17c0 -2.66699 -0.333008 -5.33398 -1 -8.00098v-26c0 -27.333 -14 -41 -42 -41
c-26.667 0 -40 13.333 -40 40l1 9v17c0 11.333 -2.33301 18.333 -7 21s-13 4 -25 4h-26c-2 0 -3 -0.666992 -3 -2v-42c0 -10.667 2.66699 -16 8 -16c2 0 3.66699 0.333008 5 1h9c10 0 15 -5 15 -15c0 -11.333 -6.33301 -17 -19 -17
c-0.666992 0 -2.33398 0.333008 -5.00098 1l-15 2c-2 0 -4.66699 0.333008 -8 1h-7c-2 0 -5 -0.333008 -9 -1s-7.33301 -1 -10 -1l-14 -1c-1.33301 -0.666992 -3.33301 -1 -6 -1c-12 0 -18 5.33301 -18 16s5 16 15 16c3.33301 0 6.33301 -0.333008 9 -1h5c6 0 9 5 9 15v115
c0 2.66699 -0.666992 6.33398 -2 11.001c0 0.666992 -0.333008 1.66699 -1 3s-2.66699 2 -6 2c-4 -0.666992 -5.66699 -1 -5 -1c-2.66699 -0.666992 -5.66699 -1 -9 -1c-10 0 -15 5.33301 -15 16s6.33301 16 19 16h5l14 -2h7c2.66699 -0.666992 5 -1 7 -1
c-0.666992 0 6 0.333008 20 1l21 1c4.66699 0.666992 11.334 1 20.001 1c46.667 0 70 -18.333 70 -55zM221 626v-42c0 -0.666992 0.666992 -1 2 -1h27c29.333 0 44 9.66699 44 29c0 17.333 -12.667 26 -38 26c-23.333 0 -35 -4 -35 -12z" />
    <glyph glyph-name="macron" unicode="&#xaf;" horiz-adv-x="491" 
d="M99 627c0 21.333 12.333 31.999 37 31.999h220c24 0 36 -9.66699 36 -29c0 -9.33301 -3.5 -17.166 -10.5 -23.499s-15.5 -9.5 -25.5 -9.5h-220c-24.667 0 -37 10 -37 30z" />
    <glyph glyph-name="degree" unicode="&#xb0;" horiz-adv-x="500" 
d="M250 392c-39.333 0 -72.833 13.5 -100.5 40.5s-41.5 59.833 -41.5 98.5c0 38 13.833 70.5 41.5 97.5s61.167 40.5 100.5 40.5s72.833 -13.5 100.5 -40.5s41.5 -59.5 41.5 -97.5c0 -38.667 -13.833 -71.5 -41.5 -98.5s-61.167 -40.5 -100.5 -40.5zM250 623
c-26 0 -48.167 -9 -66.5 -27s-27.5 -39.667 -27.5 -65s9.16699 -47.166 27.5 -65.499s40.5 -27.5 66.5 -27.5s48.167 9.16699 66.5 27.5s27.5 40.166 27.5 65.499s-9.16699 47 -27.5 65s-40.5 27 -66.5 27z" />
    <glyph glyph-name="plusminus" unicode="&#xb1;" horiz-adv-x="500" 
d="M20 346v68h193v181h74v-181h193v-68h-197v-180h-70v180h-193zM20 54v68h460v-68h-460z" />
    <glyph glyph-name="twosuperior" unicode="&#xb2;" horiz-adv-x="420" 
d="M81 329c20 20.667 43.9941 31.002 71.9941 31.002c26 0 53.333 -11.333 82 -34c31.333 -25.333 55.666 -38 72.999 -38c12.667 0 22.834 4.16699 30.501 12.5s11.5 18.833 11.5 31.5c0 4 -1 8.66699 -3 14c-6.66699 -6.66699 -14.667 -10 -24 -10
c-18.667 0 -28 9.33301 -28 28c0 10 3.66699 18.333 11 25s17.333 10 30 10c16 0 29 -5.83301 39 -17.5s15 -27.5 15 -47.5c0 -26.667 -8.5 -49.834 -25.5 -69.501s-37.833 -29.5 -62.5 -29.5c-23.333 0 -51.5 12.667 -84.5 38s-61.833 38 -86.5 38s-40 -9.33301 -46 -28
c4.66699 0.666992 7.33398 1 8.00098 1c12.667 0 19 -6.33301 19 -19c0 -20 -11 -30 -33 -30c-14.667 0 -26.5 6.33301 -35.5 19s-13.5 29.667 -13.5 51c0 76.667 53 132 159 166l48 15c53.333 17.333 80 46.333 80 87c0 27.333 -9.66699 48.833 -29 64.5
s-45.666 23.5 -78.999 23.5c-29.333 0 -53.666 -5.83301 -72.999 -17.5s-30.666 -27.834 -33.999 -48.501c23.333 -2 35 -12.333 35 -31c0 -12 -4.16699 -22 -12.5 -30s-18.5 -12 -30.5 -12c-15.333 0 -27.5 5.16699 -36.5 15.5s-13.5 23.833 -13.5 40.5
c0 36 16.333 66.167 49 90.5s73 36.5 121 36.5c46.667 0 84.834 -12.333 114.501 -37s44.5 -56.334 44.5 -95.001c0 -26 -7.16699 -49.167 -21.5 -69.5s-34.166 -35.5 -59.499 -45.5c-8 -3.33301 -34.333 -12.666 -79 -27.999c-32.667 -10.667 -58.667 -21 -78 -31
c-14 -8 -26 -17.667 -36 -29s-16 -25 -18 -41z" />
    <glyph glyph-name="threesuperior" unicode="&#xb3;" horiz-adv-x="420" 
d="M165 507l136.999 134.003h-153c-17.333 0 -28.666 -1 -33.999 -3c-11.333 -3.33301 -17 -12 -17 -26c0 -4 0.5 -10.167 1.5 -18.5s1.5 -14.833 1.5 -19.5c0 -22.667 -7.66699 -34 -23 -34s-23 9.33301 -23 28c0 5.33301 0.333008 13.333 1 24s1 18.667 1 24
c0 12.667 -0.166992 22 -0.5 28s-0.5 12.667 -0.5 20c0 12 2.16699 19.5 6.5 22.5s15.5 4.5 33.5 4.5h162c8.66699 0 23.667 0.333008 45 1c10.667 0.666992 23 1 37 1c26 0 39 -8 39 -24c0 -10 -5.66699 -20.333 -17 -31l-121 -117c2.66699 0 6 0.333008 10 1h9
c37.333 0 68 -12 92 -36s36 -54.667 36 -92c0 -46.667 -17 -84.834 -51 -114.501s-78 -44.5 -132 -44.5c-49.333 0 -90.5 12 -123.5 36s-49.5 54.333 -49.5 91c0 20.667 6 38 18 52s26.667 21 44 21c12 0 21.5 -3.33301 28.5 -10s10.5 -15.334 10.5 -26.001
c0 -22 -13 -33 -39 -33h-7v-5c0 -21.333 12 -40 36 -56s52.333 -24 85 -24c36.667 0 66.667 10.5 90 31.5s35 47.833 35 80.5c0 56.667 -32.667 85 -98 85c-17.333 0 -35 -2 -53 -6c-4 -0.666992 -8 -1 -12 -1c-10.667 0 -16 5.66699 -16 17
c0 5.33301 3.66699 11.666 11 18.999z" />
    <glyph glyph-name="acute" unicode="&#xb4;" horiz-adv-x="492" 
d="M394 665c0 -16.667 -11.667 -30.001 -35 -40.001l-143 -62c-8 -2 -12.333 -3 -13 -3c-14 0 -21 8 -21 24c0 8.66699 7 17.334 21 26.001l126 79c10.667 6.66699 20.667 10 30 10c23.333 0 35 -11.333 35 -34z" />
    <glyph glyph-name="mu" unicode="&#xb5;" horiz-adv-x="500" 
d="M119 -168l-73.001 0.000976562v647h73v-271c0 -40 4 -70.333 12 -91s22.5 -37.667 43.5 -51s44.833 -20 71.5 -20c46.667 0 82.667 20.667 108 62c16.667 27.333 25 63.666 25 108.999v262h73v-479h-72v85c-31.333 -65.333 -76.666 -98 -135.999 -98
c-52 0 -93.667 24.667 -125 74v-229z" />
    <glyph glyph-name="paragraph" unicode="&#xb6;" horiz-adv-x="581" 
d="M283 -98l-64.002 0.00195312v413h-7c-3.33301 -0.666992 -6 -1 -8 -1c-54 0 -98 16.167 -132 48.5s-51 74.166 -51 125.499c0 38 9.83301 71.667 29.5 101s45.834 49.666 78.501 60.999s70.334 17 113.001 17h269v-58h-60v-707h-64v707h-104v-707z" />
    <glyph glyph-name="periodcentered" unicode="&#xb7;" horiz-adv-x="137" 
d="M68 284c-18.667 0 -34.667 6.83105 -48 20.498s-20 29.834 -20 48.501s6.66699 34.834 20 48.501s29.333 20.5 48 20.5c19.333 0 35.666 -6.66699 48.999 -20s20 -29.666 20 -48.999c0 -18.667 -6.66699 -34.834 -20 -48.501s-29.666 -20.5 -48.999 -20.5z" />
    <glyph glyph-name="cedilla" unicode="&#xb8;" horiz-adv-x="492" 
d="M229 0l48.998 0.000976562l-19 -48c12 2 20.667 3 26 3c24 0 44.5 -7.33301 61.5 -22s25.5 -32.334 25.5 -53.001c0 -23.333 -10.667 -43 -32 -59s-47.666 -24 -78.999 -24c-27.333 0 -51.666 6 -72.999 18s-32 25.667 -32 41c0 6 2.33301 11.5 7 16.5
s9.66699 7.5 15 7.5c7.33301 0 13.333 -2.66699 18 -8l11 -12c11.333 -12.667 28.333 -19 51 -19c34.667 0 52 12.667 52 38c0 23.333 -15 35 -45 35c-7.33301 0 -15 -1.33301 -23 -4l-24 -8c-2 -0.666992 -5.66699 -1 -11 -1c-8.66699 0 -13 3.66699 -13 11
c0 2.66699 1.66699 8 5 16z" />
    <glyph glyph-name="onesuperior" unicode="&#xb9;" horiz-adv-x="420" 
d="M187 402l-2.00293 191.999c-0.666992 22.667 -3 37.667 -7 45s-12.333 11 -25 11c-4 0 -10.333 -0.5 -19 -1.5s-15 -1.5 -19 -1.5c-17.333 0 -26 7.66699 -26 23s8.33301 23 25 23c4.66699 0 12.667 -0.5 24 -1.5s20 -1.5 26 -1.5c14 0 25.667 0.333008 35 1
c14 1.33301 22.333 2 25 2c10 0 16 -3 18 -9c2 -4 3 -10.667 3 -20c0 -1.33301 -0.333008 -6.66602 -1 -15.999c-2 -47.333 -3 -90 -3 -128v-75c0 -13.333 0.333008 -31.333 1 -54c0.666992 -28 1 -46.333 1 -55c0.666992 -30.667 10.667 -46 30 -46
c5.33301 0 12.833 0.666992 22.5 2s16.834 2 21.501 2c20.667 0 31 -8 31 -24c0 -15.333 -9.66699 -23 -29 -23c-7.33301 0 -14.333 0.666992 -21 2c-36.667 4.66699 -64.667 7 -84 7s-43 -2 -71 -6c-16 -2 -27.333 -3 -34 -3c-18.667 0 -28 7.66699 -28 23
c0 16 10.667 24 32 24c6.66699 0 13.334 -0.666992 20.001 -2c10.667 -1.33301 17.334 -2 20.001 -2c15.333 0 24.833 6.16699 28.5 18.5s5.5 43.5 5.5 93.5z" />
    <glyph glyph-name="ordmasculine" unicode="&#xba;" horiz-adv-x="425" 
d="M210 391c-39.333 0 -70.833 12.832 -94.5 38.499s-35.5 60.167 -35.5 103.5s11.833 77.833 35.5 103.5s55.834 38.5 96.501 38.5c41.333 0 73.833 -12.667 97.5 -38s35.5 -59.666 35.5 -102.999c0 -42.667 -12.333 -77.167 -37 -103.5s-57.334 -39.5 -98.001 -39.5z
M80 329.999h264v-33h-264v33zM213 633.999c-52 0 -79.333 -31.333 -82 -94v-7c0 -31.333 7 -56 21 -74s33.333 -27 58 -27c55.333 0 83 34 83 102c0 66.667 -26.667 100 -80 100z" />
    <glyph glyph-name="guillemotright" unicode="&#xbb;" horiz-adv-x="346" 
d="M172 110l52.999 156.999l-50 148c-1.33301 2.66699 -2 7.33398 -2 14.001c0 10 4.33301 15 13 15c5.33301 0 10 -3.33301 14 -10l100 -158c2 -4 3 -7 3 -9s-0.666992 -4.33301 -2 -7l-102 -166c-3.33301 -6.66699 -8.66602 -10 -15.999 -10c-8.66699 0 -13 5 -13 15
c0 3.33301 0.666992 7 2 11zM44.999 109.999l53 157l-51 148c-1.33301 4 -2 8.66699 -2 14c0 10 4.33301 15 13 15c6 0 11 -3.33301 15 -10l99 -158c2.66699 -4 4 -7 4 -9c0 -2.66699 -1 -5 -3 -7l-101 -166c-4 -6.66699 -9.33301 -10 -16 -10c-9.33301 0 -14 5 -14 15
c0 1.33301 1 5 3 11z" />
    <glyph glyph-name="onequarter" unicode="&#xbc;" horiz-adv-x="722" 
d="M522 676l42 0.000976562c6.66699 0 10 -2 10 -6v-2c-0.666992 -0.666992 -1 -1.33398 -1 -2.00098l-415 -667c-4 -6 -9 -9 -15 -9h-45c-5.33301 0 -8 3 -8 9l2 6l413 661c4 6.66699 9.66699 10 17 10zM101 516.001l-2.00586 144.999c0 16.667 -1.66699 27.834 -5 33.501
s-9.66602 8.5 -18.999 8.5c-3.33301 0 -8.16602 -0.333008 -14.499 -1s-11.166 -1 -14.499 -1c-12.667 0 -19 5.66699 -19 17c0 12 6 18 18 18c4 0 10.333 -0.5 19 -1.5s15.334 -1.5 20.001 -1.5c10.667 0 19.334 0.333008 26.001 1c10.667 1.33301 17 2 19 2
c7.33301 0 12 -2.33301 14 -7c1.33301 -2.66699 2 -7.66699 2 -15c0 -1.33301 -0.333008 -5.33301 -1 -12c-1.33301 -36 -2 -68.333 -2 -97v-57v-41c0.666992 -21.333 1 -35.333 1 -42c0.666992 -22.667 8.33398 -34 23.001 -34c4 0 9.66699 0.333008 17 1
s12.666 1 15.999 1c16 0 24 -5.66699 24 -17c0 -12 -7.33301 -18 -22 -18c-5.33301 0 -10.666 0.333008 -15.999 1c-28 4 -49.333 6 -64 6s-32.667 -1.66699 -54 -5c-12 -2 -20.333 -3 -25 -3c-14.667 0 -22 6.33301 -22 19c0 11.333 8.33301 17 25 17
c4.66699 0 9.66699 -0.333008 15 -1c8 -0.666992 13 -1 15 -1c12 0 19.333 4.5 22 13.5s4 32.833 4 71.5zM626.994 309l-0.000976562 -171.998h59c10.667 0 16 -5.66699 16 -17s-5.66699 -17 -17 -17h-58v-31c0 -27.333 7.33301 -41 22 -41c4 0 9.5 0.333008 16.5 1l10.5 1
c14 0 21 -5.66699 21 -17c0 -12 -6 -18 -18 -18c-7.33301 0 -17 1 -29 3c-10.667 2 -23.667 3 -39 3c-9.33301 0 -23.333 -1.16699 -42 -3.5s-32.667 -3.5 -42 -3.5c-12.667 0 -19 6 -19 18s7.66699 18 23 18c3.33301 0 8.33301 -0.333008 15 -1s11.667 -1 15 -1
c16.667 0 25 13.667 25 41v31h-155c-15.333 0 -23 6.66699 -23 20c0 5.33301 1.66699 10.666 5 15.999l133 164c14 17.333 24.333 28.666 31 33.999s14.334 8 23.001 8c18 0 27 -12 27 -36zM455.993 137.002h130l3 163z" />
    <glyph glyph-name="onehalf" unicode="&#xbd;" horiz-adv-x="716" 
d="M522 676l42 0.000976562c6.66699 0 10 -2 10 -6v-2c-0.666992 -0.666992 -1 -1.33398 -1 -2.00098l-415 -667c-4 -6 -9 -9 -15 -9h-45c-5.33301 0 -8 3 -8 9l2 6l413 661c4 6.66699 9.66699 10 17 10zM101 516.001l-2.00586 144.999c0 16.667 -1.66699 27.834 -5 33.501
s-9.66602 8.5 -18.999 8.5c-3.33301 0 -8.16602 -0.333008 -14.499 -1s-11.166 -1 -14.499 -1c-12.667 0 -19 5.66699 -19 17c0 12 6 18 18 18c4 0 10.333 -0.5 19 -1.5s15.334 -1.5 20.001 -1.5c10.667 0 19.334 0.333008 26.001 1c10.667 1.33301 17 2 19 2
c7.33301 0 12 -2.33301 14 -7c1.33301 -2.66699 2 -7.66699 2 -15c0 -1.33301 -0.333008 -5.33301 -1 -12c-1.33301 -36 -2 -68.333 -2 -97v-57v-41c0.666992 -21.333 1 -35.333 1 -42c0.666992 -22.667 8.33398 -34 23.001 -34c4 0 9.66699 0.333008 17 1
s12.666 1 15.999 1c16 0 24 -5.66699 24 -17c0 -12 -7.33301 -18 -22 -18c-5.33301 0 -10.666 0.333008 -15.999 1c-28 4 -49.333 6 -64 6s-32.667 -1.66699 -54 -5c-12 -2 -20.333 -3 -25 -3c-14.667 0 -22 6.33301 -22 19c0 11.333 8.33301 17 25 17
c4.66699 0 9.66699 -0.333008 15 -1c8 -0.666992 13 -1 15 -1c12 0 19.333 4.5 22 13.5s4 32.833 4 71.5zM461.994 60c14.667 16 32.6699 24.002 54.0029 24.002c20 0 40.667 -8.66699 62 -26c24 -19.333 42.667 -29 56 -29c9.33301 0 16.833 3.16699 22.5 9.5
s8.5 14.166 8.5 23.499c0 3.33301 -0.666992 7 -2 11c-5.33301 -5.33301 -11.333 -8 -18 -8c-14 0 -21 7 -21 21c0 8 2.83301 14.5 8.5 19.5s13.167 7.5 22.5 7.5c12 0 21.833 -4.5 29.5 -13.5s11.5 -20.833 11.5 -35.5c0 -20.667 -6.5 -38.334 -19.5 -53.001
s-28.833 -22 -47.5 -22c-18 0 -39.333 9.5 -64 28.5s-46.334 28.5 -65.001 28.5s-30.334 -7 -35.001 -21c3.33301 0.666992 5.33301 1 6 1c9.33301 0 14 -4.66699 14 -14c0 -15.333 -8.33301 -23 -25 -23c-10.667 0 -19.5 4.83301 -26.5 14.5s-10.5 22.5 -10.5 38.5
c0 58 40.333 100 121 126l36 11c40 13.333 60 35.333 60 66c0 20.667 -7.16699 37 -21.5 49s-34.166 18 -59.499 18c-22.667 0 -41.334 -4.5 -56.001 -13.5s-23.334 -21.5 -26.001 -37.5c18 -1.33301 27 -9 27 -23c0 -8.66699 -3.16699 -16.167 -9.5 -22.5
s-14.166 -9.5 -23.499 -9.5c-11.333 0 -20.333 4 -27 12s-10 18.333 -10 31c0 27.333 12.333 50.166 37 68.499s55 27.5 91 27.5c35.333 0 64.333 -9.33301 87 -28s34 -42.667 34 -72c0 -20 -5.5 -37.667 -16.5 -53s-26.167 -26.666 -45.5 -33.999
c-6 -2.66699 -26 -9.66699 -60 -21c-24 -8.66699 -43.333 -16.667 -58 -24c-10.667 -6 -19.834 -13.333 -27.501 -22s-12.167 -19 -13.5 -31z" />
    <glyph glyph-name="threequarters" unicode="&#xbe;" horiz-adv-x="757" 
d="M557 676l42 0.000976562c6.66699 0 10 -2 10 -6v-2c-0.666992 -0.666992 -1 -1.33398 -1 -2.00098l-415 -667c-4 -6 -9 -9 -15 -9h-45c-5.33301 0 -8 3 -8 9l2 6l413 661c4 6.66699 9.66699 10 17 10zM662 309.001l-0.000976562 -171.998h59c10.667 0 16 -5.66699 16 -17
s-5.66699 -17 -17 -17h-58v-31c0 -27.333 7.33301 -41 22 -41c4 0 9.5 0.333008 16.5 1l10.5 1c14 0 21 -5.66699 21 -17c0 -12 -6 -18 -18 -18c-7.33301 0 -17 1 -29 3c-10.667 2 -23.667 3 -39 3c-9.33301 0 -23.333 -1.16699 -42 -3.5s-32.667 -3.5 -42 -3.5
c-12.667 0 -19 6 -19 18s7.66699 18 23 18c3.33301 0 8.33301 -0.333008 15 -1s11.667 -1 15 -1c16.667 0 25 13.667 25 41v31h-155c-15.333 0 -23 6.66699 -23 20c0 5.33301 1.66699 10.666 5 15.999l133 164c14 17.333 24.333 28.666 31 33.999s14.334 8 23.001 8
c18 0 27 -12 27 -36zM490.999 137.003h130l3 163zM119.999 595.003l104.003 101.997h-116c-12.667 0 -21.334 -1 -26.001 -3c-8 -2.66699 -12 -9 -12 -19c0 -3.33301 0.333008 -8.16602 1 -14.499s1 -11.166 1 -14.499c0 -17.333 -6 -26 -18 -26c-11.333 0 -17 7 -17 21
c0 4 0.333008 10.167 1 18.5s1 14.5 1 18.5c0 9.33301 -0.166992 16.333 -0.5 21s-0.5 9.66699 -0.5 15c0 9.33301 1.66699 15 5 17s11.666 3 24.999 3h123c6.66699 0 18 0.333008 34 1c8 0.666992 17.333 1 28 1c19.333 0 29 -6 29 -18c0 -8 -4 -16 -12 -24l-92 -88h8h6
c28.667 0 52 -9 70 -27s27 -41.333 27 -70c0 -35.333 -12.833 -64.166 -38.5 -86.499s-58.834 -33.5 -99.501 -33.5c-37.333 0 -68.5 9.16699 -93.5 27.5s-37.5 41.166 -37.5 68.499c0 15.333 4.5 28.5 13.5 39.5s20.167 16.5 33.5 16.5c8.66699 0 15.667 -2.66699 21 -8
s8 -12 8 -20c0 -16.667 -9.66699 -25 -29 -25h-6v-4c0 -16 9.16699 -30 27.5 -42s39.833 -18 64.5 -18c27.333 0 49.833 7.83301 67.5 23.5s26.5 35.834 26.5 60.501c0 43.333 -24.667 65 -74 65c-12.667 0 -26 -1.33301 -40 -4c-3.33301 -0.666992 -6.33301 -1 -9 -1
c-8 0 -12 4.33301 -12 13c0 4 2.66699 8.66699 8 14z" />
    <glyph glyph-name="questiondown" unicode="&#xbf;" horiz-adv-x="600" 
d="M319 517c17.333 0 32 -6.16699 44 -18.5s18 -27.166 18 -44.499s-6 -32.166 -18 -44.499s-26.667 -18.5 -44 -18.5s-32 6.16699 -44 18.5s-18 27.166 -18 44.499s6 32.166 18 44.499s26.667 18.5 44 18.5zM463 -2c0 17.333 -8.66602 31.332 -25.999 41.999
c0.666992 -2.66699 1 -6 1 -10c0 -9.33301 -3.66699 -17.166 -11 -23.499s-16.333 -9.5 -27 -9.5c-28.667 0 -43 14.667 -43 44c0 19.333 7.66699 35.5 23 48.5s34.333 19.5 57 19.5c29.333 0 53.333 -9.83301 72 -29.5s28 -44.834 28 -75.501
c0 -56.667 -23.667 -103 -71 -139s-108.333 -54 -183 -54s-134.334 17.167 -179.001 51.5s-67 80.166 -67 137.499c0 71.333 35.333 125 106 161c12 6 27.333 13 46 21c38.667 16.667 65.167 32.667 79.5 48s21.5 36 21.5 62c0 20 2.66699 33.667 8 41s15.333 11 30 11
c28 0 42 -17.333 42 -52c0 -31.333 -8.33301 -58.666 -25 -81.999c-20.667 -28.667 -57 -57 -109 -85c-48.667 -26 -80 -46.833 -94 -62.5s-21 -37.5 -21 -65.5c0 -36.667 15 -66.167 45 -88.5s69.667 -33.5 119 -33.5c50 0 92.167 11.833 126.5 35.5
s51.5 52.834 51.5 87.501z" />
    <glyph glyph-name="Agrave" unicode="&#xc0;" horiz-adv-x="746" 
d="M523 113l-36.001 97.999c-4 10.667 -8.16699 17.334 -12.5 20.001s-13.166 4 -26.499 4h-178c-13.333 0 -22.5 -2.33301 -27.5 -7s-11.5 -17.334 -19.5 -38.001l-29 -77c-2.66699 -7.33301 -4 -14.333 -4 -21c0 -21.333 13 -32 39 -32c6.66699 0 16.167 0.666992 28.5 2
s21.5 2 27.5 2c27.333 0 41 -11.667 41 -35c0 -22 -15 -33 -45 -33c-5.33301 0 -12.666 0.666992 -21.999 2l-50 7c-9.33301 1.33301 -24.666 2 -45.999 2c-23.333 0 -39.666 -0.666992 -48.999 -2l-42 -6c-18.667 -2.66699 -32.334 -4 -41.001 -4c-26 0 -39 11 -39 33
c0 23.333 12.667 35 38 35c5.33301 0 9.33301 -0.333008 12 -1h13c18 0 31.667 7 41 21c4 5.33301 10.667 21 20 47l186 503c10.667 28 31.667 42 63 42c30.667 0 51 -14 61 -42l179 -496c11.333 -31.333 21.666 -52 30.999 -62s22.666 -15 39.999 -15
c5.33301 0 9.33301 0.333008 12 1l28 2c25.333 0 38 -10.667 38 -32c0 -22.667 -12.667 -34 -38 -34c-7.33301 0 -17 0.666992 -29 2c-42 4.66699 -73.333 7 -94 7c-24.667 0 -64.667 -2.66699 -120 -8c-14 -1.33301 -24.667 -2 -32 -2c-26.667 0 -40 11.333 -40 34
s14.667 34 44 34c6 0 14.833 -0.666992 26.5 -2s20.5 -2 26.5 -2c22 0 33 9 33 27c0 2.66699 -2.66699 11.334 -8 26.001zM290.999 860.999c10 0 20.333 -3.33301 31 -10l136 -85c16.667 -10.667 25 -20.667 25 -30c0 -15.333 -8.33301 -23 -25 -23
c-5.33301 0 -10.333 1 -15 3l-153 66c-24.667 10.667 -37 23.667 -37 39c0 26.667 12.667 40 38 40zM450.999 316.999l-90 276l-92 -276c-1.33301 -4 -2 -6.33301 -2 -7c0 -6 5 -9 15 -9h159c8 0 12 2.66699 12 8c0 1.33301 -0.666992 4 -2 8z" />
    <glyph glyph-name="Aacute" unicode="&#xc1;" horiz-adv-x="746" 
d="M523 113l-36.001 97.999c-4 10.667 -8.16699 17.334 -12.5 20.001s-13.166 4 -26.499 4h-178c-13.333 0 -22.5 -2.33301 -27.5 -7s-11.5 -17.334 -19.5 -38.001l-29 -77c-2.66699 -7.33301 -4 -14.333 -4 -21c0 -21.333 13 -32 39 -32c6.66699 0 16.167 0.666992 28.5 2
s21.5 2 27.5 2c27.333 0 41 -11.667 41 -35c0 -22 -15 -33 -45 -33c-5.33301 0 -12.666 0.666992 -21.999 2l-50 7c-9.33301 1.33301 -24.666 2 -45.999 2c-23.333 0 -39.666 -0.666992 -48.999 -2l-42 -6c-18.667 -2.66699 -32.334 -4 -41.001 -4c-26 0 -39 11 -39 33
c0 23.333 12.667 35 38 35c5.33301 0 9.33301 -0.333008 12 -1h13c18 0 31.667 7 41 21c4 5.33301 10.667 21 20 47l186 503c10.667 28 31.667 42 63 42c30.667 0 51 -14 61 -42l179 -496c11.333 -31.333 21.666 -52 30.999 -62s22.666 -15 39.999 -15
c5.33301 0 9.33301 0.333008 12 1l28 2c25.333 0 38 -10.667 38 -32c0 -22.667 -12.667 -34 -38 -34c-7.33301 0 -17 0.666992 -29 2c-42 4.66699 -73.333 7 -94 7c-24.667 0 -64.667 -2.66699 -120 -8c-14 -1.33301 -24.667 -2 -32 -2c-26.667 0 -40 11.333 -40 34
s14.667 34 44 34c6 0 14.833 -0.666992 26.5 -2s20.5 -2 26.5 -2c22 0 33 9 33 27c0 2.66699 -2.66699 11.334 -8 26.001zM474.999 820.999c0 -15.333 -12.333 -28.333 -37 -39l-153 -66c-4.66699 -2 -9.66699 -3 -15 -3c-16.667 0 -25 7.66699 -25 23
c0 9.33301 8.33301 19.333 25 30l136 85c10.667 6.66699 21 10 31 10c25.333 0 38 -13.333 38 -40zM450.999 316.999l-90 276l-92 -276c-1.33301 -4 -2 -6.33301 -2 -7c0 -6 5 -9 15 -9h159c8 0 12 2.66699 12 8c0 1.33301 -0.666992 4 -2 8z" />
    <glyph glyph-name="Acircumflex" unicode="&#xc2;" horiz-adv-x="746" 
d="M523 113l-36.001 97.999c-4 10.667 -8.16699 17.334 -12.5 20.001s-13.166 4 -26.499 4h-178c-13.333 0 -22.5 -2.33301 -27.5 -7s-11.5 -17.334 -19.5 -38.001l-29 -77c-2.66699 -7.33301 -4 -14.333 -4 -21c0 -21.333 13 -32 39 -32c6.66699 0 16.167 0.666992 28.5 2
s21.5 2 27.5 2c27.333 0 41 -11.667 41 -35c0 -22 -15 -33 -45 -33c-5.33301 0 -12.666 0.666992 -21.999 2l-50 7c-9.33301 1.33301 -24.666 2 -45.999 2c-23.333 0 -39.666 -0.666992 -48.999 -2l-42 -6c-18.667 -2.66699 -32.334 -4 -41.001 -4c-26 0 -39 11 -39 33
c0 23.333 12.667 35 38 35c5.33301 0 9.33301 -0.333008 12 -1h13c18 0 31.667 7 41 21c4 5.33301 10.667 21 20 47l186 503c10.667 28 31.667 42 63 42c30.667 0 51 -14 61 -42l179 -496c11.333 -31.333 21.666 -52 30.999 -62s22.666 -15 39.999 -15
c5.33301 0 9.33301 0.333008 12 1l28 2c25.333 0 38 -10.667 38 -32c0 -22.667 -12.667 -34 -38 -34c-7.33301 0 -17 0.666992 -29 2c-42 4.66699 -73.333 7 -94 7c-24.667 0 -64.667 -2.66699 -120 -8c-14 -1.33301 -24.667 -2 -32 -2c-26.667 0 -40 11.333 -40 34
s14.667 34 44 34c6 0 14.833 -0.666992 26.5 -2s20.5 -2 26.5 -2c22 0 33 9 33 27c0 2.66699 -2.66699 11.334 -8 26.001zM488.999 729.999l-120 56l-120 -56c-11.333 -5.33301 -17.333 -8.33301 -18 -9c-8 -2.66699 -14 -4 -18 -4h-1c-14.667 0 -22 6.33301 -22 19
c0 7.33301 7.66699 16.333 23 27l135 95c7.33301 5.33301 14.333 8 21 8s13.667 -2.66699 21 -8l136 -95c14.667 -10 22 -19 22 -27c0 -12.667 -7 -19 -21 -19c-4.66699 0 -11 1.33301 -19 4c-2.66699 1.33301 -9 4.33301 -19 9zM450.999 316.999l-90 276l-92 -276
c-1.33301 -4 -2 -6.33301 -2 -7c0 -6 5 -9 15 -9h159c8 0 12 2.66699 12 8c0 1.33301 -0.666992 4 -2 8z" />
    <glyph glyph-name="Atilde" unicode="&#xc3;" horiz-adv-x="746" 
d="M523 113l-36.001 97.999c-4 10.667 -8.16699 17.334 -12.5 20.001s-13.166 4 -26.499 4h-178c-13.333 0 -22.5 -2.33301 -27.5 -7s-11.5 -17.334 -19.5 -38.001l-29 -77c-2.66699 -7.33301 -4 -14.333 -4 -21c0 -21.333 13 -32 39 -32c6.66699 0 16.167 0.666992 28.5 2
s21.5 2 27.5 2c27.333 0 41 -11.667 41 -35c0 -22 -15 -33 -45 -33c-5.33301 0 -12.666 0.666992 -21.999 2l-50 7c-9.33301 1.33301 -24.666 2 -45.999 2c-23.333 0 -39.666 -0.666992 -48.999 -2l-42 -6c-18.667 -2.66699 -32.334 -4 -41.001 -4c-26 0 -39 11 -39 33
c0 23.333 12.667 35 38 35c5.33301 0 9.33301 -0.333008 12 -1h13c18 0 31.667 7 41 21c4 5.33301 10.667 21 20 47l186 503c10.667 28 31.667 42 63 42c30.667 0 51 -14 61 -42l179 -496c11.333 -31.333 21.666 -52 30.999 -62s22.666 -15 39.999 -15
c5.33301 0 9.33301 0.333008 12 1l28 2c25.333 0 38 -10.667 38 -32c0 -22.667 -12.667 -34 -38 -34c-7.33301 0 -17 0.666992 -29 2c-42 4.66699 -73.333 7 -94 7c-24.667 0 -64.667 -2.66699 -120 -8c-14 -1.33301 -24.667 -2 -32 -2c-26.667 0 -40 11.333 -40 34
s14.667 34 44 34c6 0 14.833 -0.666992 26.5 -2s20.5 -2 26.5 -2c22 0 33 9 33 27c0 2.66699 -2.66699 11.334 -8 26.001zM309.999 840.999c18 0 41.999 -5 71.999 -15l39 -13c14 -4.66699 25 -7 33 -7c18.667 0 33.334 5.66699 44.001 17l14 15
c3.33301 3.33301 7.33301 5 12 5c10.667 0 16 -5.33301 16 -16c0 -22.667 -10.667 -42.667 -32 -60s-46 -26 -74 -26c-18 0 -40.667 4.66699 -68 14c-37.333 12.667 -62.666 19 -75.999 19c-22.667 0 -38.334 -6.33301 -47.001 -19l-8 -12c-6 -6 -11 -9 -15 -9
c-9.33301 0 -14 5.66699 -14 17c0 24 10.5 45 31.5 63s45.167 27 72.5 27zM450.998 316.999l-90 276l-92 -276c-1.33301 -4 -2 -6.33301 -2 -7c0 -6 5 -9 15 -9h159c8 0 12 2.66699 12 8c0 1.33301 -0.666992 4 -2 8z" />
    <glyph glyph-name="Adieresis" unicode="&#xc4;" horiz-adv-x="746" 
d="M523 113l-36.001 97.999c-4 10.667 -8.16699 17.334 -12.5 20.001s-13.166 4 -26.499 4h-178c-13.333 0 -22.5 -2.33301 -27.5 -7s-11.5 -17.334 -19.5 -38.001l-29 -77c-2.66699 -7.33301 -4 -14.333 -4 -21c0 -21.333 13 -32 39 -32c6.66699 0 16.167 0.666992 28.5 2
s21.5 2 27.5 2c27.333 0 41 -11.667 41 -35c0 -22 -15 -33 -45 -33c-5.33301 0 -12.666 0.666992 -21.999 2l-50 7c-9.33301 1.33301 -24.666 2 -45.999 2c-23.333 0 -39.666 -0.666992 -48.999 -2l-42 -6c-18.667 -2.66699 -32.334 -4 -41.001 -4c-26 0 -39 11 -39 33
c0 23.333 12.667 35 38 35c5.33301 0 9.33301 -0.333008 12 -1h13c18 0 31.667 7 41 21c4 5.33301 10.667 21 20 47l186 503c10.667 28 31.667 42 63 42c30.667 0 51 -14 61 -42l179 -496c11.333 -31.333 21.666 -52 30.999 -62s22.666 -15 39.999 -15
c5.33301 0 9.33301 0.333008 12 1l28 2c25.333 0 38 -10.667 38 -32c0 -22.667 -12.667 -34 -38 -34c-7.33301 0 -17 0.666992 -29 2c-42 4.66699 -73.333 7 -94 7c-24.667 0 -64.667 -2.66699 -120 -8c-14 -1.33301 -24.667 -2 -32 -2c-26.667 0 -40 11.333 -40 34
s14.667 34 44 34c6 0 14.833 -0.666992 26.5 -2s20.5 -2 26.5 -2c22 0 33 9 33 27c0 2.66699 -2.66699 11.334 -8 26.001zM276.999 732.999c-18 0 -33.333 6.16699 -46 18.5s-19 27.5 -19 45.5s6.33301 33.167 19 45.5s28 18.5 46 18.5c17.333 0 32.333 -6.16699 45 -18.5
s19 -27.5 19 -45.5s-6.33301 -33.167 -19 -45.5s-27.667 -18.5 -45 -18.5zM456.999 732.999c-18 0 -33.333 6.33301 -46 19s-19 27.667 -19 45s6.33301 32.333 19 45s28 19 46 19c17.333 0 32.333 -6.16699 45 -18.5s19 -27.5 19 -45.5c0 -17.333 -6.33301 -32.333 -19 -45
s-27.667 -19 -45 -19zM450.999 316.999l-90 276l-92 -276c-1.33301 -4 -2 -6.33301 -2 -7c0 -6 5 -9 15 -9h159c8 0 12 2.66699 12 8c0 1.33301 -0.666992 4 -2 8z" />
    <glyph glyph-name="Aring" unicode="&#xc5;" horiz-adv-x="746" 
d="M523 113l-36.001 97.999c-4 10.667 -8.16699 17.334 -12.5 20.001s-13.166 4 -26.499 4h-178c-13.333 0 -22.5 -2.33301 -27.5 -7s-11.5 -17.334 -19.5 -38.001l-29 -77c-2.66699 -7.33301 -4 -14.333 -4 -21c0 -21.333 13 -32 39 -32c6.66699 0 16.167 0.666992 28.5 2
s21.5 2 27.5 2c27.333 0 41 -11.667 41 -35c0 -22 -15 -33 -45 -33c-5.33301 0 -12.666 0.666992 -21.999 2l-50 7c-9.33301 1.33301 -24.666 2 -45.999 2c-23.333 0 -39.666 -0.666992 -48.999 -2l-42 -6c-18.667 -2.66699 -32.334 -4 -41.001 -4c-26 0 -39 11 -39 33
c0 23.333 12.667 35 38 35c5.33301 0 9.33301 -0.333008 12 -1h13c18 0 31.667 7 41 21c4 5.33301 10.667 21 20 47l186 503c10.667 28 31.667 42 63 42c30.667 0 51 -14 61 -42l179 -496c11.333 -31.333 21.666 -52 30.999 -62s22.666 -15 39.999 -15
c5.33301 0 9.33301 0.333008 12 1l28 2c25.333 0 38 -10.667 38 -32c0 -22.667 -12.667 -34 -38 -34c-7.33301 0 -17 0.666992 -29 2c-42 4.66699 -73.333 7 -94 7c-24.667 0 -64.667 -2.66699 -120 -8c-14 -1.33301 -24.667 -2 -32 -2c-26.667 0 -40 11.333 -40 34
s14.667 34 44 34c6 0 14.833 -0.666992 26.5 -2s20.5 -2 26.5 -2c22 0 33 9 33 27c0 2.66699 -2.66699 11.334 -8 26.001zM364.999 710.999c-27.333 0 -50.5 9.33301 -69.5 28s-28.5 41.334 -28.5 68.001s9.5 49.5 28.5 68.5s42.167 28.5 69.5 28.5s50.333 -9.33301 69 -28
s28 -41.667 28 -69c0 -26.667 -9.5 -49.334 -28.5 -68.001s-41.833 -28 -68.5 -28zM450.999 316.999l-90 276l-92 -276c-1.33301 -4 -2 -6.33301 -2 -7c0 -6 5 -9 15 -9h159c8 0 12 2.66699 12 8c0 1.33301 -0.666992 4 -2 8zM364.999 856.999
c-14 0 -25.833 -4.83301 -35.5 -14.5s-14.5 -21.5 -14.5 -35.5c0 -13.333 5 -24.833 15 -34.5s21.667 -14.5 35 -14.5s24.833 4.83301 34.5 14.5s14.5 21.167 14.5 34.5c0 14 -4.83301 25.833 -14.5 35.5s-21.167 14.5 -34.5 14.5z" />
    <glyph glyph-name="AE" unicode="&#xc6;" horiz-adv-x="1019" 
d="M269 266l-26.0049 -44.002l-30 -54l-27 -45l-19 -31c-1.33301 -2 -3.33301 -5.16699 -6 -9.5s-4 -7.83301 -4 -10.5c0 -7.33301 6.33301 -11 19 -11c5.33301 0 12.333 0.833008 21 2.5s15.334 2.5 20.001 2.5c26 0 39 -11.667 39 -35c0 -24 -13.667 -36 -41 -36
c-7.33301 0 -16.666 1 -27.999 3c-34.667 6 -61.667 9 -81 9c-17.333 0 -44 -2.66699 -80 -8c-18 -2.66699 -30.667 -4 -38 -4c-24 0 -36 11.333 -36 34s12.333 34 37 34c4 0 10.333 -0.666992 19 -2s15 -2 19 -2c12.667 0 27 9.66699 43 29l14 17l336 533
c12 18.667 27 28 45 28c8.66699 0 19.334 -0.333008 32.001 -1c24.667 -1.33301 60 -2 106 -2h45c14.667 0 45.334 0.666992 92.001 2l158 6c30.667 -1.33301 46 -17 46 -47v-5c-0.666992 -2 -1 -3.66699 -1 -5l-4 -42c-2 -21.333 -3 -41.333 -3 -60
c0 -19.333 0.666992 -32.666 2 -39.999c2.66699 -32 4 -47 4 -45c0 -26 -12 -39 -36 -39s-36 17 -36 51c0 2.66699 0.333008 8 1 16v21c0.666992 5.33301 1 13.333 1 24c0 46.667 -8.83301 75.834 -26.5 87.501s-62.167 17.5 -133.5 17.5
c-56.667 0 -92.667 -1.33301 -108 -4s-25 -11.334 -29 -26.001c-2 -6 -3 -20 -3 -42v-142c0 -9.33301 1.5 -15.333 4.5 -18s9.83301 -4 20.5 -4h72c38.667 0 58 15.667 58 47c0 6.66699 -0.833008 16.667 -2.5 30s-2.5 23.333 -2.5 30c0 27.333 11.333 41 34 41
c23.333 0 35 -13 35 -39c0 -13.333 -1 -27 -3 -41c-5.33301 -38 -8 -74.333 -8 -109c0 -30 2.66699 -64 8 -102c2 -14 3 -25.333 3 -34c0 -25.333 -11.667 -38 -35 -38s-35 12 -35 36c0 8.66699 1 19 3 31s3 23.667 3 35c0 32 -19.667 48 -59 48h-73
c-15.333 0 -23 -6.33301 -23 -19v-162c0 -26 3.33301 -42.167 10 -48.5s24.334 -9.5 53.001 -9.5h130c51.333 0 84.5 5.5 99.5 16.5s22.5 35.833 22.5 74.5c0 17.333 -0.666992 33 -2 47v21c0 38 11.667 57 35 57c24 0 36 -14 36 -42c0 -13.333 -0.833008 -33.5 -2.5 -60.5
s-2.5 -47.167 -2.5 -60.5c0 -9.33301 0.333008 -18.333 1 -27l3 -38v-8c0 -33.333 -17.667 -50 -53 -50c-5.33301 0 -25 1 -59 3c-56.667 3.33301 -141 5 -253 5c-65.333 0 -115.666 -1.33301 -150.999 -4l-53 -4c-28 0 -42 11.667 -42 35s16.333 35 49 35
c-4 0 2.33301 -0.333008 19 -1c12.667 -0.666992 21 -1 25 -1c25.333 0 41.666 10 48.999 30c3.33301 9.33301 5 30.333 5 63v115c0 14.667 -1.66699 23.834 -5 27.501s-9.66602 5.5 -18.999 5.5h-162c-8 -1.33301 -13.833 -4.5 -17.5 -9.5s-9.83398 -14.5 -18.501 -28.5z
M484.995 609.998l-152.001 -241h141c10.667 0 16.334 7.33301 17.001 22l6 219c0 4 -1.33301 6 -4 6c-3.33301 0 -6 -2 -8 -6z" />
    <glyph glyph-name="Ccedilla" unicode="&#xc7;" 
d="M338 689c74 0 134.333 -28.335 181 -85.002l-1 11v11c-0.666992 4 -1 6.33301 -1 7c-1.33301 14.667 -2 21.334 -2 20.001c0 22.667 10.667 34 32 34c22.667 0 34 -14 34 -42c0 -5.33301 -1.33301 -21.333 -4 -48c-3.33301 -33.333 -5 -56.333 -5 -69
c0 -18 1 -36.333 3 -55l4 -38v-10c0 -30 -12 -45 -36 -45c-26 0 -38.667 14.333 -38 43l1 36c1.33301 48 -13.667 87 -45 117s-72.333 45 -123 45c-66 0 -117.667 -25.333 -155 -76s-56 -120.667 -56 -210c0 -91.333 19.167 -162.5 57.5 -213.5s91.833 -76.5 160.5 -76.5
c37.333 0 70.833 9 100.5 27s50.5 41.667 62.5 71c8 19.333 12 45.333 12 78c0 30.667 12.667 46 38 46c27.333 0 41 -15.333 41 -46c0 -78.667 -29.667 -141.334 -89 -188.001c-42 -33.333 -98.333 -51.666 -169 -54.999l-16 -44c18.667 2.66699 32.334 4 41.001 4
c28 0 51.167 -7.83301 69.5 -23.5s27.5 -35.167 27.5 -58.5c0 -26.667 -12 -48.834 -36 -66.501s-54.667 -26.5 -92 -26.5c-31.333 0 -59.333 5.83301 -84 17.5s-37 24.834 -37 39.501c0 15.333 6.66699 23 20 23c4.66699 0 10 -2 16 -6l16 -11c17.333 -12 41 -18 71 -18
c39.333 0 59 14.667 59 44c0 26.667 -17.667 40 -53 40c-8 0 -18.833 -2 -32.5 -6s-23.834 -6 -30.501 -6c-9.33301 0 -14 5.66699 -14 17c0 6.66699 2.33301 15.667 7 27l23 56c-80 9.33301 -143 45 -189 107s-69 141.667 -69 239c0 108.667 27.5 196.334 82.5 263.001
s127.5 100 217.5 100z" />
    <glyph glyph-name="Egrave" unicode="&#xc8;" horiz-adv-x="673" 
d="M149 534c0 49.333 -17.002 73.999 -51.002 73.999c-9.33301 0 -16.333 -0.666992 -21 -2c-10.667 -2 -19.667 -3 -27 -3c-8.66699 0 -16 3.16699 -22 9.5s-9 14.166 -9 23.499c0 23.333 14 35 42 35c0.666992 0 5.66699 -0.333008 15 -1
c100 -6.66699 146.667 -10 140 -10h10l241 7c4.66699 0 22 1 52 3c10.667 0.666992 20.334 1 29.001 1c34.667 0 52 -15.333 52 -46c0 -5.33301 -1.33301 -22.333 -4 -51c-2 -21.333 -3 -41 -3 -59c0 -23.333 0.666992 -39.666 2 -48.999
c2.66699 -19.333 4 -33.666 4 -42.999c0 -25.333 -12 -38 -36 -38s-36 17.667 -36 53v52c0 56 -11.667 89 -35 99c-17.333 7.33301 -62 11 -134 11c-47.333 0 -75.333 -1 -84 -3c-28.667 -7.33301 -43 -27.333 -43 -60v-45v-22c-0.666992 -9.33301 -1 -16 -1 -20v-13
c0 -26.667 6 -42 18 -46c4.66699 -1.33301 12.667 -2 24 -2h41c42 0 63 14.333 63 43c0 8 -1 18.333 -3 31s-3 24 -3 34c0 26.667 12 40 36 40s36 -14.333 36 -43c0 -5.33301 -2.33301 -26 -7 -62c-4 -30.667 -6 -57.667 -6 -81c0 -13.333 1.33301 -37 4 -71
c0.666992 -5.33301 2.33398 -17 5.00098 -35c2 -14.667 3 -26.334 3 -35.001c0 -24 -12 -36 -36 -36c-23.333 0 -35 14 -35 42c0 7.33301 0.833008 18 2.5 32s2.5 24.667 2.5 32c0 28.667 -19 43 -57 43h-45c-19.333 0 -31.166 -3.33301 -35.499 -10s-6.5 -21 -6.5 -43v-62
c0 -10.667 0.333008 -25 1 -43c0.666992 -22 1 -36.667 1 -44c0.666992 -26.667 6 -43.334 16 -50.001c7.33301 -4.66699 24.666 -7 51.999 -7h136c39.333 0 66.333 5.83301 81 17.5s22 33.5 22 65.5c0 10 -0.5 24.833 -1.5 44.5s-1.5 34.5 -1.5 44.5c0 30 12 45 36 45
c25.333 0 38 -15.333 38 -46c0 -12 -0.666992 -30.333 -2 -55s-2 -43 -2 -55c0 -9.33301 0.5 -23.166 1.5 -41.499s1.5 -32.166 1.5 -41.499c0 -31.333 -15.333 -47 -46 -47c-7.33301 0 -19 0.666992 -35 2c-8 0.666992 -22.667 1 -44 1c4.66699 0 -21.333 0.666992 -78 2
s-105.667 2 -147 2c-62.667 0 -124 -2 -184 -6c-2.66699 0 -5.66699 -0.333008 -9 -1h-6c-28 0 -42 12 -42 36c0 21.333 10.333 32 31 32c3.33301 0 12.333 -0.666992 27 -2c7.33301 -2 14.333 -3 21 -3c34 0 51 25 51 75v401zM240.998 860.999
c10 0 20.334 -3.33301 31.001 -10l136 -85c16.667 -10.667 25 -20.667 25 -30c0 -15.333 -8.33301 -23 -25 -23c-4.66699 0 -9.33398 1 -14.001 3l-153 66c-25.333 10.667 -38 23.667 -38 39c0 11.333 3.66699 20.833 11 28.5s16.333 11.5 27 11.5z" />
    <glyph glyph-name="Eacute" unicode="&#xc9;" horiz-adv-x="673" 
d="M149 534c0 49.333 -17.002 73.999 -51.002 73.999c-9.33301 0 -16.333 -0.666992 -21 -2c-10.667 -2 -19.667 -3 -27 -3c-8.66699 0 -16 3.16699 -22 9.5s-9 14.166 -9 23.499c0 23.333 14 35 42 35c0.666992 0 5.66699 -0.333008 15 -1
c100 -6.66699 146.667 -10 140 -10h10l241 7c4.66699 0 22 1 52 3c10.667 0.666992 20.334 1 29.001 1c34.667 0 52 -15.333 52 -46c0 -5.33301 -1.33301 -22.333 -4 -51c-2 -21.333 -3 -41 -3 -59c0 -23.333 0.666992 -39.666 2 -48.999
c2.66699 -19.333 4 -33.666 4 -42.999c0 -25.333 -12 -38 -36 -38s-36 17.667 -36 53v52c0 56 -11.667 89 -35 99c-17.333 7.33301 -62 11 -134 11c-47.333 0 -75.333 -1 -84 -3c-28.667 -7.33301 -43 -27.333 -43 -60v-45v-22c-0.666992 -9.33301 -1 -16 -1 -20v-13
c0 -26.667 6 -42 18 -46c4.66699 -1.33301 12.667 -2 24 -2h41c42 0 63 14.333 63 43c0 8 -1 18.333 -3 31s-3 24 -3 34c0 26.667 12 40 36 40s36 -14.333 36 -43c0 -5.33301 -2.33301 -26 -7 -62c-4 -30.667 -6 -57.667 -6 -81c0 -13.333 1.33301 -37 4 -71
c0.666992 -5.33301 2.33398 -17 5.00098 -35c2 -14.667 3 -26.334 3 -35.001c0 -24 -12 -36 -36 -36c-23.333 0 -35 14 -35 42c0 7.33301 0.833008 18 2.5 32s2.5 24.667 2.5 32c0 28.667 -19 43 -57 43h-45c-19.333 0 -31.166 -3.33301 -35.499 -10s-6.5 -21 -6.5 -43v-62
c0 -10.667 0.333008 -25 1 -43c0.666992 -22 1 -36.667 1 -44c0.666992 -26.667 6 -43.334 16 -50.001c7.33301 -4.66699 24.666 -7 51.999 -7h136c39.333 0 66.333 5.83301 81 17.5s22 33.5 22 65.5c0 10 -0.5 24.833 -1.5 44.5s-1.5 34.5 -1.5 44.5c0 30 12 45 36 45
c25.333 0 38 -15.333 38 -46c0 -12 -0.666992 -30.333 -2 -55s-2 -43 -2 -55c0 -9.33301 0.5 -23.166 1.5 -41.499s1.5 -32.166 1.5 -41.499c0 -31.333 -15.333 -47 -46 -47c-7.33301 0 -19 0.666992 -35 2c-8 0.666992 -22.667 1 -44 1c4.66699 0 -21.333 0.666992 -78 2
s-105.667 2 -147 2c-62.667 0 -124 -2 -184 -6c-2.66699 0 -5.66699 -0.333008 -9 -1h-6c-28 0 -42 12 -42 36c0 21.333 10.333 32 31 32c3.33301 0 12.333 -0.666992 27 -2c7.33301 -2 14.333 -3 21 -3c34 0 51 25 51 75v401zM464.998 820.999
c0 -15.333 -12.333 -28.333 -37 -39l-153 -66c-4.66699 -2 -9.33398 -3 -14.001 -3c-16.667 0 -25 7.66699 -25 23c0 10 8 20 24 30l136 85c10.667 6.66699 21.334 10 32.001 10c24.667 0 37 -13.333 37 -40z" />
    <glyph glyph-name="Ecircumflex" unicode="&#xca;" horiz-adv-x="673" 
d="M149 534c0 49.333 -17.002 73.999 -51.002 73.999c-9.33301 0 -16.333 -0.666992 -21 -2c-10.667 -2 -19.667 -3 -27 -3c-8.66699 0 -16 3.16699 -22 9.5s-9 14.166 -9 23.499c0 23.333 14 35 42 35c0.666992 0 5.66699 -0.333008 15 -1
c100 -6.66699 146.667 -10 140 -10h10l241 7c4.66699 0 22 1 52 3c10.667 0.666992 20.334 1 29.001 1c34.667 0 52 -15.333 52 -46c0 -5.33301 -1.33301 -22.333 -4 -51c-2 -21.333 -3 -41 -3 -59c0 -23.333 0.666992 -39.666 2 -48.999
c2.66699 -19.333 4 -33.666 4 -42.999c0 -25.333 -12 -38 -36 -38s-36 17.667 -36 53v52c0 56 -11.667 89 -35 99c-17.333 7.33301 -62 11 -134 11c-47.333 0 -75.333 -1 -84 -3c-28.667 -7.33301 -43 -27.333 -43 -60v-45v-22c-0.666992 -9.33301 -1 -16 -1 -20v-13
c0 -26.667 6 -42 18 -46c4.66699 -1.33301 12.667 -2 24 -2h41c42 0 63 14.333 63 43c0 8 -1 18.333 -3 31s-3 24 -3 34c0 26.667 12 40 36 40s36 -14.333 36 -43c0 -5.33301 -2.33301 -26 -7 -62c-4 -30.667 -6 -57.667 -6 -81c0 -13.333 1.33301 -37 4 -71
c0.666992 -5.33301 2.33398 -17 5.00098 -35c2 -14.667 3 -26.334 3 -35.001c0 -24 -12 -36 -36 -36c-23.333 0 -35 14 -35 42c0 7.33301 0.833008 18 2.5 32s2.5 24.667 2.5 32c0 28.667 -19 43 -57 43h-45c-19.333 0 -31.166 -3.33301 -35.499 -10s-6.5 -21 -6.5 -43v-62
c0 -10.667 0.333008 -25 1 -43c0.666992 -22 1 -36.667 1 -44c0.666992 -26.667 6 -43.334 16 -50.001c7.33301 -4.66699 24.666 -7 51.999 -7h136c39.333 0 66.333 5.83301 81 17.5s22 33.5 22 65.5c0 10 -0.5 24.833 -1.5 44.5s-1.5 34.5 -1.5 44.5c0 30 12 45 36 45
c25.333 0 38 -15.333 38 -46c0 -12 -0.666992 -30.333 -2 -55s-2 -43 -2 -55c0 -9.33301 0.5 -23.166 1.5 -41.499s1.5 -32.166 1.5 -41.499c0 -31.333 -15.333 -47 -46 -47c-7.33301 0 -19 0.666992 -35 2c-8 0.666992 -22.667 1 -44 1c4.66699 0 -21.333 0.666992 -78 2
s-105.667 2 -147 2c-62.667 0 -124 -2 -184 -6c-2.66699 0 -5.66699 -0.333008 -9 -1h-6c-28 0 -42 12 -42 36c0 21.333 10.333 32 31 32c3.33301 0 12.333 -0.666992 27 -2c7.33301 -2 14.333 -3 21 -3c34 0 51 25 51 75v401zM443.998 729.999l-120 56l-120 -56l-18 -9
c-8 -2.66699 -14 -4 -18 -4h-1c-14.667 0 -22 6.33301 -22 19c0 7.33301 7.66699 16.333 23 27l136 95c7.33301 5.33301 14 8 20 8c6.66699 0 13.667 -2.66699 21 -8l136 -95c14.667 -10 22 -19 22 -27c0 -12.667 -7 -19 -21 -19c-4.66699 0 -11 1.33301 -19 4
c-2.66699 1.33301 -9 4.33301 -19 9z" />
    <glyph glyph-name="Edieresis" unicode="&#xcb;" horiz-adv-x="673" 
d="M149 534c0 49.333 -17.002 73.999 -51.002 73.999c-9.33301 0 -16.333 -0.666992 -21 -2c-10.667 -2 -19.667 -3 -27 -3c-8.66699 0 -16 3.16699 -22 9.5s-9 14.166 -9 23.499c0 23.333 14 35 42 35c0.666992 0 5.66699 -0.333008 15 -1
c100 -6.66699 146.667 -10 140 -10h10l241 7c4.66699 0 22 1 52 3c10.667 0.666992 20.334 1 29.001 1c34.667 0 52 -15.333 52 -46c0 -5.33301 -1.33301 -22.333 -4 -51c-2 -21.333 -3 -41 -3 -59c0 -23.333 0.666992 -39.666 2 -48.999
c2.66699 -19.333 4 -33.666 4 -42.999c0 -25.333 -12 -38 -36 -38s-36 17.667 -36 53v52c0 56 -11.667 89 -35 99c-17.333 7.33301 -62 11 -134 11c-47.333 0 -75.333 -1 -84 -3c-28.667 -7.33301 -43 -27.333 -43 -60v-45v-22c-0.666992 -9.33301 -1 -16 -1 -20v-13
c0 -26.667 6 -42 18 -46c4.66699 -1.33301 12.667 -2 24 -2h41c42 0 63 14.333 63 43c0 8 -1 18.333 -3 31s-3 24 -3 34c0 26.667 12 40 36 40s36 -14.333 36 -43c0 -5.33301 -2.33301 -26 -7 -62c-4 -30.667 -6 -57.667 -6 -81c0 -13.333 1.33301 -37 4 -71
c0.666992 -5.33301 2.33398 -17 5.00098 -35c2 -14.667 3 -26.334 3 -35.001c0 -24 -12 -36 -36 -36c-23.333 0 -35 14 -35 42c0 7.33301 0.833008 18 2.5 32s2.5 24.667 2.5 32c0 28.667 -19 43 -57 43h-45c-19.333 0 -31.166 -3.33301 -35.499 -10s-6.5 -21 -6.5 -43v-62
c0 -10.667 0.333008 -25 1 -43c0.666992 -22 1 -36.667 1 -44c0.666992 -26.667 6 -43.334 16 -50.001c7.33301 -4.66699 24.666 -7 51.999 -7h136c39.333 0 66.333 5.83301 81 17.5s22 33.5 22 65.5c0 10 -0.5 24.833 -1.5 44.5s-1.5 34.5 -1.5 44.5c0 30 12 45 36 45
c25.333 0 38 -15.333 38 -46c0 -12 -0.666992 -30.333 -2 -55s-2 -43 -2 -55c0 -9.33301 0.5 -23.166 1.5 -41.499s1.5 -32.166 1.5 -41.499c0 -31.333 -15.333 -47 -46 -47c-7.33301 0 -19 0.666992 -35 2c-8 0.666992 -22.667 1 -44 1c4.66699 0 -21.333 0.666992 -78 2
s-105.667 2 -147 2c-62.667 0 -124 -2 -184 -6c-2.66699 0 -5.66699 -0.333008 -9 -1h-6c-28 0 -42 12 -42 36c0 21.333 10.333 32 31 32c3.33301 0 12.333 -0.666992 27 -2c7.33301 -2 14.333 -3 21 -3c34 0 51 25 51 75v401zM237.998 732.999
c-18 0 -33.333 6.16699 -46 18.5s-19 27.5 -19 45.5s6.33301 33.167 19 45.5s28 18.5 46 18.5s33.333 -6.16699 46 -18.5s19 -27.5 19 -45.5s-6.33301 -33.167 -19 -45.5s-28 -18.5 -46 -18.5zM417.998 732.999c-17.333 0 -32.333 6.16699 -45 18.5s-19 27.5 -19 45.5
c0 17.333 6.33301 32.333 19 45s27.667 19 45 19c18 0 33.333 -6.16699 46 -18.5s19 -27.5 19 -45.5s-6.33301 -33.167 -19 -45.5s-28 -18.5 -46 -18.5z" />
    <glyph glyph-name="Igrave" unicode="&#xcc;" horiz-adv-x="382" 
d="M149 534c0 49.333 -17.0029 74 -51.0029 74c-9.33301 0 -16.333 -0.666992 -21 -2c-10.667 -2 -19.667 -3 -27 -3c-8.66699 0 -16 3.16699 -22 9.5s-9 14.166 -9 23.499c0 23.333 14.667 35 44 35c4 0 8.66699 -0.333008 14 -1l53 -7c20 -2.66699 40.667 -4 62 -4
c20.667 0 43.334 1.66699 68.001 5l45 6c5.33301 0.666992 10 1 14 1c29.333 0 44 -11.667 44 -35c0 -9.33301 -3 -17.166 -9 -23.499s-13.333 -9.5 -22 -9.5c-6.66699 0 -15.667 1 -27 3c-4.66699 1.33301 -11.667 2 -21 2c-34 0 -51 -24.667 -51 -74v-401
c0 -50 17 -75 51 -75c5.33301 0 12.333 0.666992 21 2c12.667 2 21.667 3 27 3c20.667 0 31 -10.667 31 -32c0 -24 -14.667 -36 -44 -36h-7c-2.66699 0.666992 -5 1 -7 1l-52 8c-17.333 2.66699 -35.666 4 -54.999 4c-28 0 -53 -1.66699 -75 -5l-46 -7
c-1.33301 0 -3.66602 -0.333008 -6.99902 -1h-8c-28.667 0 -43 12 -43 36c0 21.333 10.333 32 31 32c3.33301 0 12.333 -0.666992 27 -2c7.33301 -2 14.333 -3 21 -3c34 0 51 25 51 75v401zM108.997 861c10 0 20.333 -3.33301 31 -10l136 -85
c16.667 -10.667 25 -20.667 25 -30c0 -15.333 -8.33301 -23 -25 -23c-5.33301 0 -10.333 1 -15 3l-152 66c-25.333 10.667 -38 23.667 -38 39c0 26.667 12.667 40 38 40z" />
    <glyph glyph-name="Iacute" unicode="&#xcd;" horiz-adv-x="382" 
d="M149 534c0 49.333 -17.0029 74 -51.0029 74c-9.33301 0 -16.333 -0.666992 -21 -2c-10.667 -2 -19.667 -3 -27 -3c-8.66699 0 -16 3.16699 -22 9.5s-9 14.166 -9 23.499c0 23.333 14.667 35 44 35c4 0 8.66699 -0.333008 14 -1l53 -7c20 -2.66699 40.667 -4 62 -4
c20.667 0 43.334 1.66699 68.001 5l45 6c5.33301 0.666992 10 1 14 1c29.333 0 44 -11.667 44 -35c0 -9.33301 -3 -17.166 -9 -23.499s-13.333 -9.5 -22 -9.5c-6.66699 0 -15.667 1 -27 3c-4.66699 1.33301 -11.667 2 -21 2c-34 0 -51 -24.667 -51 -74v-401
c0 -50 17 -75 51 -75c5.33301 0 12.333 0.666992 21 2c12.667 2 21.667 3 27 3c20.667 0 31 -10.667 31 -32c0 -24 -14.667 -36 -44 -36h-7c-2.66699 0.666992 -5 1 -7 1l-52 8c-17.333 2.66699 -35.666 4 -54.999 4c-28 0 -53 -1.66699 -75 -5l-46 -7
c-1.33301 0 -3.66602 -0.333008 -6.99902 -1h-8c-28.667 0 -43 12 -43 36c0 21.333 10.333 32 31 32c3.33301 0 12.333 -0.666992 27 -2c7.33301 -2 14.333 -3 21 -3c34 0 51 25 51 75v401zM306.997 821c0 -15.333 -12.666 -28.333 -37.999 -39l-153 -66
c-4.66699 -2 -9.33398 -3 -14.001 -3c-16.667 0 -25 7.66699 -25 23c0 10 8 20 24 30l137 85c10.667 6.66699 21 10 31 10c25.333 0 38 -13.333 38 -40z" />
    <glyph glyph-name="Icircumflex" unicode="&#xce;" horiz-adv-x="382" 
d="M149 534c0 49.333 -17.0029 74 -51.0029 74c-9.33301 0 -16.333 -0.666992 -21 -2c-10.667 -2 -19.667 -3 -27 -3c-8.66699 0 -16 3.16699 -22 9.5s-9 14.166 -9 23.499c0 23.333 14.667 35 44 35c4 0 8.66699 -0.333008 14 -1l53 -7c20 -2.66699 40.667 -4 62 -4
c20.667 0 43.334 1.66699 68.001 5l45 6c5.33301 0.666992 10 1 14 1c29.333 0 44 -11.667 44 -35c0 -9.33301 -3 -17.166 -9 -23.499s-13.333 -9.5 -22 -9.5c-6.66699 0 -15.667 1 -27 3c-4.66699 1.33301 -11.667 2 -21 2c-34 0 -51 -24.667 -51 -74v-401
c0 -50 17 -75 51 -75c5.33301 0 12.333 0.666992 21 2c12.667 2 21.667 3 27 3c20.667 0 31 -10.667 31 -32c0 -24 -14.667 -36 -44 -36h-7c-2.66699 0.666992 -5 1 -7 1l-52 8c-17.333 2.66699 -35.666 4 -54.999 4c-28 0 -53 -1.66699 -75 -5l-46 -7
c-1.33301 0 -3.66602 -0.333008 -6.99902 -1h-8c-28.667 0 -43 12 -43 36c0 21.333 10.333 32 31 32c3.33301 0 12.333 -0.666992 27 -2c7.33301 -2 14.333 -3 21 -3c34 0 51 25 51 75v401zM306.997 730l-120 56l-120 -56l-18 -9c-8 -2.66699 -14 -4 -18 -4h-1
c-14.667 0 -22 6.33301 -22 19c0 7.33301 7.66699 16.333 23 27l136 95c7.33301 5.33301 14 8 20 8c6.66699 0 13.667 -2.66699 21 -8l136 -95c14.667 -10 22 -19 22 -27c0 -12.667 -7 -19 -21 -19c-4.66699 0 -11 1.33301 -19 4c-2.66699 1.33301 -9 4.33301 -19 9z" />
    <glyph glyph-name="Idieresis" unicode="&#xcf;" horiz-adv-x="382" 
d="M149 534c0 49.333 -17.0029 74 -51.0029 74c-9.33301 0 -16.333 -0.666992 -21 -2c-10.667 -2 -19.667 -3 -27 -3c-8.66699 0 -16 3.16699 -22 9.5s-9 14.166 -9 23.499c0 23.333 14.667 35 44 35c4 0 8.66699 -0.333008 14 -1l53 -7c20 -2.66699 40.667 -4 62 -4
c20.667 0 43.334 1.66699 68.001 5l45 6c5.33301 0.666992 10 1 14 1c29.333 0 44 -11.667 44 -35c0 -9.33301 -3 -17.166 -9 -23.499s-13.333 -9.5 -22 -9.5c-6.66699 0 -15.667 1 -27 3c-4.66699 1.33301 -11.667 2 -21 2c-34 0 -51 -24.667 -51 -74v-401
c0 -50 17 -75 51 -75c5.33301 0 12.333 0.666992 21 2c12.667 2 21.667 3 27 3c20.667 0 31 -10.667 31 -32c0 -24 -14.667 -36 -44 -36h-7c-2.66699 0.666992 -5 1 -7 1l-52 8c-17.333 2.66699 -35.666 4 -54.999 4c-28 0 -53 -1.66699 -75 -5l-46 -7
c-1.33301 0 -3.66602 -0.333008 -6.99902 -1h-8c-28.667 0 -43 12 -43 36c0 21.333 10.333 32 31 32c3.33301 0 12.333 -0.666992 27 -2c7.33301 -2 14.333 -3 21 -3c34 0 51 25 51 75v401zM100.997 733c-18 0 -33.333 6.16699 -46 18.5s-19 27.5 -19 45.5
s6.33301 33.167 19 45.5s28 18.5 46 18.5s33.333 -6.16699 46 -18.5s19 -27.5 19 -45.5s-6.33301 -33.167 -19 -45.5s-28 -18.5 -46 -18.5zM280.997 733c-17.333 0 -32.333 6.33301 -45 19s-19 27.667 -19 45s6.33301 32.333 19 45s27.667 19 45 19
c18 0 33.333 -6.16699 46 -18.5s19 -27.5 19 -45.5c0 -17.333 -6.33301 -32.333 -19 -45s-28 -19 -46 -19z" />
    <glyph glyph-name="Eth" unicode="&#xd0;" horiz-adv-x="728" 
d="M149 534c0 50 -17.0029 75 -51.0029 75c-6 0 -13 -0.666992 -21 -2c-12 -2 -21 -3 -27 -3c-20.667 0 -31 10.667 -31 32c0 23.333 15 35 45 35c3.33301 0 7.66602 -0.333008 12.999 -1l53 -7c20 -2.66699 41.333 -4 64 -4c18.667 0 37.334 1 56.001 3l65 7
c12.667 1.33301 29.334 2 50.001 2c60.667 0 111.334 -8.66699 152.001 -26c53.333 -22.667 95.5 -62 126.5 -118s46.5 -121 46.5 -195c0 -65.333 -12.333 -124.166 -37 -176.499s-58.334 -90.833 -101.001 -115.5c-51.333 -30 -113.333 -45 -186 -45
c-14.667 0 -29.667 0.666992 -45 2l-69 6c-23.333 2 -47.666 3 -72.999 3c-22 0 -40 -1 -54 -3l-48 -7c-1.33301 0 -3.66602 -0.333008 -6.99902 -1h-8c-28.667 0 -43 11.667 -43 35c0 9.33301 3 17.166 9 23.499s13.333 9.5 22 9.5c7.33301 0 16.333 -1 27 -3
c4.66699 -1.33301 11.667 -2 21 -2c34 0 51 25 51 75v183h-82c-23.333 0 -35 12.333 -35 37c0 23.333 12 35 36 35h81v146zM232.997 544v-155.998h68c22 0 33 -12 33 -36s-11 -36 -33 -36h-68v-195c0 -30.667 15 -49.334 45 -56.001c10 -2.66699 38 -4 84 -4
c80 0 138 21.667 174 65c43.333 52 65 120.667 65 206c0 66.667 -13.167 123.167 -39.5 169.5s-62.5 76.166 -108.5 89.499c-29.333 8.66699 -64.666 13 -105.999 13c-52.667 0 -84.834 -3 -96.501 -9s-17.5 -23 -17.5 -51z" />
    <glyph glyph-name="Ntilde" unicode="&#xd1;" horiz-adv-x="764" 
d="M296 626l268.999 -559v403c0 52 -0.333008 80.667 -1 86c-6 34.667 -22.667 52 -50 52c-5.33301 0 -13.333 -0.833008 -24 -2.5s-18.667 -2.5 -24 -2.5c-8.66699 0 -16.167 3.16699 -22.5 9.5s-9.5 13.833 -9.5 22.5c0 24 15 36 45 36c6 0 10.333 -0.333008 13 -1l45 -6
c20 -2.66699 38.667 -4 56 -4s40.333 2 69 6c10 1.33301 21.667 3 35 5c1.33301 0 3.66602 0.333008 6.99902 1h7c28.667 0 43 -11.667 43 -35c0 -22.667 -13.333 -34 -40 -34c-4.66699 0 -8.33398 0.333008 -11.001 1h-10c-20 0 -33 -4.33301 -39 -13
s-9.66699 -27.667 -11 -57l-2 -57l-2 -102v-267c0 -46 -5.16699 -78.333 -15.5 -97s-28.166 -28 -53.499 -28c-32.667 0 -60.334 23.333 -83.001 70l-262 545v-465c0 -50 17 -75 51 -75c5.33301 0 13.333 0.833008 24 2.5s18.667 2.5 24 2.5c21.333 0 32 -11 32 -33
c0 -23.333 -15 -35 -45 -35h-6c-3.33301 0.666992 -5.66602 1 -6.99902 1l-41 6c-22.667 3.33301 -44 5 -64 5c-17.333 0 -39.666 -1.66699 -66.999 -5l-49 -6c-1.33301 0 -3.66602 -0.333008 -6.99902 -1h-8c-28.667 0 -43 11.667 -43 35c0 20.667 10.667 31 32 31
c3.33301 0 12.333 -0.666992 27 -2c7.33301 -2 14.333 -3 21 -3c34 0 51 25 51 75v70l1 88v86l-1 158c0 50 -17.333 75 -52 75c-4.66699 0 -11.334 -0.666992 -20.001 -2c-12.667 -2 -22 -3 -28 -3c-21.333 0 -32 11 -32 33c0 23.333 14.333 35 43 35
c4 0 9.33301 -0.333008 16 -1c33.333 -3.33301 59 -5 77 -5c10 0 25 1 45 3s35 3 45 3c20.667 0 34.334 -7 41.001 -21zM347.999 841c19.333 0 43.6689 -4.99902 73.002 -14.999l38 -13c13.333 -4.66699 24.666 -7 33.999 -7c17.333 0 31.666 5.66699 42.999 17l15 15
c3.33301 3.33301 7 5 11 5c10.667 0 16 -5.33301 16 -16c0 -22.667 -10.667 -42.667 -32 -60s-46 -26 -74 -26c-16.667 0 -38 4.33301 -64 13l-3 1c-37.333 12.667 -63 19 -77 19c-21.333 0 -36.666 -6.33301 -45.999 -19l-9 -12c-4.66699 -6 -9.33398 -9 -14.001 -9
c-10 0 -15 5.66699 -15 17c0 23.333 10.5 44.166 31.5 62.499s45.167 27.5 72.5 27.5z" />
    <glyph glyph-name="Ograve" unicode="&#xd2;" horiz-adv-x="655" 
d="M326 -22c-88.667 0 -158.834 32 -210.501 96s-77.5 150.667 -77.5 260c0 110.667 26 197.5 78 260.5s123.667 94.5 215 94.5c87.333 0 156.833 -30.667 208.5 -92s77.5 -144.333 77.5 -249c0 -113.333 -26.167 -203.333 -78.5 -270s-123.166 -100 -212.499 -100zM245 861
c10.667 0 21.334 -3.33301 32.001 -10l136 -85c16 -10.667 24 -20.667 24 -30c0 -15.333 -8.33301 -23 -25 -23c-4.66699 0 -9.33398 1 -14.001 3l-153 66c-24.667 10.667 -37 23.667 -37 39c0 26.667 12.333 40 37 40zM328 617c-64 0 -113.665 -24.667 -148.998 -74
s-53 -118.666 -53 -207.999c0 -90.667 17.667 -160.834 53 -210.501s84.666 -74.5 147.999 -74.5c62 0 111.167 25.833 147.5 77.5s54.5 121.834 54.5 210.501c0 89.333 -17.333 158.166 -52 206.499s-84.334 72.5 -149.001 72.5z" />
    <glyph glyph-name="Oacute" unicode="&#xd3;" horiz-adv-x="655" 
d="M326 -22c-88.667 0 -158.834 32 -210.501 96s-77.5 150.667 -77.5 260c0 110.667 26 197.5 78 260.5s123.667 94.5 215 94.5c87.333 0 156.833 -30.667 208.5 -92s77.5 -144.333 77.5 -249c0 -113.333 -26.167 -203.333 -78.5 -270s-123.166 -100 -212.499 -100zM443 821
c0 -15.333 -12.333 -28.333 -37 -39l-153 -66c-4.66699 -2 -9.66699 -3 -15 -3c-16.667 0 -25 7.66699 -25 23c0 9.33301 8.33301 19.333 25 30l136 85c10.667 6.66699 21 10 31 10c25.333 0 38 -13.333 38 -40zM328 617c-64 0 -113.665 -24.667 -148.998 -74
s-53 -118.666 -53 -207.999c0 -90.667 17.667 -160.834 53 -210.501s84.666 -74.5 147.999 -74.5c62 0 111.167 25.833 147.5 77.5s54.5 121.834 54.5 210.501c0 89.333 -17.333 158.166 -52 206.499s-84.334 72.5 -149.001 72.5z" />
    <glyph glyph-name="Ocircumflex" unicode="&#xd4;" horiz-adv-x="655" 
d="M326 -22c-88.667 0 -158.834 32 -210.501 96s-77.5 150.667 -77.5 260c0 110.667 26 197.5 78 260.5s123.667 94.5 215 94.5c87.333 0 156.833 -30.667 208.5 -92s77.5 -144.333 77.5 -249c0 -113.333 -26.167 -203.333 -78.5 -270s-123.166 -100 -212.499 -100zM444 730
l-120 56l-139 -65c-8 -2.66699 -13.667 -4 -17 -4h-2c-14 0 -21 6.33301 -21 19c0 7.33301 7.66699 16.333 23 27l135 95c7.33301 5.33301 14.333 8 21 8s13.667 -2.66699 21 -8l135 -95c15.333 -10.667 23 -19.667 23 -27c0 -12.667 -7 -19 -21 -19
c-6.66699 0 -13 1.33301 -19 4c-2.66699 1.33301 -9 4.33301 -19 9zM328 617c-64 0 -113.665 -24.667 -148.998 -74s-53 -118.666 -53 -207.999c0 -90.667 17.667 -160.834 53 -210.501s84.666 -74.5 147.999 -74.5c62 0 111.167 25.833 147.5 77.5
s54.5 121.834 54.5 210.501c0 89.333 -17.333 158.166 -52 206.499s-84.334 72.5 -149.001 72.5z" />
    <glyph glyph-name="Otilde" unicode="&#xd5;" horiz-adv-x="655" 
d="M326 -22c-88.667 0 -158.834 32 -210.501 96s-77.5 150.667 -77.5 260c0 110.667 26 197.5 78 260.5s123.667 94.5 215 94.5c87.333 0 156.833 -30.667 208.5 -92s77.5 -144.333 77.5 -249c0 -113.333 -26.167 -203.333 -78.5 -270s-123.166 -100 -212.499 -100zM265 841
c18 0 42 -5 72 -15l39 -13c14 -4.66699 25 -7 33 -7c17.333 0 31.666 5.66699 42.999 17l15 15c3.33301 3.33301 7.33301 5 12 5c10 0 15 -5.33301 15 -16c0 -22.667 -10.667 -42.667 -32 -60s-45.666 -26 -72.999 -26c-18 0 -40.667 4.66699 -68 14
c-37.333 12.667 -62.666 19 -75.999 19c-22 0 -37.667 -6.33301 -47 -19l-9 -12c-4.66699 -6 -9.33398 -9 -14.001 -9c-9.33301 0 -14 5.66699 -14 17c0 24 10.5 45 31.5 63s45.167 27 72.5 27zM328 617c-64 0 -113.665 -24.667 -148.998 -74s-53 -118.666 -53 -207.999
c0 -90.667 17.667 -160.834 53 -210.501s84.666 -74.5 147.999 -74.5c62 0 111.167 25.833 147.5 77.5s54.5 121.834 54.5 210.501c0 89.333 -17.333 158.166 -52 206.499s-84.334 72.5 -149.001 72.5z" />
    <glyph glyph-name="Odieresis" unicode="&#xd6;" horiz-adv-x="655" 
d="M326 -22c-88.667 0 -158.834 32 -210.501 96s-77.5 150.667 -77.5 260c0 110.667 26 197.5 78 260.5s123.667 94.5 215 94.5c87.333 0 156.833 -30.667 208.5 -92s77.5 -144.333 77.5 -249c0 -113.333 -26.167 -203.333 -78.5 -270s-123.166 -100 -212.499 -100zM238 733
c-18 0 -33.333 6.16699 -46 18.5s-19 27.5 -19 45.5s6.33301 33.167 19 45.5s28 18.5 46 18.5s33.167 -6.16699 45.5 -18.5s18.5 -27.5 18.5 -45.5s-6.16699 -33.167 -18.5 -45.5s-27.5 -18.5 -45.5 -18.5zM418 733c-17.333 0 -32.333 6.33301 -45 19s-19 27.667 -19 45
s6.33301 32.333 19 45s27.667 19 45 19c18 0 33.167 -6.33301 45.5 -19s18.5 -27.667 18.5 -45s-6.33301 -32.333 -19 -45s-27.667 -19 -45 -19zM328 617c-64 0 -113.665 -24.667 -148.998 -74s-53 -118.666 -53 -207.999c0 -90.667 17.667 -160.834 53 -210.501
s84.666 -74.5 147.999 -74.5c62 0 111.167 25.833 147.5 77.5s54.5 121.834 54.5 210.501c0 89.333 -17.333 158.166 -52 206.499s-84.334 72.5 -149.001 72.5z" />
    <glyph glyph-name="multiply" unicode="&#xd7;" horiz-adv-x="500" 
d="M73 462l48 48l127 -127l121 121l52 -52l-121 -121l127 -127l-48 -48l-127 127l-121 -121l-52 52l121 121z" />
    <glyph glyph-name="Oslash" unicode="&#xd8;" horiz-adv-x="655" 
d="M330 689c44.667 0 88.001 -9.66699 130.001 -29l35 64c4.66699 8.66699 11 13 19 13h44c6 0 9 -3.33301 9 -10c0 -0.666992 -0.333008 -1.66699 -1 -3l-52 -100c28 -33.333 48 -61.333 60 -84c28.667 -55.333 43 -123.333 43 -204
c0 -109.333 -25.833 -196.333 -77.5 -261s-121.167 -97 -208.5 -97c-48.667 0 -95.334 10 -140.001 30l-32 -62c-4.66699 -8.66699 -11 -13 -19 -13h-47c-5.33301 0 -8 2.66699 -8 8c0 2 0.333008 3.66699 1 5l54 100c-68 67.333 -102 159 -102 275
c0 113.333 26.167 203 78.5 269s123.5 99 213.5 99zM174.001 115l256.001 483c-26.667 15.333 -59.334 23 -98.001 23c-65.333 0 -116 -25.833 -152 -77.5s-54 -124.5 -54 -218.5c0 -86.667 16 -156.667 48 -210zM477.002 548l-254.999 -480.001
c30 -15.333 62.333 -23 97 -23c67.333 0 119.166 24.333 155.499 73s54.5 118 54.5 208c0 86.667 -12.667 153.334 -38 200.001z" />
    <glyph glyph-name="Ugrave" unicode="&#xd9;" horiz-adv-x="710" 
d="M207 513l-2.00391 -64.0029l-4 -81v-154c0 -46.667 5.16699 -80.667 15.5 -102s29.833 -38 58.5 -50c26.667 -11.333 54 -17 82 -17c36.667 0 68 7 94 21s42.833 32.833 50.5 56.5s11.834 53.834 12.501 90.501l2 257c0 50.667 -0.666992 79.334 -2 86.001
c-6 34 -23 51 -51 51c-4.66699 0 -11.334 -0.666992 -20.001 -2c-12.667 -2 -21.667 -3 -27 -3c-8.66699 0 -16.167 3.33301 -22.5 10s-9.5 14.334 -9.5 23.001c0 24 14.667 36 44 36c4.66699 0 9.33398 -0.333008 14.001 -1l59 -8c14.667 -2 31.334 -3 50.001 -3
c18 0 33 1 45 3l43 7c12 2 20 3 24 3c28 0 42 -11.333 42 -34s-13.667 -34 -41 -34h-11c-2 0.666992 -5.33301 1 -10 1c-20 0 -32.333 -10 -37 -30s-7 -71.333 -7 -154v-175c0 -43.333 -1.33301 -74.666 -4 -93.999c-5.33301 -33.333 -16.666 -62.333 -33.999 -87
c-40 -58 -107.667 -87 -203 -87c-117.333 0 -193 38.333 -227 115c-10.667 23.333 -16 59.666 -16 108.999c0 24 1 59.5 3 106.5s3 82.5 3 106.5v53c0 48.667 -0.333008 76 -1 82c-4.66699 36.667 -17.667 55 -39 55h-7c-3.33301 -0.666992 -6.33301 -1.16699 -9 -1.5
s-7 -0.5 -13 -0.5c-28 0 -42 11.333 -42 34s12.667 34 38 34c10.667 0 22 -1 34 -3c32.667 -5.33301 63 -8 91 -8c28.667 0 61.667 3 99 9c8 1.33301 16.667 2 26 2c27.333 0 41 -11.333 41 -34s-11.667 -34 -35 -34c-5.33301 0 -13.333 0.833008 -24 2.5
s-18.667 2.5 -24 2.5c-21.333 0 -35.666 -11.333 -42.999 -34c-3.33301 -10 -5.33301 -30.333 -6 -61zM274.996 860.997c10 0 20.334 -3.33301 31.001 -10l136 -85c16.667 -10.667 25 -20.667 25 -30c0 -15.333 -8.33301 -23 -25 -23c-4.66699 0 -9.33398 1 -14.001 3
l-153 66c-25.333 10.667 -38 23.667 -38 39c0 11.333 3.66699 20.833 11 28.5s16.333 11.5 27 11.5z" />
    <glyph glyph-name="Uacute" unicode="&#xda;" horiz-adv-x="710" 
d="M207 513l-2.00391 -64.0029l-4 -81v-154c0 -46.667 5.16699 -80.667 15.5 -102s29.833 -38 58.5 -50c26.667 -11.333 54 -17 82 -17c36.667 0 68 7 94 21s42.833 32.833 50.5 56.5s11.834 53.834 12.501 90.501l2 257c0 50.667 -0.666992 79.334 -2 86.001
c-6 34 -23 51 -51 51c-4.66699 0 -11.334 -0.666992 -20.001 -2c-12.667 -2 -21.667 -3 -27 -3c-8.66699 0 -16.167 3.33301 -22.5 10s-9.5 14.334 -9.5 23.001c0 24 14.667 36 44 36c4.66699 0 9.33398 -0.333008 14.001 -1l59 -8c14.667 -2 31.334 -3 50.001 -3
c18 0 33 1 45 3l43 7c12 2 20 3 24 3c28 0 42 -11.333 42 -34s-13.667 -34 -41 -34h-11c-2 0.666992 -5.33301 1 -10 1c-20 0 -32.333 -10 -37 -30s-7 -71.333 -7 -154v-175c0 -43.333 -1.33301 -74.666 -4 -93.999c-5.33301 -33.333 -16.666 -62.333 -33.999 -87
c-40 -58 -107.667 -87 -203 -87c-117.333 0 -193 38.333 -227 115c-10.667 23.333 -16 59.666 -16 108.999c0 24 1 59.5 3 106.5s3 82.5 3 106.5v53c0 48.667 -0.333008 76 -1 82c-4.66699 36.667 -17.667 55 -39 55h-7c-3.33301 -0.666992 -6.33301 -1.16699 -9 -1.5
s-7 -0.5 -13 -0.5c-28 0 -42 11.333 -42 34s12.667 34 38 34c10.667 0 22 -1 34 -3c32.667 -5.33301 63 -8 91 -8c28.667 0 61.667 3 99 9c8 1.33301 16.667 2 26 2c27.333 0 41 -11.333 41 -34s-11.667 -34 -35 -34c-5.33301 0 -13.333 0.833008 -24 2.5
s-18.667 2.5 -24 2.5c-21.333 0 -35.666 -11.333 -42.999 -34c-3.33301 -10 -5.33301 -30.333 -6 -61zM485.996 820.997c0 -15.333 -12.333 -28.333 -37 -39l-153 -66c-4.66699 -2 -9.66699 -3 -15 -3c-16.667 0 -25 7.66699 -25 23c0 9.33301 8.33301 19.333 25 30l136 85
c10.667 6.66699 21 10 31 10c25.333 0 38 -13.333 38 -40z" />
    <glyph glyph-name="Ucircumflex" unicode="&#xdb;" horiz-adv-x="710" 
d="M207 513l-2.00391 -64.0029l-4 -81v-154c0 -46.667 5.16699 -80.667 15.5 -102s29.833 -38 58.5 -50c26.667 -11.333 54 -17 82 -17c36.667 0 68 7 94 21s42.833 32.833 50.5 56.5s11.834 53.834 12.501 90.501l2 257c0 50.667 -0.666992 79.334 -2 86.001
c-6 34 -23 51 -51 51c-4.66699 0 -11.334 -0.666992 -20.001 -2c-12.667 -2 -21.667 -3 -27 -3c-8.66699 0 -16.167 3.33301 -22.5 10s-9.5 14.334 -9.5 23.001c0 24 14.667 36 44 36c4.66699 0 9.33398 -0.333008 14.001 -1l59 -8c14.667 -2 31.334 -3 50.001 -3
c18 0 33 1 45 3l43 7c12 2 20 3 24 3c28 0 42 -11.333 42 -34s-13.667 -34 -41 -34h-11c-2 0.666992 -5.33301 1 -10 1c-20 0 -32.333 -10 -37 -30s-7 -71.333 -7 -154v-175c0 -43.333 -1.33301 -74.666 -4 -93.999c-5.33301 -33.333 -16.666 -62.333 -33.999 -87
c-40 -58 -107.667 -87 -203 -87c-117.333 0 -193 38.333 -227 115c-10.667 23.333 -16 59.666 -16 108.999c0 24 1 59.5 3 106.5s3 82.5 3 106.5v53c0 48.667 -0.333008 76 -1 82c-4.66699 36.667 -17.667 55 -39 55h-7c-3.33301 -0.666992 -6.33301 -1.16699 -9 -1.5
s-7 -0.5 -13 -0.5c-28 0 -42 11.333 -42 34s12.667 34 38 34c10.667 0 22 -1 34 -3c32.667 -5.33301 63 -8 91 -8c28.667 0 61.667 3 99 9c8 1.33301 16.667 2 26 2c27.333 0 41 -11.333 41 -34s-11.667 -34 -35 -34c-5.33301 0 -13.333 0.833008 -24 2.5
s-18.667 2.5 -24 2.5c-21.333 0 -35.666 -11.333 -42.999 -34c-3.33301 -10 -5.33301 -30.333 -6 -61zM473.996 729.997l-120 56l-139 -65c-8 -2.66699 -14 -4 -18 -4h-1c-14.667 0 -22 6.33301 -22 19c0 7.33301 7.66699 16.333 23 27l136 95
c7.33301 5.33301 14.333 8 21 8s13.667 -2.66699 21 -8l135 -95c15.333 -10.667 23 -19.667 23 -27c0 -12.667 -7.33301 -19 -22 -19c-4.66699 0 -11 1.33301 -19 4z" />
    <glyph glyph-name="Udieresis" unicode="&#xdc;" horiz-adv-x="710" 
d="M207 513l-2.00391 -64.0029l-4 -81v-154c0 -46.667 5.16699 -80.667 15.5 -102s29.833 -38 58.5 -50c26.667 -11.333 54 -17 82 -17c36.667 0 68 7 94 21s42.833 32.833 50.5 56.5s11.834 53.834 12.501 90.501l2 257c0 50.667 -0.666992 79.334 -2 86.001
c-6 34 -23 51 -51 51c-4.66699 0 -11.334 -0.666992 -20.001 -2c-12.667 -2 -21.667 -3 -27 -3c-8.66699 0 -16.167 3.33301 -22.5 10s-9.5 14.334 -9.5 23.001c0 24 14.667 36 44 36c4.66699 0 9.33398 -0.333008 14.001 -1l59 -8c14.667 -2 31.334 -3 50.001 -3
c18 0 33 1 45 3l43 7c12 2 20 3 24 3c28 0 42 -11.333 42 -34s-13.667 -34 -41 -34h-11c-2 0.666992 -5.33301 1 -10 1c-20 0 -32.333 -10 -37 -30s-7 -71.333 -7 -154v-175c0 -43.333 -1.33301 -74.666 -4 -93.999c-5.33301 -33.333 -16.666 -62.333 -33.999 -87
c-40 -58 -107.667 -87 -203 -87c-117.333 0 -193 38.333 -227 115c-10.667 23.333 -16 59.666 -16 108.999c0 24 1 59.5 3 106.5s3 82.5 3 106.5v53c0 48.667 -0.333008 76 -1 82c-4.66699 36.667 -17.667 55 -39 55h-7c-3.33301 -0.666992 -6.33301 -1.16699 -9 -1.5
s-7 -0.5 -13 -0.5c-28 0 -42 11.333 -42 34s12.667 34 38 34c10.667 0 22 -1 34 -3c32.667 -5.33301 63 -8 91 -8c28.667 0 61.667 3 99 9c8 1.33301 16.667 2 26 2c27.333 0 41 -11.333 41 -34s-11.667 -34 -35 -34c-5.33301 0 -13.333 0.833008 -24 2.5
s-18.667 2.5 -24 2.5c-21.333 0 -35.666 -11.333 -42.999 -34c-3.33301 -10 -5.33301 -30.333 -6 -61zM271.996 732.997c-18 0 -33.333 6.16699 -46 18.5s-19 27.5 -19 45.5s6.33301 33.167 19 45.5s28 18.5 46 18.5c17.333 0 32.333 -6.16699 45 -18.5s19 -27.5 19 -45.5
s-6.33301 -33.167 -19 -45.5s-27.667 -18.5 -45 -18.5zM451.996 732.997c-18 0 -33.333 6.33301 -46 19s-19 27.667 -19 45s6.33301 32.333 19 45s28 19 46 19c17.333 0 32.333 -6.16699 45 -18.5s19 -27.5 19 -45.5s-6.33301 -33.167 -19 -45.5s-27.667 -18.5 -45 -18.5z
" />
    <glyph glyph-name="Yacute" unicode="&#xdd;" horiz-adv-x="728" 
d="M325 199v19.001c-0.666992 10.667 -1 19.667 -1 27l-194 307c-12.667 20 -20.667 31.667 -24 35c-10 10 -22.333 15 -37 15c-8 0 -14 -0.333008 -18 -1h-9c-4.66699 -0.666992 -8 -1 -10 -1c-30.667 0 -46 11.667 -46 35c0 24 13.333 36 40 36
c10.667 0 24 -1.33301 40 -4c32 -5.33301 62 -8 90 -8c20.667 0 51.667 3 93 9c14 2 26 3 36 3c27.333 0 41 -11.667 41 -35c0 -22.667 -16.333 -34 -49 -34l-10 1h-25l-20 1c-8 0.666992 -12 -2 -12 -8c0 -2.66699 0.333008 -4.5 1 -5.5s2.33398 -3.83301 5.00098 -8.5
l153 -260l155 260c3.33301 5.33301 5 10.666 5 15.999c0 6 -4.33301 9 -13 9h-2l-18 -1l-26 -3c-11.333 -1.33301 -20 -2 -26 -2c-27.333 0 -41 11.667 -41 35s13.333 35 40 35c10 0 22 -1 36 -3c37.333 -5.33301 69.666 -8 96.999 -8c28.667 0 60.334 2.66699 95.001 8
c13.333 2 24.666 3 33.999 3c25.333 0 38 -11.667 38 -35c0 -21.333 -12.333 -32 -37 -32c-10 0 -17.667 0.666992 -23 2c-10.667 1.33301 -18 2 -22 2c-17.333 0 -31.333 -8 -42 -24l-15 -23l-197 -309v-42c0 -68 2.83301 -110.333 8.5 -127s19.834 -25 42.501 -25
c5.33301 0 13.5 0.833008 24.5 2.5s19.167 2.5 24.5 2.5c20.667 0 31 -10.667 31 -32c0 -24 -15 -36 -45 -36h-6c-2.66699 0.666992 -5 1 -7 1l-55 7c-20.667 2.66699 -41 4 -61 4c-21.333 0 -41.666 -1.33301 -60.999 -4l-51 -7c-1.33301 0 -3.33301 -0.333008 -6 -1h-7
c-30 0 -45 11.667 -45 35c0 22 10.667 33 32 33c5.33301 0 13.166 -0.833008 23.499 -2.5s18.166 -2.5 23.499 -2.5c28 0 45 17.667 51 53c0.666992 6 1 35.333 1 88zM470 826.001c0 -16.667 -11.667 -30.001 -35 -40.001l-143 -62c-8 -2 -12.333 -3 -13 -3
c-14 0 -21 8 -21 24c0 8.66699 7 17.334 21 26.001l126 79c10.667 6.66699 20.667 10 30 10c23.333 0 35 -11.333 35 -34z" />
    <glyph glyph-name="Thorn" unicode="&#xde;" 
d="M149 534c0 49.333 -17.0068 74.001 -51.0068 74.001c-9.33301 0 -16.333 -0.666992 -21 -2c-10.667 -2 -19.667 -3 -27 -3c-8.66699 0 -16 3.16699 -22 9.5s-9 14.166 -9 23.499c0 23.333 14.667 35 44 35c4 0 8.66699 -0.333008 14 -1l53 -7
c20 -2.66699 40.667 -4 62 -4c20.667 0 43.334 1.66699 68.001 5l45 6c5.33301 0.666992 10 1 14 1c29.333 0 44 -11.667 44 -35c0 -9.33301 -3 -17.166 -9 -23.499s-13.333 -9.5 -22 -9.5c-6.66699 0 -15.667 1 -27 3c-4.66699 1.33301 -11.667 2 -21 2
c-34 0 -51 -24.667 -51 -74v-5c4.66699 2.66699 9 4.33398 13 5.00098c54.667 4.66699 96 7 124 7c42.667 0 79.334 -3.33301 110.001 -10c44 -9.33301 78.5 -30 103.5 -62s37.5 -70.667 37.5 -116c0 -62.667 -21.5 -110.667 -64.5 -144s-105.167 -50 -186.5 -50h-71
c-22 0 -35 0.333008 -39 1h-2c-10.667 0 -17.5 -1.83301 -20.5 -5.5s-4.5 -10.834 -4.5 -21.501v-3v-5c0.666992 -14.667 2.66699 -26.667 6 -36l1 -4c4.66699 -16.667 17.667 -25.667 39 -27h5h6c4 0 9 0.666992 15 2c2.66699 0 5.33398 0.333008 8.00098 1
c10 1.33301 16.333 2 19 2c14 0 23 -5 27 -15c0.666992 -0.666992 1.33398 -1.66699 2.00098 -3c1.33301 -4 2 -8.66699 2 -14c0 -3.33301 -0.333008 -6.33301 -1 -9c-0.666992 -3.33301 -1.66699 -6.66602 -3 -9.99902l-1 -1l-1 -1
c-1.33301 -2.66699 -3.66602 -5 -6.99902 -7c0 -0.666992 -0.666992 -1.33398 -2 -2.00098c-4.66699 -2.66699 -11 -4.33398 -19 -5.00098c-1.33301 -0.666992 -2.66602 -1 -3.99902 -1h-6l-14 2l-50 7c-4 0.666992 -8.66699 1 -14 1c-14 2 -28.333 3 -43 3
c-28 0 -53 -1.66699 -75 -5l-46 -7c-1.33301 0 -3.66602 -0.333008 -6.99902 -1h-6h-2h-5c-12 1.33301 -21.333 4.33301 -28 9l-4 4c-3.33301 4.66699 -5.33301 10.667 -6 18v4v1c0 20 9 30.667 27 32h4c7.33301 0 16.333 -1 27 -3c4.66699 -1.33301 11.667 -2 21 -2h5l7 1
c4 0.666992 7.33301 1.66699 10 3l6 4c2.66699 2 5 4.33301 7 7l3 4c1.33301 1.33301 2.66602 3.33301 3.99902 6l1 2c4.66699 10 7.33398 23.333 8.00098 40v8v401zM239.993 456.001c-4.66699 -6.66699 -6.99902 -25 -6.99902 -55v-148c0 -18 12.667 -28.333 38 -31h58
c47.333 0 86.666 3.66699 117.999 11c59.333 14 89 53 89 117c0 84.667 -54 127 -162 127c-80 0 -124.667 -7 -134 -21z" />
    <glyph glyph-name="germandbls" unicode="&#xdf;" 
d="M429 -17c-44.667 0 -81.668 14.9961 -111.001 44.9961c-0.666992 -26 -11.334 -39 -32.001 -39c-22.667 0 -34 14.667 -34 44c0 10 0.666992 19 2 27c3.33301 20.667 5 38.334 5 53.001c0 8 -0.833008 20 -2.5 36s-2.5 28 -2.5 36c0 28 11.667 42 35 42
c20.667 0 31 -14.333 31 -43v-16c-0.666992 -3.33301 -1 -9 -1 -17c0 -31.333 8.66699 -56.166 26 -74.499s41 -27.5 71 -27.5s55.167 10.5 75.5 31.5s30.5 46.833 30.5 77.5c0 25.333 -7 46.333 -21 63s-44 39.667 -90 69l-58 37c-29.333 18.667 -44 40.667 -44 66
c0 20.667 16 43.834 48 69.501s53.167 45 63.5 58s15.5 26.833 15.5 41.5c0 19.333 -8.66699 35.333 -26 48s-39.333 19 -66 19c-52.667 0 -90.334 -21.333 -113.001 -64c-20 -37.333 -30 -92.333 -30 -165v-66l6 -276c0.666992 -41.333 -14.333 -62 -45 -62
c-5.33301 0 -12.833 1 -22.5 3s-17.167 3 -22.5 3c-6 0 -15.167 -1 -27.5 -3s-21.166 -3 -26.499 -3c-28.667 0 -43 11.333 -43 34c0 21.333 12.333 32 37 32c8.66699 0 15 -0.333008 19 -1c10 -2.66699 18.333 -4 25 -4c16 0 25.667 13.667 29 41
c0.666992 5.33301 1 24.666 1 57.999v19v42c-0.666992 14.667 -1 22.334 -1 23.001v65c0 44.667 -0.333008 69.334 -1 74.001c-2.66699 38.667 -11.667 58 -27 58c-6 0 -12 -0.666992 -18 -2h-5c-2.66699 -0.666992 -4.66699 -1 -6 -1c-25.333 0 -38 11 -38 33
c0 21.333 10.667 32 32 32c2.66699 0 9.33398 -0.666992 20.001 -2c8.66699 -2.66699 17.334 -4 26.001 -4c14.667 0 25.334 14.667 32.001 44c13.333 58 41.666 101 84.999 129c30 19.333 68.333 29 115 29c48.667 0 89.5 -13.5 122.5 -40.5s49.5 -60.167 49.5 -99.5
c0 -38 -17.333 -70.333 -52 -97l-40 -31c-15.333 -12 -23 -21.667 -23 -29c0 -12 12.667 -25.333 38 -40c44 -25.333 74 -44 90 -56s30.667 -27.333 44 -46c19.333 -26.667 29 -57.667 29 -93c0 -50 -17 -92.5 -51 -127.5s-75 -52.5 -123 -52.5z" />
    <glyph glyph-name="agrave" unicode="&#xe0;" horiz-adv-x="564" 
d="M469 -13c-54.667 0 -88.332 23.665 -100.999 70.998c-34 -50 -87.333 -75 -160 -75c-54 0 -97.167 13.333 -129.5 40s-48.5 62.334 -48.5 107.001c0 55.333 23.667 96 71 122c18 10 33.5 16.5 46.5 19.5s39.167 6.83301 78.5 11.5c56 6 92.5 14.333 109.5 25
s25.5 30.334 25.5 59.001c0 27.333 -9.5 48.833 -28.5 64.5s-45.5 23.5 -79.5 23.5c-30 0 -58 -8.33301 -84 -25c-10 -6.66699 -15 -13.667 -15 -21c0 -2.66699 3 -6 9 -10c9.33301 -6.66699 14 -18 14 -34c0 -13.333 -4.83301 -24.333 -14.5 -33s-21.834 -13 -36.501 -13
c-17.333 0 -31.833 6 -43.5 18s-17.5 26.667 -17.5 44c0 37.333 18.5 69.333 55.5 96s81.833 40 134.5 40c121.333 0 182 -58.333 182 -175v-202c0 -32 0.666992 -51 2 -57c4 -23.333 15.333 -35 34 -35c23.333 0 35 21.333 35 64v49c0 21.333 10.333 32 31 32
c22 0 33 -16 33 -48v-5l-1 -57c-1.33301 -64 -35.333 -96 -102 -96zM165.002 698.998c8.66699 0 18.333 -3.33203 29 -9.99902l126 -79c14 -8.66699 21 -17.334 21 -26.001c0 -16 -7 -24 -21 -24c-0.666992 0 -5 1 -13 3l-142 62c-23.333 10 -35 22.667 -35 38
c0 24 11.667 36 35 36zM358.001 185.999l0.999023 70.999c-14.667 -13.333 -30.167 -22.666 -46.5 -27.999s-45.5 -10 -87.5 -14c-76 -7.33301 -114 -35.333 -114 -84c0 -25.333 9.16699 -45.333 27.5 -60s43.166 -22 74.499 -22c44.667 0 79.834 12.167 105.501 36.5
s38.834 57.833 39.501 100.5z" />
    <glyph glyph-name="aacute" unicode="&#xe1;" horiz-adv-x="564" 
d="M469 -13c-54.667 0 -88.332 23.665 -100.999 70.998c-34 -50 -87.333 -75 -160 -75c-54 0 -97.167 13.333 -129.5 40s-48.5 62.334 -48.5 107.001c0 55.333 23.667 96 71 122c18 10 33.5 16.5 46.5 19.5s39.167 6.83301 78.5 11.5c56 6 92.5 14.333 109.5 25
s25.5 30.334 25.5 59.001c0 27.333 -9.5 48.833 -28.5 64.5s-45.5 23.5 -79.5 23.5c-30 0 -58 -8.33301 -84 -25c-10 -6.66699 -15 -13.667 -15 -21c0 -2.66699 3 -6 9 -10c9.33301 -6.66699 14 -18 14 -34c0 -13.333 -4.83301 -24.333 -14.5 -33s-21.834 -13 -36.501 -13
c-17.333 0 -31.833 6 -43.5 18s-17.5 26.667 -17.5 44c0 37.333 18.5 69.333 55.5 96s81.833 40 134.5 40c121.333 0 182 -58.333 182 -175v-202c0 -32 0.666992 -51 2 -57c4 -23.333 15.333 -35 34 -35c23.333 0 35 21.333 35 64v49c0 21.333 10.333 32 31 32
c22 0 33 -16 33 -48v-5l-1 -57c-1.33301 -64 -35.333 -96 -102 -96zM377.002 664.998c0 -16.667 -11.667 -30.001 -35 -40.001l-143 -62c-8 -2 -12.333 -3 -13 -3c-14 0 -21 8 -21 24c0 8.66699 7 17.334 21 26.001l126 79c10.667 6.66699 20.667 10 30 10
c23.333 0 35 -11.333 35 -34zM358.002 185.997l0.999023 70.999c-14.667 -13.333 -30.167 -22.666 -46.5 -27.999s-45.5 -10 -87.5 -14c-76 -7.33301 -114 -35.333 -114 -84c0 -25.333 9.16699 -45.333 27.5 -60s43.166 -22 74.499 -22c44.667 0 79.834 12.167 105.501 36.5
s38.834 57.833 39.501 100.5z" />
    <glyph glyph-name="acircumflex" unicode="&#xe2;" horiz-adv-x="564" 
d="M469 -13c-54.667 0 -88.332 23.665 -100.999 70.998c-34 -50 -87.333 -75 -160 -75c-54 0 -97.167 13.333 -129.5 40s-48.5 62.334 -48.5 107.001c0 55.333 23.667 96 71 122c18 10 33.5 16.5 46.5 19.5s39.167 6.83301 78.5 11.5c56 6 92.5 14.333 109.5 25
s25.5 30.334 25.5 59.001c0 27.333 -9.5 48.833 -28.5 64.5s-45.5 23.5 -79.5 23.5c-30 0 -58 -8.33301 -84 -25c-10 -6.66699 -15 -13.667 -15 -21c0 -2.66699 3 -6 9 -10c9.33301 -6.66699 14 -18 14 -34c0 -13.333 -4.83301 -24.333 -14.5 -33s-21.834 -13 -36.501 -13
c-17.333 0 -31.833 6 -43.5 18s-17.5 26.667 -17.5 44c0 37.333 18.5 69.333 55.5 96s81.833 40 134.5 40c121.333 0 182 -58.333 182 -175v-202c0 -32 0.666992 -51 2 -57c4 -23.333 15.333 -35 34 -35c23.333 0 35 21.333 35 64v49c0 21.333 10.333 32 31 32
c22 0 33 -16 33 -48v-5l-1 -57c-1.33301 -64 -35.333 -96 -102 -96zM372.002 576.998l-111 52l-112 -52c-17.333 -8 -29 -12 -35 -12c-13.333 0 -20 5.66699 -20 17c0 6 7.33301 14.333 22 25l125 89c8 4.66699 14.667 7 20 7c6 0 12.333 -2.33301 19 -7l126 -89l16 -11
c3.33301 -2.66699 5.33301 -6.66699 6 -12v-2c0 -11.333 -6.66699 -17 -20 -17c-6.66699 0 -18.667 4 -36 12zM358.002 185.998l0.999023 70.999c-14.667 -13.333 -30.167 -22.666 -46.5 -27.999s-45.5 -10 -87.5 -14c-76 -7.33301 -114 -35.333 -114 -84
c0 -25.333 9.16699 -45.333 27.5 -60s43.166 -22 74.499 -22c44.667 0 79.834 12.167 105.501 36.5s38.834 57.833 39.501 100.5z" />
    <glyph glyph-name="atilde" unicode="&#xe3;" horiz-adv-x="564" 
d="M469 -13c-54.667 0 -88.332 23.665 -100.999 70.998c-34 -50 -87.333 -75 -160 -75c-54 0 -97.167 13.333 -129.5 40s-48.5 62.334 -48.5 107.001c0 55.333 23.667 96 71 122c18 10 33.5 16.5 46.5 19.5s39.167 6.83301 78.5 11.5c56 6 92.5 14.333 109.5 25
s25.5 30.334 25.5 59.001c0 27.333 -9.5 48.833 -28.5 64.5s-45.5 23.5 -79.5 23.5c-30 0 -58 -8.33301 -84 -25c-10 -6.66699 -15 -13.667 -15 -21c0 -2.66699 3 -6 9 -10c9.33301 -6.66699 14 -18 14 -34c0 -13.333 -4.83301 -24.333 -14.5 -33s-21.834 -13 -36.501 -13
c-17.333 0 -31.833 6 -43.5 18s-17.5 26.667 -17.5 44c0 37.333 18.5 69.333 55.5 96s81.833 40 134.5 40c121.333 0 182 -58.333 182 -175v-202c0 -32 0.666992 -51 2 -57c4 -23.333 15.333 -35 34 -35c23.333 0 35 21.333 35 64v49c0 21.333 10.333 32 31 32
c22 0 33 -16 33 -48v-5l-1 -57c-1.33301 -64 -35.333 -96 -102 -96zM202.002 677.998c17.333 0 40.001 -4.66797 68.001 -14.001l36 -12c12 -4 22.333 -6 31 -6c15.333 0 28.666 5.33301 39.999 16l14 13c3.33301 3.33301 7 5 11 5c9.33301 0 14 -5 14 -15
c0 -20.667 -10 -39.167 -30 -55.5s-42.667 -24.5 -68 -24.5c-15.333 0 -36.333 4.33301 -63 13c-37.333 12 -61.333 18 -72 18c-19.333 0 -33.666 -6 -42.999 -18l-8 -10c-4.66699 -6 -9 -9 -13 -9c-8.66699 0 -13 5 -13 15c0 22.667 9.66699 42.334 29 59.001
s41.666 25 66.999 25zM358.003 185.997l0.999023 70.999c-14.667 -13.333 -30.167 -22.666 -46.5 -27.999s-45.5 -10 -87.5 -14c-76 -7.33301 -114 -35.333 -114 -84c0 -25.333 9.16699 -45.333 27.5 -60s43.166 -22 74.499 -22c44.667 0 79.834 12.167 105.501 36.5
s38.834 57.833 39.501 100.5z" />
    <glyph glyph-name="adieresis" unicode="&#xe4;" horiz-adv-x="564" 
d="M469 -13c-54.667 0 -88.332 23.665 -100.999 70.998c-34 -50 -87.333 -75 -160 -75c-54 0 -97.167 13.333 -129.5 40s-48.5 62.334 -48.5 107.001c0 55.333 23.667 96 71 122c18 10 33.5 16.5 46.5 19.5s39.167 6.83301 78.5 11.5c56 6 92.5 14.333 109.5 25
s25.5 30.334 25.5 59.001c0 27.333 -9.5 48.833 -28.5 64.5s-45.5 23.5 -79.5 23.5c-30 0 -58 -8.33301 -84 -25c-10 -6.66699 -15 -13.667 -15 -21c0 -2.66699 3 -6 9 -10c9.33301 -6.66699 14 -18 14 -34c0 -13.333 -4.83301 -24.333 -14.5 -33s-21.834 -13 -36.501 -13
c-17.333 0 -31.833 6 -43.5 18s-17.5 26.667 -17.5 44c0 37.333 18.5 69.333 55.5 96s81.833 40 134.5 40c121.333 0 182 -58.333 182 -175v-202c0 -32 0.666992 -51 2 -57c4 -23.333 15.333 -35 34 -35c23.333 0 35 21.333 35 64v49c0 21.333 10.333 32 31 32
c22 0 33 -16 33 -48v-5l-1 -57c-1.33301 -64 -35.333 -96 -102 -96zM167.002 570.998c-15.333 0 -28.5 5.5 -39.5 16.5s-16.5 24.167 -16.5 39.5s5.33301 28.5 16 39.5s23.667 16.5 39 16.5s28.5 -5.5 39.5 -16.5s16.5 -24.167 16.5 -39.5s-5.33301 -28.5 -16 -39.5
s-23.667 -16.5 -39 -16.5zM344.002 570.998c-14.667 0 -27.5 5.5 -38.5 16.5s-16.5 24.167 -16.5 39.5s5.33301 28.5 16 39.5s23.667 16.5 39 16.5s28.5 -5.5 39.5 -16.5s16.5 -24.167 16.5 -39.5s-5.5 -28.5 -16.5 -39.5s-24.167 -16.5 -39.5 -16.5zM358.002 185.998
l0.999023 70.999c-14.667 -13.333 -30.167 -22.666 -46.5 -27.999s-45.5 -10 -87.5 -14c-76 -7.33301 -114 -35.333 -114 -84c0 -25.333 9.16699 -45.333 27.5 -60s43.166 -22 74.499 -22c44.667 0 79.834 12.167 105.501 36.5s38.834 57.833 39.501 100.5z" />
    <glyph glyph-name="aring" unicode="&#xe5;" horiz-adv-x="564" 
d="M469 -13c-54.667 0 -88.332 23.665 -100.999 70.998c-34 -50 -87.333 -75 -160 -75c-54 0 -97.167 13.333 -129.5 40s-48.5 62.334 -48.5 107.001c0 55.333 23.667 96 71 122c18 10 33.5 16.5 46.5 19.5s39.167 6.83301 78.5 11.5c56 6 92.5 14.333 109.5 25
s25.5 30.334 25.5 59.001c0 27.333 -9.5 48.833 -28.5 64.5s-45.5 23.5 -79.5 23.5c-30 0 -58 -8.33301 -84 -25c-10 -6.66699 -15 -13.667 -15 -21c0 -2.66699 3 -6 9 -10c9.33301 -6.66699 14 -18 14 -34c0 -13.333 -4.83301 -24.333 -14.5 -33s-21.834 -13 -36.501 -13
c-17.333 0 -31.833 6 -43.5 18s-17.5 26.667 -17.5 44c0 37.333 18.5 69.333 55.5 96s81.833 40 134.5 40c121.333 0 182 -58.333 182 -175v-202c0 -32 0.666992 -51 2 -57c4 -23.333 15.333 -35 34 -35c23.333 0 35 21.333 35 64v49c0 21.333 10.333 32 31 32
c22 0 33 -16 33 -48v-5l-1 -57c-1.33301 -64 -35.333 -96 -102 -96zM256.002 549.998c-25.333 0 -47.166 9 -65.499 27s-27.5 39.333 -27.5 64c0 25.333 9.16699 47 27.5 65s40.166 27 65.499 27s47 -9 65 -27s27 -39.667 27 -65s-9 -46.833 -27 -64.5
s-39.667 -26.5 -65 -26.5zM358.002 185.998l0.999023 70.999c-14.667 -13.333 -30.167 -22.666 -46.5 -27.999s-45.5 -10 -87.5 -14c-76 -7.33301 -114 -35.333 -114 -84c0 -25.333 9.16699 -45.333 27.5 -60s43.166 -22 74.499 -22c44.667 0 79.834 12.167 105.501 36.5
s38.834 57.833 39.501 100.5zM256.001 686.997c-13.333 0 -24.5 -4.5 -33.5 -13.5s-13.5 -19.833 -13.5 -32.5s4.66699 -23.5 14 -32.5s20.333 -13.5 33 -13.5s23.334 4.5 32.001 13.5s13 19.833 13 32.5s-4.33301 23.5 -13 32.5s-19.334 13.5 -32.001 13.5z" />
    <glyph glyph-name="ae" unicode="&#xe6;" horiz-adv-x="837" 
d="M380 474c14.667 -12.667 26.999 -31.333 36.999 -56c46.667 66 105 99 175 99c61.333 0 111.833 -21.667 151.5 -65s59.5 -98.666 59.5 -165.999c0 -33.333 -8.66699 -50 -26 -50h-315c-14.667 0 -22 -6.33301 -22 -19c0 -48 14 -88 42 -120s63 -48 105 -48
c30 0 56.5 7.83301 79.5 23.5s39.167 36.5 48.5 62.5l8 23c5.33301 14.667 16 22 32 22c10.667 0 19.667 -3.5 27 -10.5s11 -15.5 11 -25.5c0 -40.667 -22 -77.667 -66 -111s-92.667 -50 -146 -50c-78 0 -137 33 -177 99c-36.667 -66 -97.667 -99 -183 -99
c-58 0 -104.333 13.833 -139 41.5s-52 64.834 -52 111.501c0 27.333 7.5 53.666 22.5 78.999s34.833 44.333 59.5 57c39.333 20.667 96 31 170 31h61c10.667 0 17.334 1.66699 20.001 5s4 11.333 4 24c0 38 -10.833 68 -32.5 90s-51.167 33 -88.5 33
c-30 0 -55.667 -7 -77 -21c-10 -6.66699 -15 -13 -15 -19c0 -1.33301 1.33301 -4 4 -8c8.66699 -12.667 13 -24 13 -34c0 -14.667 -5.33301 -26.834 -16 -36.501s-23.667 -14.5 -39 -14.5c-16.667 0 -30.5 5.5 -41.5 16.5s-16.5 25.167 -16.5 42.5c0 36.667 19 68.5 57 95.5
s82.333 40.5 133 40.5c55.333 0 99.333 -14.333 132 -43zM447.999 317.001c0 -9.33301 7.66699 -14 23 -14h227c15.333 0 23 4.33301 23 13c0 36 -13.167 67.5 -39.5 94.5s-57.166 40.5 -92.499 40.5c-36.667 0 -69.334 -13.5 -98.001 -40.5s-43 -58.167 -43 -93.5z
M363.999 214.001c0 10 -1.16699 16.167 -3.5 18.5s-8.5 3.5 -18.5 3.5h-80c-100.667 0 -151 -32.667 -151 -98c0 -26.667 10.5 -48.167 31.5 -64.5s48.167 -24.5 81.5 -24.5c48.667 0 85.667 15.333 111 46c19.333 23.333 29 58.333 29 105v14z" />
    <glyph glyph-name="ccedilla" unicode="&#xe7;" horiz-adv-x="510" 
d="M330 330c0 26.667 16.668 42.0029 50.001 46.0029c-3.33301 23.333 -14.5 41.666 -33.5 54.999s-43.5 20 -73.5 20c-46 0 -83 -18.333 -111 -55s-42 -85.334 -42 -146.001c0 -62.667 13.167 -111.834 39.5 -147.501s62.833 -53.5 109.5 -53.5
c29.333 0 54.833 8.33301 76.5 25s36.5 39.667 44.5 69c6.66699 23.333 10.667 36.666 12 39.999c7.33301 13.333 18 20 32 20c11.333 0 20.666 -3.66699 27.999 -11s11 -16.666 11 -27.999c0 -16 -5.33301 -35.667 -16 -59s-23.334 -43 -38.001 -59
c-30.667 -34 -76.667 -55 -138 -63l-13 -31c12 2 20.667 3 26 3c24 0 44.5 -7.33301 61.5 -22s25.5 -32.334 25.5 -53.001c0 -23.333 -10.667 -43 -32 -59s-47.666 -24 -78.999 -24c-27.333 0 -51.666 6 -72.999 18s-32 25.667 -32 41c0 6 2.33301 11.5 7 16.5
s9.66699 7.5 15 7.5c7.33301 0 13.333 -2.66699 18 -8l11 -12c11.333 -12.667 28.333 -19 51 -19c34.667 0 52 12.667 52 38c0 23.333 -15 35 -45 35c-7.33301 0 -15 -1.33301 -23 -4l-24 -8c-2 -0.666992 -5.66699 -1 -11 -1c-8.66699 0 -13 3.66699 -13 11
c0 2.66699 1.66699 8 5 16l24 58c-35.333 6 -63.333 15.667 -84 29c-72.667 48 -109 124.333 -109 229c0 82.667 21.5 148.834 64.5 198.501s100.167 74.5 171.5 74.5c53.333 0 97.666 -14.5 132.999 -43.5s53 -65.833 53 -110.5c0 -24.667 -6.83301 -45 -20.5 -61
s-31.167 -24 -52.5 -24c-16.667 0 -30.5 5 -41.5 15s-16.5 22.333 -16.5 37z" />
    <glyph glyph-name="egrave" unicode="&#xe8;" horiz-adv-x="528" 
d="M493 294c0 -25.333 -1.66504 -40.834 -4.99805 -46.501s-13 -8.5 -29 -8.5h-318c-8.66699 0 -14.334 -1.16699 -17.001 -3.5s-4 -6.16602 -4 -11.499c0 -50 15 -91.667 45 -125s67.333 -50 112 -50c29.333 0 56.166 8 80.499 24s40.166 36.333 47.499 61l9 29
c4.66699 16 15.667 24 33 24c24.667 0 37 -12.667 37 -38c0 -43.333 -22 -81.833 -66 -115.5s-94 -50.5 -150 -50.5c-70 0 -125.667 23.5 -167 70.5s-62 110.167 -62 189.5c0 81.333 22 147.333 66 198s101.333 76 172 76c62.667 0 114.334 -21 155.001 -63
s61 -95.333 61 -160zM193.002 698.999c8.66699 0 18.333 -3.33301 29 -10l127 -79c13.333 -8 20 -16.667 20 -26c0 -16 -7 -24 -21 -24c-0.666992 0 -5 1 -13 3l-142 62c-23.333 10 -35 22.667 -35 38c0 10 3.5 18.5 10.5 25.5s15.167 10.5 24.5 10.5zM130.001 319.999
c0 -9.33301 7.33301 -14 22 -14h239c14 0 21 4.66699 21 14c0 35.333 -13.333 66 -40 92s-58 39 -94 39c-37.333 0 -71.333 -13.5 -102 -40.5s-46 -57.167 -46 -90.5z" />
    <glyph glyph-name="eacute" unicode="&#xe9;" horiz-adv-x="528" 
d="M493 294c0 -25.333 -1.66504 -40.834 -4.99805 -46.501s-13 -8.5 -29 -8.5h-318c-8.66699 0 -14.334 -1.16699 -17.001 -3.5s-4 -6.16602 -4 -11.499c0 -50 15 -91.667 45 -125s67.333 -50 112 -50c29.333 0 56.166 8 80.499 24s40.166 36.333 47.499 61l9 29
c4.66699 16 15.667 24 33 24c24.667 0 37 -12.667 37 -38c0 -43.333 -22 -81.833 -66 -115.5s-94 -50.5 -150 -50.5c-70 0 -125.667 23.5 -167 70.5s-62 110.167 -62 189.5c0 81.333 22 147.333 66 198s101.333 76 172 76c62.667 0 114.334 -21 155.001 -63
s61 -95.333 61 -160zM379.002 664.999c0 -16 -12 -29.334 -36 -40.001l-142 -62c-8 -2 -12.333 -3 -13 -3c-14 0 -21 8 -21 24c0 8.66699 7 17.334 21 26.001l126 79c10.667 6.66699 20.667 10 30 10c23.333 0 35 -11.333 35 -34zM130.002 319.998
c0 -9.33301 7.33301 -14 22 -14h239c14 0 21 4.66699 21 14c0 35.333 -13.333 66 -40 92s-58 39 -94 39c-37.333 0 -71.333 -13.5 -102 -40.5s-46 -57.167 -46 -90.5z" />
    <glyph glyph-name="ecircumflex" unicode="&#xea;" horiz-adv-x="528" 
d="M493 294c0 -25.333 -1.66504 -40.834 -4.99805 -46.501s-13 -8.5 -29 -8.5h-318c-8.66699 0 -14.334 -1.16699 -17.001 -3.5s-4 -6.16602 -4 -11.499c0 -50 15 -91.667 45 -125s67.333 -50 112 -50c29.333 0 56.166 8 80.499 24s40.166 36.333 47.499 61l9 29
c4.66699 16 15.667 24 33 24c24.667 0 37 -12.667 37 -38c0 -43.333 -22 -81.833 -66 -115.5s-94 -50.5 -150 -50.5c-70 0 -125.667 23.5 -167 70.5s-62 110.167 -62 189.5c0 81.333 22 147.333 66 198s101.333 76 172 76c62.667 0 114.334 -21 155.001 -63
s61 -95.333 61 -160zM391.002 576.999l-112 52l-111 -52c-17.333 -8 -29 -12 -35 -12c-14 0 -21 5.66699 -21 17c0 6 7.33301 14.333 22 25l126 89c6.66699 4.66699 13 7 19 7c5.33301 0 12 -2.33301 20 -7l126 -89l15 -11c3.33301 -2.66699 5.33301 -6.66699 6 -12v-2
c0 -11.333 -6.66699 -17 -20 -17c-6 0 -17.667 4 -35 12zM130.002 319.999c0 -9.33301 7.33301 -14 22 -14h239c14 0 21 4.66699 21 14c0 35.333 -13.333 66 -40 92s-58 39 -94 39c-37.333 0 -71.333 -13.5 -102 -40.5s-46 -57.167 -46 -90.5z" />
    <glyph glyph-name="edieresis" unicode="&#xeb;" horiz-adv-x="528" 
d="M493 294c0 -25.333 -1.66504 -40.834 -4.99805 -46.501s-13 -8.5 -29 -8.5h-318c-8.66699 0 -14.334 -1.16699 -17.001 -3.5s-4 -6.16602 -4 -11.499c0 -50 15 -91.667 45 -125s67.333 -50 112 -50c29.333 0 56.166 8 80.499 24s40.166 36.333 47.499 61l9 29
c4.66699 16 15.667 24 33 24c24.667 0 37 -12.667 37 -38c0 -43.333 -22 -81.833 -66 -115.5s-94 -50.5 -150 -50.5c-70 0 -125.667 23.5 -167 70.5s-62 110.167 -62 189.5c0 81.333 22 147.333 66 198s101.333 76 172 76c62.667 0 114.334 -21 155.001 -63
s61 -95.333 61 -160zM190.002 570.999c-14.667 0 -27.5 5.5 -38.5 16.5s-16.5 24.167 -16.5 39.5s5.33301 28.5 16 39.5s23.667 16.5 39 16.5s28.5 -5.5 39.5 -16.5s16.5 -24.167 16.5 -39.5s-5.5 -28.5 -16.5 -39.5s-24.167 -16.5 -39.5 -16.5zM368.002 570.999
c-14.667 0 -27.5 5.5 -38.5 16.5s-16.5 24.167 -16.5 39.5s5.33301 28.5 16 39.5s23.667 16.5 39 16.5s28.5 -5.5 39.5 -16.5s16.5 -24.167 16.5 -39.5s-5.5 -28.5 -16.5 -39.5s-24.167 -16.5 -39.5 -16.5zM130.002 319.999c0 -9.33301 7.33301 -14 22 -14h239
c14 0 21 4.66699 21 14c0 35.333 -13.333 66 -40 92s-58 39 -94 39c-37.333 0 -71.333 -13.5 -102 -40.5s-46 -57.167 -46 -90.5z" />
    <glyph glyph-name="igrave" unicode="&#xec;" horiz-adv-x="310" 
d="M201 290l0.00585938 -130c0 -33.333 0.333008 -53 1 -59c3.33301 -30 12.333 -45 27 -45c3.33301 0 11.666 1.66699 24.999 5c3.33301 1.33301 8.33301 2 15 2c25.333 0 38 -11 38 -33c0 -9.33301 -4.16699 -17.333 -12.5 -24s-18.833 -10 -31.5 -10
c-10.667 0 -26.834 1.5 -48.501 4.5s-37.834 4.5 -48.501 4.5c-17.333 0 -36.666 -1.33301 -57.999 -4c-26 -3.33301 -43.333 -5 -52 -5c-26.667 0 -40 11.333 -40 34c0 22 11.333 33 34 33c5.33301 0 13.166 -1 23.499 -3s18.166 -3 23.499 -3c16 0 25.667 21.333 29 64v87
v82v87c-3.33301 42 -13.333 63 -30 63c-5.33301 0 -12.833 -1.16699 -22.5 -3.5s-16.834 -3.5 -21.501 -3.5c-24 0 -36 10.667 -36 32c0 22.667 14.667 34 44 34c12.667 0 21.667 -0.333008 27 -1c21.333 -2.66699 35 -4 41 -4c5.33301 0 13.5 0.833008 24.5 2.5
s19.167 2.5 24.5 2.5c19.333 0 29 -13 29 -39c0 -2.66699 -0.333008 -6.66699 -1 -12s-1 -9.33301 -1 -12c-0.666992 -5.33301 -1.33398 -26 -2.00098 -62c-0.666992 -27.333 -1 -55.333 -1 -84zM63.0059 699c8.66699 0 18.333 -3.33203 29 -9.99902l127 -79
c14 -8.66699 21 -17.334 21 -26.001c0 -16 -7.33301 -24 -22 -24c-0.666992 0 -5 1 -13 3l-142 62c-23.333 10 -35 22.667 -35 38c0 10 3.5 18.5 10.5 25.5s15.167 10.5 24.5 10.5z" />
    <glyph glyph-name="iacute" unicode="&#xed;" horiz-adv-x="310" 
d="M201 290l0.00585938 -130c0 -33.333 0.333008 -53 1 -59c3.33301 -30 12.333 -45 27 -45c3.33301 0 11.666 1.66699 24.999 5c3.33301 1.33301 8.33301 2 15 2c25.333 0 38 -11 38 -33c0 -9.33301 -4.16699 -17.333 -12.5 -24s-18.833 -10 -31.5 -10
c-10.667 0 -26.834 1.5 -48.501 4.5s-37.834 4.5 -48.501 4.5c-17.333 0 -36.666 -1.33301 -57.999 -4c-26 -3.33301 -43.333 -5 -52 -5c-26.667 0 -40 11.333 -40 34c0 22 11.333 33 34 33c5.33301 0 13.166 -1 23.499 -3s18.166 -3 23.499 -3c16 0 25.667 21.333 29 64v87
v82v87c-3.33301 42 -13.333 63 -30 63c-5.33301 0 -12.833 -1.16699 -22.5 -3.5s-16.834 -3.5 -21.501 -3.5c-24 0 -36 10.667 -36 32c0 22.667 14.667 34 44 34c12.667 0 21.667 -0.333008 27 -1c21.333 -2.66699 35 -4 41 -4c5.33301 0 13.5 0.833008 24.5 2.5
s19.167 2.5 24.5 2.5c19.333 0 29 -13 29 -39c0 -2.66699 -0.333008 -6.66699 -1 -12s-1 -9.33301 -1 -12c-0.666992 -5.33301 -1.33398 -26 -2.00098 -62c-0.666992 -27.333 -1 -55.333 -1 -84zM250.006 665c0 -16 -12 -29.334 -36 -40.001l-142 -62
c-8 -2 -12.333 -3 -13 -3c-14 0 -21 8 -21 24c0 8.66699 7 17.334 21 26.001l126 79c10.667 6.66699 20.667 10 30 10c23.333 0 35 -11.333 35 -34z" />
    <glyph glyph-name="icircumflex" unicode="&#xee;" horiz-adv-x="309" 
d="M201 290l0.00585938 -130c0 -33.333 0.333008 -53 1 -59c3.33301 -30 12.333 -45 27 -45c3.33301 0 11.666 1.66699 24.999 5c3.33301 1.33301 8.33301 2 15 2c25.333 0 38 -11 38 -33c0 -9.33301 -4.16699 -17.333 -12.5 -24s-18.833 -10 -31.5 -10
c-10.667 0 -26.834 1.5 -48.501 4.5s-37.834 4.5 -48.501 4.5c-17.333 0 -36.666 -1.33301 -57.999 -4c-26 -3.33301 -43.333 -5 -52 -5c-26.667 0 -40 11.333 -40 34c0 22 11.333 33 34 33c5.33301 0 13.166 -1 23.499 -3s18.166 -3 23.499 -3c16 0 25.667 21.333 29 64v87
v82v87c-3.33301 42 -13.333 63 -30 63c-5.33301 0 -12.833 -1.16699 -22.5 -3.5s-16.834 -3.5 -21.501 -3.5c-24 0 -36 10.667 -36 32c0 22.667 14.667 34 44 34c12.667 0 21.667 -0.333008 27 -1c21.333 -2.66699 35 -4 41 -4c5.33301 0 13.5 0.833008 24.5 2.5
s19.167 2.5 24.5 2.5c19.333 0 29 -13 29 -39c0 -2.66699 -0.333008 -6.66699 -1 -12s-1 -9.33301 -1 -12c-0.666992 -5.33301 -1.33398 -26 -2.00098 -62c-0.666992 -27.333 -1 -55.333 -1 -84zM242.006 577l-97.001 52l-97 -52c-14.667 -8 -25 -12 -31 -12
c-11.333 0 -17 5.66699 -17 17c0 6.66699 6 15 18 25l110 89c6 4.66699 11.667 7 17 7c4.66699 0 10.334 -2.33301 17.001 -7l109 -89c12.667 -10.667 19 -19 19 -25c0 -11.333 -5.66699 -17 -17 -17c-6 0 -16.333 4 -31 12z" />
    <glyph glyph-name="idieresis" unicode="&#xef;" horiz-adv-x="310" 
d="M201 290l0.00585938 -130c0 -33.333 0.333008 -53 1 -59c3.33301 -30 12.333 -45 27 -45c3.33301 0 11.666 1.66699 24.999 5c3.33301 1.33301 8.33301 2 15 2c25.333 0 38 -11 38 -33c0 -9.33301 -4.16699 -17.333 -12.5 -24s-18.833 -10 -31.5 -10
c-10.667 0 -26.834 1.5 -48.501 4.5s-37.834 4.5 -48.501 4.5c-16.667 0 -35.667 -1.33301 -57 -4c-26 -3.33301 -43.667 -5 -53 -5c-26.667 0 -40 11.333 -40 34c0 22 11.333 33 34 33c5.33301 0 13.166 -1 23.499 -3s18.166 -3 23.499 -3c16 0 25.667 21.333 29 64v87v82
v87c-3.33301 42 -13.333 63 -30 63c-5.33301 0 -12.833 -1.16699 -22.5 -3.5s-16.834 -3.5 -21.501 -3.5c-24 0 -36 10.667 -36 32c0 22.667 14.667 34 44 34c12.667 0 21.667 -0.333008 27 -1c21.333 -2.66699 35 -4 41 -4c5.33301 0 13.5 0.833008 24.5 2.5
s19.167 2.5 24.5 2.5c19.333 0 29 -13 29 -39c0 -10.667 -0.666992 -25 -2 -43c-1.33301 -20.667 -2 -35 -2 -43c-0.666992 -27.333 -1 -55.333 -1 -84zM56.0059 571c-15.333 0 -28.5 5.5 -39.5 16.5s-16.5 24.167 -16.5 39.5s5.5 28.5 16.5 39.5s24.167 16.5 39.5 16.5
s28.5 -5.5 39.5 -16.5s16.5 -24.167 16.5 -39.5s-5.5 -28.5 -16.5 -39.5s-24.167 -16.5 -39.5 -16.5zM234.006 571c-15.333 0 -28.5 5.5 -39.5 16.5s-16.5 24.167 -16.5 39.5s5.5 28.5 16.5 39.5s24.167 16.5 39.5 16.5s28.5 -5.5 39.5 -16.5s16.5 -24.167 16.5 -39.5
s-5.5 -28.5 -16.5 -39.5s-24.167 -16.5 -39.5 -16.5z" />
    <glyph glyph-name="eth" unicode="&#xf0;" horiz-adv-x="546" 
d="M394 665l-56.999 -57c17.333 -13.333 33 -27.666 47 -42.999c78 -84.667 119 -193.334 123 -326.001c0.666992 -4 1 -10.333 1 -19h-1v-5c0 -69.333 -21.667 -124.833 -65 -166.5s-101 -62.5 -173 -62.5c-70 0 -126 20.5 -168 61.5s-63 96.167 -63 165.5
c0 68.667 21.167 123.5 63.5 164.5s99.166 61.5 170.499 61.5c46 0 86 -8.33301 120 -25c-16.667 44.667 -39.667 84.334 -69 119.001l-29 32l-65 -65c-16.667 -16.667 -33.667 -16.334 -51 0.999023c-16.667 16.667 -16.667 33.334 0 50.001l61 61
c-23.333 18 -47.666 33.333 -72.999 46c-18.667 8.66699 -28 17 -28 25c0 9.33301 6 14 18 14c23.333 0 58.666 -13 105.999 -39c5.33301 -2.66699 10.333 -5.33398 15 -8.00098l66 66c15.333 15.333 31.666 14.666 48.999 -2.00098
c16.667 -17.333 17.334 -33.666 2.00098 -48.999zM274.001 383c-46.667 0 -83.332 -13.833 -109.999 -41.5s-41.334 -66.834 -44.001 -117.501v-11c0 -53.333 13.167 -95.166 39.5 -125.499s63.166 -45.5 110.499 -45.5c48.667 0 86.834 15.167 114.501 45.5
s41.5 71.833 41.5 124.5h-1c0 12 -0.333008 23.667 -1 35c-9.33301 90.667 -59.333 136 -150 136z" />
    <glyph glyph-name="ntilde" unicode="&#xf1;" 
d="M192 469l-0.00390625 -27.999c40 50.667 93.333 76 160 76c36 0 70 -9.16699 102 -27.5s53.667 -41.166 65 -68.499c9.33301 -22.667 14 -52.334 14 -89.001v-190c0 -28.667 0.333008 -45.667 1 -51c3.33301 -22.667 12.333 -34 27 -34c6 0 13.833 0.833008 23.5 2.5
s16.5 2.5 20.5 2.5c8.66699 0 16.167 -3 22.5 -9s9.5 -13.333 9.5 -22c0 -10 -4 -18.333 -12 -25s-17.667 -10 -29 -10c-9.33301 0 -24.666 1.33301 -45.999 4s-41.333 4 -60 4c-17.333 0 -31.666 -0.666992 -42.999 -2c-33.333 -4 -51 -6 -53 -6
c-26.667 0 -40 11.667 -40 35c0 20.667 11.333 31 34 31c5.33301 0 11.333 -0.666992 18 -2c12.667 -2.66699 20.667 -4 24 -4c16 0 24.667 18.333 26 55l2 51l1 61v76c0 35.333 -1.66699 59.666 -5 72.999c-6 25.333 -19 45 -39 59c-22 15.333 -47 23 -75 23
c-53.333 0 -91.666 -19 -114.999 -57c-16 -26 -24 -70.333 -24 -133v-133c0 -29.333 2 -49.333 6 -60s11.333 -16 22 -16c5.33301 0 12.666 1.33301 21.999 4s17 4 23 4c20.667 0 31 -11.333 31 -34c0 -22 -13.333 -33 -40 -33c-5.33301 0 -22.666 2 -51.999 6
c-14.667 2 -31 3 -49 3c-14 0 -32.667 -1.33301 -56 -4c-29.333 -3.33301 -46 -5 -50 -5c-28 0 -42 11.333 -42 34c0 21.333 10.667 32 32 32c3.33301 0 9.5 -1 18.5 -3s17.833 -3 26.5 -3c20 0 30.333 19.333 31 58l2 111v121l-2 35
c-1.33301 22.667 -4.16602 38.167 -8.49902 46.5s-11.833 12.5 -22.5 12.5c-4.66699 0 -11.5 -0.833008 -20.5 -2.5s-15.833 -2.5 -20.5 -2.5c-24 0 -36 10.667 -36 32c0 22 15 33 45 33c4 0 7.33301 -0.333008 10 -1l37 -4c10.667 0 20 0.666992 28 2
c17.333 1.33301 26.333 2 27 2c19.333 0 29 -10 29 -30zM272.996 678.001c16 0 38.333 -4.66797 67 -14.001l37 -12c12 -4 22.333 -6 31 -6c15.333 0 28.666 5.33301 39.999 16l14 13c3.33301 3.33301 7 5 11 5c9.33301 0 14 -5 14 -15c0 -20.667 -10 -39.167 -30 -55.5
s-42.667 -24.5 -68 -24.5c-15.333 0 -36.333 4.33301 -63 13c-37.333 12 -61.333 18 -72 18c-19.333 0 -33.666 -6 -42.999 -18l-8 -10c-4.66699 -6 -9 -9 -13 -9c-9.33301 0 -14 5 -14 15c0 22.667 9.83301 42.334 29.5 59.001s42.167 25 67.5 25z" />
    <glyph glyph-name="ograve" unicode="&#xf2;" horiz-adv-x="546" 
d="M269 -17c-70 0 -125.999 24.167 -167.999 72.5s-63 113.166 -63 194.499s21.167 146.166 63.5 194.499s99.166 72.5 170.499 72.5c72.667 0 130 -23.667 172 -71s63 -111.666 63 -192.999s-21.667 -146.666 -65 -195.999s-101 -74 -173 -74zM189.001 699
c8.66699 0 18.333 -3.33301 29 -10l127 -79c13.333 -8 20 -16.667 20 -26c0 -16 -7 -24 -21 -24c-0.666992 0 -5 1 -13 3l-142 62c-23.333 10 -35 22.667 -35 38c0 24 11.667 36 35 36zM274 451c-46.667 0 -83.332 -16.332 -109.999 -48.999s-41.334 -79 -44.001 -139v-13
c0 -62.667 13.167 -111.834 39.5 -147.501s63.166 -53.5 110.499 -53.5c48.667 0 86.834 17.833 114.501 53.5s41.5 85.167 41.5 148.5c0 133.333 -50.667 200 -152 200z" />
    <glyph glyph-name="oacute" unicode="&#xf3;" horiz-adv-x="546" 
d="M269 -17c-70 0 -125.999 24.167 -167.999 72.5s-63 113.166 -63 194.499s21.167 146.166 63.5 194.499s99.166 72.5 170.499 72.5c72.667 0 130 -23.667 172 -71s63 -111.666 63 -192.999s-21.667 -146.666 -65 -195.999s-101 -74 -173 -74zM381.001 665
c0 -16.667 -11.667 -30.001 -35 -40.001l-142 -62c-10 -2 -14.667 -3 -14 -3c-13.333 0 -20 8 -20 24c0 8.66699 6.66699 17.334 20 26.001l126 79c10.667 6.66699 21 10 31 10c22.667 0 34 -11.333 34 -34zM274.001 450.999c-46.667 0 -83.332 -16.332 -109.999 -48.999
s-41.334 -79 -44.001 -139v-13c0 -62.667 13.167 -111.834 39.5 -147.501s63.166 -53.5 110.499 -53.5c48.667 0 86.834 17.833 114.501 53.5s41.5 85.167 41.5 148.5c0 133.333 -50.667 200 -152 200z" />
    <glyph glyph-name="ocircumflex" unicode="&#xf4;" horiz-adv-x="546" 
d="M269 -17c-70 0 -125.999 24.167 -167.999 72.5s-63 113.166 -63 194.499s21.167 146.166 63.5 194.499s99.166 72.5 170.499 72.5c72.667 0 130 -23.667 172 -71s63 -111.666 63 -192.999s-21.667 -146.666 -65 -195.999s-101 -74 -173 -74zM384.001 577l-111 52
l-112 -52c-17.333 -8 -29 -12 -35 -12c-13.333 0 -20 5.66699 -20 17c0 6 7.33301 14.333 22 25l126 89c6.66699 4.66699 13 7 19 7s12.333 -2.33301 19 -7l126 -89l16 -11c3.33301 -2.66699 5.33301 -6.66699 6 -12v-2c0 -11.333 -6.66699 -17 -20 -17
c-6.66699 0 -18.667 4 -36 12zM274.001 451c-46.667 0 -83.332 -16.332 -109.999 -48.999s-41.334 -79 -44.001 -139v-13c0 -62.667 13.167 -111.834 39.5 -147.501s63.166 -53.5 110.499 -53.5c48.667 0 86.834 17.833 114.501 53.5s41.5 85.167 41.5 148.5
c0 133.333 -50.667 200 -152 200z" />
    <glyph glyph-name="otilde" unicode="&#xf5;" horiz-adv-x="546" 
d="M269 -17c-70 0 -125.999 24.167 -167.999 72.5s-63 113.166 -63 194.499s21.167 146.166 63.5 194.499s99.166 72.5 170.499 72.5c72.667 0 130 -23.667 172 -71s63 -111.666 63 -192.999s-21.667 -146.666 -65 -195.999s-101 -74 -173 -74zM214.001 678
c17.333 0 40.001 -4.66797 68.001 -14.001l36 -12c12 -4 22.333 -6 31 -6c17.333 0 30.666 5.33301 39.999 16l14 13c3.33301 3.33301 7 5 11 5c9.33301 0 14 -5 14 -15c0 -21.333 -9.83301 -40 -29.5 -56s-42.5 -24 -68.5 -24c-15.333 0 -36.333 4.33301 -63 13
c-37.333 12 -61.333 18 -72 18c-19.333 0 -33.666 -6 -42.999 -18l-8 -10c-4.66699 -6 -9 -9 -13 -9c-8.66699 0 -13 5 -13 15c0 22.667 9.66699 42.334 29 59.001s41.666 25 66.999 25zM274.002 450.999c-46.667 0 -83.332 -16.332 -109.999 -48.999
s-41.334 -79 -44.001 -139v-13c0 -62.667 13.167 -111.834 39.5 -147.501s63.166 -53.5 110.499 -53.5c48.667 0 86.834 17.833 114.501 53.5s41.5 85.167 41.5 148.5c0 133.333 -50.667 200 -152 200z" />
    <glyph glyph-name="odieresis" unicode="&#xf6;" horiz-adv-x="546" 
d="M269 -17c-70 0 -125.999 24.167 -167.999 72.5s-63 113.166 -63 194.499s21.167 146.166 63.5 194.499s99.166 72.5 170.499 72.5c72.667 0 130 -23.667 172 -71s63 -111.666 63 -192.999s-21.667 -146.666 -65 -195.999s-101 -74 -173 -74zM184.001 571
c-15.333 0 -28.5 5.5 -39.5 16.5s-16.5 24.167 -16.5 39.5s5.5 28.5 16.5 39.5s24.167 16.5 39.5 16.5s28.5 -5.5 39.5 -16.5s16.5 -24.167 16.5 -39.5s-5.5 -28.5 -16.5 -39.5s-24.167 -16.5 -39.5 -16.5zM362.001 571c-15.333 0 -28.5 5.5 -39.5 16.5
s-16.5 24.167 -16.5 39.5s5.5 28.5 16.5 39.5s24.167 16.5 39.5 16.5s28.5 -5.5 39.5 -16.5s16.5 -24.167 16.5 -39.5s-5.5 -28.5 -16.5 -39.5s-24.167 -16.5 -39.5 -16.5zM274.001 451c-46.667 0 -83.332 -16.332 -109.999 -48.999s-41.334 -79 -44.001 -139v-13
c0 -62.667 13.167 -111.834 39.5 -147.501s63.166 -53.5 110.499 -53.5c48.667 0 86.834 17.833 114.501 53.5s41.5 85.167 41.5 148.5c0 133.333 -50.667 200 -152 200z" />
    </font>
</defs>
</svg>
